<?xml version="1.0" encoding="UTF-8"?>
<svg width="151px" height="34px" viewBox="0 0 151 34" version="1.1" xmlns="http://www.w3.org/2000/svg" xmlns:xlink="http://www.w3.org/1999/xlink">
    <!-- Generator: Sketch 50.2 (55047) - http://www.bohemiancoding.com/sketch -->
    <title>Page 1</title>
    <desc>Created with Sketch.</desc>
    <defs>
        <polygon id="path-1" points="0.593464106 0.412305882 21.6347313 0.412305882 21.6347313 11 0.593464106 11"></polygon>
        <polygon id="path-3" points="0 0.526074679 179.580316 0.526074679 179.580316 29.4215333 0 29.4215333"></polygon>
        <polygon id="path-5" points="0.16185 0.166734182 0.71085 0.166734182 0.71085 0.5 0.16185 0.5"></polygon>
    </defs>
    <g id="Page-1" stroke="none" stroke-width="1" fill="none" fill-rule="evenodd">
        <g id="Liste-de-recherche_responsive" transform="translate(-169.000000, -78.000000)">
            <g id="Page-1" transform="translate(169.000000, 78.000000)">
                <path d="M75.7327675,21.9222222 C75.3998244,21.9492958 75.3017708,22.3047833 75.2534758,22.4848813 L79,22.4566306 C78.8829211,22.0605328 77.8036002,21.570266 78.5250988,21.3342553 C78.2031319,20.8969586 77.2240597,21.2712799 77.0821016,21.8050997 L77.3535782,21.2018303 C76.4901215,21.9751922 75.9003366,20.4561305 76.4637787,20 L76.3906044,20.0082398 L74,22.9827992 C74.8780916,23.1564231 74.6761305,21.9593012 75.7327675,21.9222222" id="Fill-8" fill="#FF0217"></path>
                <path d="M5,20.726 C5.664,20.493 5.745,20.249 5.67,20 C5.432,20.188 5.206,20.405 5,20.726" id="Fill-10" fill="#FF0217"></path>
                <path d="M74,24 L73,25 C73.3998045,24.7299178 73.7526882,24.3706515 74,24" id="Fill-12" fill="#FF0217"></path>
                <path d="M78.473,8.271 C78.475,8.188 78.486,8.113 78.459,8 L78,8.809 L78.011,8.809 C78.181,8.63 78.333,8.451 78.473,8.271" id="Fill-14" fill="#FF0217"></path>
                <path d="M58.336,28 C58.226,28.041 58.131,28.058 58,28.111 C58.122,28.1 58.233,28.056 58.336,28" id="Fill-16" fill="#FF0217"></path>
                <path d="M88,2 L86.2999066,3.02219446 C86.5262372,2.53831542 85.7060691,2.68347913 86.0646125,2.1189536 C85.9346405,2.19623983 85.3273576,2.38844733 85.4931839,2.63710739 L85.8397759,2.6061929 C84.9434174,4.01616264 85.4864613,4.55783833 84,5.63245302 C84.9225023,6.46916051 85.3273576,5.70301871 85.815873,5.06120694 C85.9816993,4.96308702 86.1206349,4.9194035 86.2610644,4.86563916 L87.67507,2.89450416 L88,2 Z" id="Fill-18" fill="#FF0217"></path>
                <path d="M26.0004519,12.163 L26.0254519,12 C26.0024519,12.057 25.9984519,12.111 26.0004519,12.163" id="Fill-20" fill="#FF0217"></path>
                <path d="M26.1,12 L26,12.673 C26.122,12.338 26.591,12.015 26.1,12" id="Fill-22" fill="#FF0217"></path>
                <path d="M74.376,23 C74.345,23.2869757 74.214,23.6379691 74,24 L74.764,23.1272995 C74.655,23.1096394 74.512,23.0500368 74.376,23" id="Fill-24" fill="#FF0217"></path>
                <path d="M75,20 L76.461128,19.7851478 L77,19 C76.4405488,19.296323 75.7865854,19.4996395 75,20" id="Fill-26" fill="#FF0217"></path>
                <g id="Group-30" transform="translate(52.000000, 22.000000)">
                    <mask id="mask-2" fill="white">
                        <use xlink:href="#path-1"></use>
                    </mask>
                    <g id="Clip-29"></g>
                    <path d="M8.45054375,6.37883529 C5.71979375,6.58718824 9.12154375,4.7806 7.86685625,4.3956 C7.10854375,4.58389412 6.84110625,5.3416 6.36879375,5.58036471 C8.53441875,4.93201176 6.07454375,8.07930588 8.25873125,7.67683529 C7.94866875,9.04989412 6.68366875,9.17283529 5.94254375,8.80077647 C5.10379375,7.47883529 6.67541875,7.83212941 6.86585625,6.53607059 C5.98929375,6.75154118 6.14398125,6.99224706 5.77204375,7.72924706 C4.39566875,7.42254118 2.92441875,9.35530588 2.10216875,7.52154118 C1.10598125,7.81336471 1.17198125,8.44554118 0.59929375,9.14242353 C0.48516875,10.5575412 2.08016875,9.88524706 2.44935625,11.0001294 C2.37304375,10.8804235 2.22385625,10.6410118 2.26716875,10.4423647 L3.12860625,10.7406588 C2.31116875,10.2469529 3.24204375,9.32618824 3.67929375,9.21554118 C3.99691875,9.18512941 4.62873125,9.12301176 4.54141875,9.51383529 L4.06085625,9.8186 C4.68029375,10.2657176 5.42760625,8.78589412 6.08141875,9.55265882 C6.11579375,9.87036471 5.86829375,10.0204824 5.83048125,10.2165412 C6.56335625,9.24983529 7.27079375,9.30742353 8.35566875,8.62348235 L7.72660625,10.0269529 C8.59423125,8.47336471 10.5597937,8.91465882 11.9217312,9.73448235 C11.7704812,9.49701176 11.4982312,9.32942353 11.6618562,9.05895294 C12.4621062,8.72377647 13.0664187,9.6866 12.6958562,10.4255412 C13.4768562,9.26083529 15.6734187,11.4058353 16.7383562,9.89301176 L21.6347312,2.75854118 C21.4518562,2.93712941 21.2552312,3.08271765 21.0531062,3.14354118 C20.6082937,1.91283529 20.3683562,2.06165882 21.1479812,0.900188235 C20.3821062,1.55177647 20.6749812,2.54177647 19.5247937,2.59289412 C19.9757937,1.97236471 20.0899187,0.557894118 18.9878562,0.412305882 C16.2323562,1.64365882 14.4063562,5.14683529 11.8330437,6.93724706 C11.7381687,5.98801176 9.71760625,6.25395294 8.73585625,6.03071765 C9.11054375,5.01224706 9.83929375,4.72107059 10.5955437,4.51465882 C10.1204812,4.4506 9.30373125,4.42342353 8.69735625,4.37877647 L8.45054375,6.37883529 Z" id="Fill-28" fill="#FF0217" mask="url(#mask-2)"></path>
                </g>
                <path d="M66.31,25.274 C66.21,25.143 66.106,25.069 66,25 C66.056,25.122 66.149,25.216 66.31,25.274" id="Fill-31" fill="#FF0217"></path>
                <path d="M62.335,27.159 C62.349,27.103 62.344,27.06 62.349,27 C62.233,27.033 62.118,27.077 62,27.113 C62.118,27.124 62.252,27.142 62.335,27.159" id="Fill-33" fill="#FF0217"></path>
                <path d="M73.0465073,20.959 C73.2845073,20.538 73.4605073,20.422 73.6985073,20 C73.5515073,20.143 73.3675073,20.257 73.1915073,20.382 C73.0225073,20.581 72.9425073,20.78 73.0465073,20.959" id="Fill-35" fill="#FF0217"></path>
                <path d="M74.127,23 L74,23.604 C74.102,23.671 74.174,23.686 74.264,23.733 C74.292,23.408 74.262,23.136 74.127,23" id="Fill-37" fill="#FF0217"></path>
                <path d="M50.381,20 L50,20.319 C50.23,20.294 50.329,20.165 50.381,20" id="Fill-39" fill="#FF0217"></path>
                <path d="M57.7580193,27 C58.6917851,26.9004208 57.8695843,25.4649369 59.1907853,25.457223 L58.8033502,25.3632539 C59.7513153,24.7068724 61.4173538,25.0084151 62.543823,24.954418 C62.4167064,25.5666199 63.2267364,25.6991585 63.0948868,26.6486676 C63.8650239,26.4249649 64.6270472,26.2145863 65.0239484,25.2335203 C65.5013117,25.5553997 66.2254705,24.6914446 66.8319788,25.0967742 C66.5763933,24.5224404 67.6954249,23.1535764 66.2193851,23.8562412 C66.339064,23.7776999 66.2640111,23.6465638 66.3816616,23.5652174 C65.4309919,22.7650771 65.0496422,24.1234222 64.2308221,24.1423562 C63.7412881,23.5757363 65.0313861,23.227209 64.5695743,23 C63.5465563,23.5280505 61.3598808,22.3169705 61.427496,24.4509116 C60.6837289,24.601683 60.5809538,24.131136 60.3591759,23.740533 C59.1813192,26.0140252 55.9898818,22.7650771 56.0000241,25.6718093 C56.4300568,25.5568022 57.1305502,25.6185133 57.7614,24.9964937 L57.7580193,27 Z" id="Fill-41" fill="#FF0217"></path>
                <path d="M72.269,21.042 C72.184,21.022 72.071,21.036 72,21 C72.08,21.022 72.178,21.036 72.269,21.042" id="Fill-43" fill="#FF0217"></path>
                <path d="M81.8840401,30.2394532 L81.1989502,30.0577631 C81.3612598,30.359859 81.6167833,30.3497651 81.8840401,30.2394532 M83,29.8551642 L82.6232332,31.8097751 C80.4793125,32.2762573 79.7042679,31.728303 77.8295595,31.8047282 C77.6861534,31.5372399 77.9136476,31.3678067 78.0290243,31.2812875 C76.7109922,31.5084002 74.7391588,31.0981554 73.7796419,31.9957912 C73.360505,31.9806504 72.2595376,31.3591547 72.676067,30.7852446 C72.4720393,30.9575619 72.2386785,31.1255531 72.0046659,31.0628268 C71.9420887,30.359859 72.5294017,30.8616699 72.5430905,30.2863178 C72.3566626,30.2394532 72.2843077,30.1031856 72.2412859,30.3245304 C72.5548237,29.7203386 71.9166667,27.9416498 73.3768012,27.9863514 C73.9419514,29.6273305 72.3638329,28.1774144 72.6975779,29.9871058 C73.1818993,29.9993627 73.1258406,29.2985579 73.1669068,29.0779342 C73.7842048,29.1183097 73.7679086,29.5732561 73.7353163,29.9871058 C73.9719364,29.4247316 74.7476328,30.2062876 75.0742075,29.3540743 C76.2742555,29.2134808 75.0090229,30.7138664 75.7925415,30.6929576 L76.2442706,28.8587524 L77.5473103,29.2048289 C79.4337519,28.5602615 77.2774462,26.0367874 79.4337519,25 C79.150199,25.9567572 80.0151983,27.5645707 81.0190408,27.9474178 C80.418039,28.0144701 79.3085975,29.2091548 78.5335529,28.6655264 C79.6260464,30.1010227 77.0290929,28.8371226 77.5968506,30.4809858 C78.1365789,29.7037557 79.0367778,29.5984908 79.7394676,30.0181085 L79.5087142,30.1868208 C80.2557294,30.3814888 80.8208797,28.4643695 81.8514478,29.1961769 C82.3637985,29.1370556 82.2679772,29.6561702 82.1780225,30.0844398 C82.6108481,29.8090207 82.9980445,29.4499663 83,29.8551642" id="Fill-45" fill="#FF0217"></path>
                <path d="M110,9.00561856 L110.609,9.08861856 C110.371,9.00161856 110.176,8.99061856 110,9.00561856" id="Fill-49" fill="#FF0217"></path>
                <path d="M119,3.593 L119.889,3 C119.538,3.037 119.263,3.273 119,3.593" id="Fill-51" fill="#FF0217"></path>
                <path d="M137,7 C137.136,7.215 137.288,7.41 137.496,7.56 C137.471,7.308 137.286,7.128 137,7" id="Fill-55" fill="#FF0217"></path>
                <path d="M119,3.11 C119.023,3.133 119.036,3.141 119.054,3.158 C119.088,3.105 119.126,3.047 119.164,3 L119,3.11 Z" id="Fill-57" fill="#FF0217"></path>
                <path d="M105.39,4 C105.259,4.082 105.14,4.142 105,4.252 C105.184,4.203 105.296,4.109 105.39,4" id="Fill-59" fill="#FF0217"></path>
                <path d="M106.379,9 C106.239,9.064 106.105,9.144 106,9.253 L106.379,9 Z" id="Fill-61" fill="#FF0217"></path>
                <path d="M91.819,5 L91,5.365 C91.402,5.324 91.643,5.182 91.819,5" id="Fill-63" fill="#FF0217"></path>
                <path d="M105.127,8 C105.079,8.116 105.032,8.23 105,8.346 C105.113,8.266 105.167,8.116 105.127,8" id="Fill-65" fill="#FF0217"></path>
                <path d="M145,10.1098297 C145.217,10.3765908 145.726,10.6955444 145.489,11 C145.904,10.6150811 145.876,9.68214205 145,10.1098297" id="Fill-71" fill="#FF0217"></path>
                <path d="M142.251,24.363 C142.197,24.189 142.113,24.045 142,24 C142.033,24.345 142.124,24.419 142.251,24.363" id="Fill-77" fill="#FF0217"></path>
                <path d="M92.255,28 L92,28.617 C92.213,28.338 92.278,28.146 92.255,28" id="Fill-83" fill="#FF0217"></path>
                <path d="M96.034,28 C96.025,28.042 96.016,28.09 96,28.14 C96.023,28.09 96.023,28.042 96.034,28" id="Fill-87" fill="#FF0217"></path>
                <path d="M97.1187305,4.221 C97.1067305,4.146 97.1037305,4.075 97.0757305,4 C96.9407305,4.091 97.0057305,4.168 97.1187305,4.221" id="Fill-89" fill="#FF0217"></path>
                <path d="M96.005,28 C96.005,28.049 96.009,28.098 96,28.152 C96.005,28.098 96.016,28.047 96.005,28" id="Fill-91" fill="#FF0217"></path>
                <path d="M117.272087,23.551 C117.272087,23.551 117.175087,23.269 117.021087,23 C116.962087,23.152 117.021087,23.329 117.272087,23.551" id="Fill-93" fill="#FF0217"></path>
                <path d="M113.111,22.18 C113.072,22.12 113.05,22.066 113,22 L113.111,22.18 Z" id="Fill-95" fill="#FF0217"></path>
                <path d="M144.718,5.00689952 C144.416,4.98289952 144.191,5.02389952 144,5.09289952 C144.219,5.13489952 144.457,5.12889952 144.718,5.00689952" id="Fill-97" fill="#FF0217"></path>
                <path d="M96.303,28 C96.24,28.172 96.149,28.351 96,28.571 C96.164,28.336 96.251,28.156 96.303,28" id="Fill-99" fill="#FF0217"></path>
                <path d="M123.187,18 C123.122,18.064 123.061,18.124 123,18.179 C123.037,18.21 123.074,18.225 123.111,18.261 L123.187,18 Z" id="Fill-101" fill="#FF0217"></path>
                <path d="M125.848143,18.6112734 C125.776525,18.7436967 125.743369,18.8803918 125.702918,19 C126.454907,18.5165836 127.836207,19.0412933 128,17.8053421 C127.744695,17.836668 126.421751,17.1097635 126.647215,16.3857068 C126.123342,16.6946946 125.348143,15.8282472 125.06565,16.031154 C125.926393,16.7075098 125.159151,17.0741658 124.577586,17.4913706 C124.049735,17.1304102 124.677056,16.4967715 124.222149,16.2675225 L123,16.4042176 L124.064987,16.5679669 L123.741379,17.7562173 C123.780504,17.7156359 123.807692,17.6900056 123.850133,17.6430167 C125.651194,17.0898288 124.002653,19.3837429 125.848143,18.6112734" id="Fill-103" fill="#FF0217"></path>
                <path d="M125.435,19 C125.265,19.105 125.116,19.233 125,19.411 C125.256,19.384 125.356,19.214 125.435,19" id="Fill-105" fill="#FF0217"></path>
                <path d="M133,21.265 C133.14,21.208 133.291,21.13 133.481,21 C133.39,21.065 133.18,21.144 133,21.265" id="Fill-107" fill="#FF0217"></path>
                <path d="M78,19.1778191 C78.0299552,19.6558903 79.0178523,20.6402116 78.9997544,19.3925625 C78.7070672,19.2681863 78.4112598,19.1379799 78.1148282,19 L78,19.1778191 Z" id="Fill-109" fill="#FF0217"></path>
                <path d="M126.489,16 C126.199,16.197 126.07,16.399 126,16.604 C126.188,16.503 126.361,16.335 126.489,16" id="Fill-113" fill="#FF0217"></path>
                <g id="Group-121">
                    <mask id="mask-4" fill="white">
                        <use xlink:href="#path-3"></use>
                    </mask>
                    <g id="Clip-120"></g>
                    <path d="M88.7791128,6.42953333 C88.7682857,6.42153333 88.7547519,6.41753333 88.741218,6.40886667 C88.7561053,6.41353333 88.7696391,6.41353333 88.7831729,6.41353333 L88.7791128,6.42953333 Z M110.727609,15.3082 C110.331744,15.4175333 109.930466,15.5322 109.523098,15.6442 C109.563023,15.6588667 109.599564,15.6588667 109.641519,15.6728667 L108.452571,16.4575333 C109.183398,16.8382 109.664526,17.9095333 108.642045,18.4088667 C108.727985,18.0055333 108.429564,17.5108667 108.784827,17.2755333 C108.100015,16.6902 106.597083,16.1242 106.988887,17.5975333 C108.305053,16.2055333 107.295429,19.4722 108.33009,18.4395333 C107.774526,19.3995333 107.225053,18.9668667 106.700617,19.3962 C107.246707,18.5928667 106.573398,17.5762 105.753925,17.1935333 C105.397308,17.4302 104.431669,17.2042 103.838211,17.5928667 C104.050015,18.4935333 103.533699,19.0088667 104.499338,19.2355333 C104.145429,19.4722 103.596632,19.6588667 102.982195,19.1968667 C103.225805,19.0422 103.65212,18.9302 103.622346,18.6055333 C103.225805,17.7768667 102.761594,17.8135333 102.505805,17.4595333 C102.301444,17.5108667 102.095053,17.5548667 101.894752,17.6042 C101.954301,17.6822 102.005729,17.7848667 102.042947,17.9128667 L101.364226,18.7082 C102.268286,18.2842 101.782421,19.1242 101.770241,19.6515333 C101.794602,18.5975333 101.188286,19.5148667 100.879038,19.5495333 L101.550992,20.6628667 C101.22618,21.2215333 100.404,19.8582 100.573173,20.9615333 C102.000316,21.4042 102.548436,21.2135333 103.838211,20.8815333 L103.315128,20.0175333 C104.770692,19.4048667 104.212421,21.5015333 105.845955,21.4595333 C106.524677,20.6695333 108.302346,21.4048667 108.33618,19.8215333 C108.131143,20.3042 109.352571,21.2295333 109.912195,20.5122 C110.531368,19.0662 112.401744,18.8708667 111.835353,18.2102 C111.329865,18.1928667 110.649789,18.9882 110.243098,18.0455333 L111.223624,17.7448667 L110.58009,16.9562 C110.912346,17.2388667 110.880541,16.4682 110.727609,15.3082 Z M114.79385,14.0928667 C115.431293,16.3262 116.135053,18.3008667 119.111143,17.9095333 L118.877008,18.0642 C120.377233,19.4662 121.801669,16.2102 123.626707,17.7668667 C122.740917,18.6088667 122.788962,18.5322 121.811143,20.4575333 L122.761218,19.8262 C122.497985,21.0422 123.44603,20.4135333 124.143023,20.4708667 L123.52791,21.9175333 C123.109038,21.5015333 122.024301,21.3515333 122.056105,21.6802 C122.293624,21.5208667 120.624226,19.8555333 119.716782,20.2755333 C119.810165,21.2555333 121.72588,20.8582 120.870541,22.4595333 C121.624376,21.7882 121.717759,22.7655333 122.505429,22.4215333 C121.749564,23.0928667 122.318662,23.7575333 121.756331,24.4708667 L123.048135,24.1388667 C123.081293,24.4648667 121.166256,24.8628667 122.224602,26.0675333 C122.742271,25.5542 124.124752,26.1988667 124.149789,25.1442 L124.180917,25.4682 C125.14994,25.6968667 124.607233,23.9748667 125.79618,24.5762 C125.810391,24.0455333 125.583699,23.6788667 125.15806,23.7882 C124.797383,24.0235333 124.742571,24.7495333 124.000917,24.8968667 C123.668662,24.0722 124.895504,25.0002 124.380541,23.6042 C124.124752,22.9095333 122.422872,24.2042 122.964902,22.6362 L123.931895,22.8628667 C123.956256,21.8062 124.656632,21.8662 124.637008,21.0148667 C125.227759,20.6255333 125.78603,21.8155333 126.388962,20.8968667 C126.640015,20.2135333 126.202195,18.9448667 127.200992,19.4975333 C127.981218,21.0602 130.280617,20.7555333 131.142045,20.5322 L131.89588,19.8582 C131.831594,19.2102 130.45588,19.9462 130.939714,19.1048667 L132.115128,18.8508667 L132.024451,19.2568667 C132.414226,19.3462 132.812797,18.9102 133.167383,18.6788667 C132.80197,19.4395333 131.954075,19.1335333 132.122571,20.2342 C132.674752,20.4508667 132.758662,20.8582 133.26618,20.6475333 C133.15588,20.7255333 133.060466,20.8335333 133.074,20.9882 C134.191218,21.4635333 134.153323,19.7575333 134.432797,19.3995333 C135.556105,17.9682 133.300692,18.0708667 133.444827,16.9382 L136.723398,16.3335333 C136.443925,16.6902 136.161744,17.0455333 136.267308,17.4975333 C137.071895,18.0055333 136.285579,18.3515333 137.414977,18.2975333 C137.334451,16.7942 138.836707,17.3608667 139.634526,16.4922 C140.007383,17.1075333 140.08385,17.2315333 139.269113,17.2495333 C139.362496,18.2255333 140.456707,17.8508667 140.845128,17.9395333 C141.071143,17.6968667 141.455504,17.5548667 141.699113,17.3375333 C141.372271,16.8508667 141.511669,16.2402 142.218135,15.8228667 L142.259414,15.6182 C141.101594,15.3515333 139.300917,14.2842 138.574827,15.2842 L138.780541,14.8008667 C137.439338,13.9562 135.863323,16.5548667 135.244827,14.7095333 C135.301669,13.9802 134.975504,14.5415333 134.998511,13.4868667 L134.011895,14.3115333 L134.216932,13.8335333 L132.53806,14.0722 L132.582045,13.8735333 C131.784226,14.8295333 131.158962,15.6088667 130.659564,16.2455333 C130.657534,16.7055333 130.709639,16.8468667 130.443699,17.1855333 C130.177083,17.4135333 129.974075,17.4482 129.793398,17.3882 C129.792045,17.3895333 129.792045,17.3895333 129.792045,17.3935333 L129.792045,17.3882 C129.380617,17.2535333 129.10588,16.5928667 128.598361,16.3242 L130.160165,16.2102 C130.286707,15.4295333 130.154075,14.6182 129.389414,14.0722 C129.702045,14.0422 129.832647,13.4328667 129.445579,13.3428667 C129.402947,13.5462 128.422421,13.8422 128.796632,14.4648667 C127.313323,14.7495333 124.911744,12.6982 122.660391,14.1828667 C124.277684,13.2895333 121.36385,13.1362 123.159789,12.8155333 C121.90588,11.5655333 122.081143,14.0455333 120.802872,13.8508667 C120.693925,13.4015333 121.499188,13.9095333 121.792195,13.0235333 C119.667383,12.5222 118.207759,15.0422 116.15197,14.6628667 L116.064,13.6888667 C115.674902,13.8155333 115.243173,13.9522 114.79385,14.0928667 Z M149.301068,15.4802 C149.420842,15.4015333 149.46415,15.1968667 149.46415,15.1968667 C146.869714,17.5055333 144.734075,18.1748667 143.335353,18.0855333 C143.606707,19.0015333 144.861293,19.7095333 145.456782,20.0888667 L144.928962,21.1315333 L144.599414,20.3115333 L143.682496,21.2602 C143.938962,21.9615333 144.679263,21.8155333 145.173925,22.3542 C145.217233,22.1562 146.801368,20.9382 147.243925,20.2968667 L145.978511,19.5748667 C146.319564,19.8668667 147.999113,19.6262 148.664977,19.3595333 C148.677835,18.8355333 147.530842,18.0295333 147.38603,19.1655333 C147.249338,18.3895333 148.572271,18.3815333 147.73588,17.5495333 C148.727233,16.7222 150.304602,17.4135333 151.036105,17.7975333 L151.15994,19.1015333 C151.962496,19.6088667 151.70197,17.5302 152.656105,18.2842 C151.483398,18.5382 152.854376,19.7135333 151.921895,19.8122 C152.219639,20.3042 151.927985,21.1915333 152.862496,21.0928667 C153.640692,19.3668667 153.847759,22.1748667 154.583323,20.6515333 C155.074602,21.1915333 154.05415,21.6902 155.021143,21.9215333 C156.130241,21.0148667 156.066632,20.3642 156.134977,19.1075333 C155.097609,18.7555333 154.969714,20.7415333 154.12182,20.4362 L155.808812,18.2842 C155.497534,17.9802 155.267459,17.9482 155.074602,18.0348667 C155.413624,17.9095333 155.701218,17.5908667 155.947534,17.1515333 C156.088286,16.9048667 156.217534,16.6935333 156.337308,16.5122 C155.381143,16.5015333 154.531895,16.4708667 154.382346,15.9362 L154.514301,15.3262 C154.175278,14.7668667 153.623774,15.2055333 153.369338,15.6515333 C152.513323,15.7175333 151.657985,16.5675333 151.471218,15.7775333 L151.79603,15.2202 C150.743098,15.3962 150.625353,15.4722 149.301068,15.4802 Z M162.650165,17.6968667 C162.67588,17.8062 162.766556,18.0888667 162.893098,18.4395333 L162.24212,19.0615333 C161.080917,18.7882 160.151143,16.9802 159.106331,18.5348667 C158.617083,18.1442 158.355203,17.3175333 158.104827,16.6375333 C158.344376,16.6882 158.568361,16.7535333 158.755128,16.8582 C161.684526,14.5815333 160.282421,19.2602 162.650165,17.6968667 Z M91.6273083,20.9748667 C91.9643008,19.8848667 93.0936992,19.8355333 93.1627218,18.5762 C93.2344511,18.2535333 92.9969323,18.1302 92.7309925,18.0262 C92.4332481,17.9975333 92.1158797,17.9622 91.7788872,17.9215333 C91.7673835,18.1048667 91.700391,18.2755333 91.5887368,18.4395333 C91.9209925,18.5975333 92.1436241,18.9095333 92.0089624,19.6822 C91.1543008,17.9975333 91.2429474,20.8815333 90.3185865,20.4508667 C90.0249023,21.3382 91.3471579,21.3308667 91.6273083,20.9748667 Z M86.2800902,17.9882 L86.4743008,17.0788667 C86.2936241,17.0455333 86.1095639,17.0102 85.9214436,16.9748667 C85.9836992,17.3862 86.0486617,17.7448667 86.2800902,17.9882 Z M84.6161053,16.7722 C84.6526466,16.7602 84.6655038,16.7495333 84.7006917,16.7415333 C84.5071579,16.7015333 84.3129474,16.6655333 84.1099398,16.6255333 C84.1891128,16.7055333 84.3386617,16.7668667 84.6161053,16.7722 Z M100.558286,17.4015333 C100.466256,17.3895333 100.387759,17.3668667 100.346481,17.3008667 L100.558286,17.4015333 Z M99.8470827,18.6682 C100.667233,18.9448667 100.480466,18.3935333 100.607684,17.8982 C100.319414,17.9615333 100.031143,18.0262 99.7462556,18.0855333 C99.855203,18.2102 99.9093383,18.3862 99.8470827,18.6682 Z M98.819188,14.5015333 C97.3730977,14.3175333 95.9141504,13.9748667 94.5249023,13.8228667 C97.0333985,16.3095333 98.7961805,18.1928667 94.6101654,18.1442 L94.3361053,18.3242 C94.8835489,18.6275333 95.8268571,18.6655333 96.7146767,18.4855333 C97.4326466,17.6042 99.7503158,14.3642 99.7246015,14.0775333 C99.4708421,13.3815333 99.0993383,14.1415333 98.6371579,13.9288667 L98.819188,14.5015333 Z M7.28986466,18.4248667 C7.35618045,18.3042 7.40760902,18.1642 7.44618045,17.9882 C7.40693233,18.1715333 7.45091729,18.2895333 7.28986466,18.4248667 Z M77.5832481,18.7222 C77.491218,18.7882 77.3964812,18.8468667 77.2983609,18.9015333 L77.4465564,18.6735333 C77.2002406,18.5895333 76.9552782,18.5055333 76.7096391,18.4135333 C76.6209925,18.4682 76.5249023,18.5202 76.4064812,18.5495333 C76.4538496,18.5202 76.4910677,18.4295333 76.5140752,18.3355333 C76.4342256,18.3042 76.3557293,18.2695333 76.2779098,18.2355333 C75.691218,19.1215333 74.2309173,19.7688667 73.8093383,20.2895333 C73.2517444,20.6695333 72.5696391,20.8848667 72.1419699,20.8155333 C72.5385113,20.8335333 73.0649774,20.6548667 72.9066316,20.1655333 C72.1020451,19.6548667 71.7102406,18.1855333 70.3209925,19.4482 L71.1357293,19.4295333 L69.3032481,21.3308667 C68.6610677,20.5415333 70.2181353,20.3815333 70.4725714,19.6968667 C69.0474586,20.6342 67.8618947,18.1295333 67.2014436,19.7768667 C67.1080602,18.8008667 66.9517444,17.1715333 66.0165564,17.2682 C66.691218,18.3815333 65.4562556,17.9835333 66.0091128,19.1748667 C65.6863308,19.7342 64.9663308,18.8228667 64.9121955,19.5542 L64.9994887,19.1495333 C63.4031729,17.6042 62.8800902,20.0262 62.1973083,20.8228667 C60.2849774,21.2215333 59.4066316,20.5895333 57.8475338,20.7535333 C57.7859549,20.1002 57.3616692,18.3008667 56.736406,18.3682 C56.4454286,19.2535333 55.0338496,19.6628667 54.8897143,20.7975333 C56.0089624,21.2715333 55.8052782,19.8468667 56.4745263,19.5815333 C57.0321203,20.7702 56.5252782,20.7575333 57.2865564,21.4682 C56.6721203,21.0055333 54.5107669,22.0875333 53.8374586,20.9722 L54.0749774,20.8155333 C53.0010677,20.1388667 52.7960301,17.3335333 51.0061805,19.0308667 L50.1521955,19.7255333 C50.1934737,19.6122 50.1982105,19.4802 50.2205414,19.3782 C48.8224962,19.2602 49.2041504,17.9702 47.6612932,18.9882 C47.780391,18.9095333 47.7052782,18.7848667 47.826406,18.7082 C46.9473835,18.0722 46.0602406,19.3515333 45.3950526,19.6182 C44.9897143,18.6735333 45.4918195,18.6882 45.7428722,18.0035333 C44.1952782,17.6388667 42.5258797,19.2602 41.5649774,20.4135333 L40.5675338,19.8582 C41.1589624,19.4682 41.8816692,18.4708667 41.7016692,17.8995333 C41.1528722,18.0888667 41.2591128,18.5368667 40.4836241,18.3542 C40.6155789,17.7495333 40.9410677,17.1855333 41.3058045,16.4248667 C39.7013684,15.4135333 40.9471579,18.5695333 39.8245263,16.7135333 C39.320391,16.7015333 39.0280602,17.5855333 38.9725714,18.3155333 L38.0597143,17.3595333 C37.9582105,18.2895333 36.8308421,18.3428667 36.0918947,18.4835333 C36.0018947,18.8848667 36.6867068,19.4762 36.9668571,19.1162 C36.9113684,19.8468667 36.1257293,20.1915333 35.6202406,20.1762 C35.4348271,18.2255333 32.3105414,20.4575333 32.9080602,18.1588667 C30.6377594,18.7935333 27.4478346,18.9908667 25.9489624,19.8055333 C25.4549774,19.2662 24.4473835,19.2388667 25.0509925,18.3242 C23.2232481,18.3155333 22.2806165,20.3175333 20.466406,19.7848667 C20.3161805,19.5402 21.2865564,19.7668667 21.2222707,19.1162 C20.0367068,19.8982 19.0649774,18.2895333 17.2250526,18.8122 C17.5343008,18.7768667 17.6249774,18.3735333 17.667609,18.1715333 C17.7000902,18.4948667 16.9137744,18.8422 16.4380602,19.1562 C16.1700902,18.9882 16.794,18.9215333 16.6437744,18.6735333 C13.0897895,17.7255333 10.3823459,20.3782 6.84730827,20.2895333 C7.85693233,20.3155333 8.23858647,19.0235333 8.24873684,18.4948667 L7.26009023,18.4708667 C6.87911278,19.1162 6.13678195,19.1142 5.51557895,19.5975333 C5.43978947,19.3542 5.13730827,19.0928667 5.4458797,18.7882 C3.49159398,17.4802 2.394,21.1475333 -0.000135338346,20.4762 L2.89881203,17.8695333 L2.18219549,16.9615333 L3.45640602,15.7768667 C2.69512782,15.0615333 2.03332331,16.7135333 1.94129323,15.7342 C2.10234586,15.4575333 2.49009023,15.5462 2.50227068,15.0175333 C1.77144361,14.6342 1.71392481,15.3642 1.16445113,15.5548667 C2.61189474,13.5622 5.44993985,13.5928667 6.97790977,13.1048667 C7.21813534,12.9482 6.77219549,13.5855333 6.72956391,13.7882 C7.35279699,13.7222 7.72700752,14.3428667 8.51129323,13.9975333 C8.99851128,13.1562 8.13978947,13.3782 7.7527218,13.2895333 C7.80618045,12.5575333 8.00106767,12.6015333 8.43144361,12.4922 C8.52482707,13.4682 10.7958045,12.8375333 11.3506917,14.0295333 C13.6514436,13.7222 10.9825714,11.5015333 13.229188,11.9255333 L13.8997895,13.0422 C15.2037744,12.1788667 16.8907669,11.4135333 18.3659549,11.6515333 L18.0553534,11.6882 C17.8482857,12.1655333 18.1906917,12.4595333 18.341594,12.7048667 C19.4574586,13.1828667 20.4589624,11.8262 21.1349774,12.9448667 C22.4064812,11.7575333 24.5272331,10.8775333 25.9814436,10.2648667 C26.3739248,11.7382 24.0846767,11.5148667 23.4790376,12.4348667 L24.8026466,12.4295333 C23.9845263,12.4482 23.6617444,13.0088667 23.1711429,13.8468667 C24.3309925,14.1208667 24.7126466,12.8308667 25.8122707,12.4575333 C25.7270075,12.8582 25.8738496,13.1048667 26.3813684,13.1162 L26.5248271,12.1388667 C26.5343008,12.2182 26.5904662,12.2922 26.7474586,12.3542 L28.7037744,11.7575333 C28.2889624,11.3382 28.2686617,10.4868667 27.7631729,10.4762 C27.9438496,11.0455333 27.5148271,11.1588667 27.0093383,11.1442 C27.4525714,10.5055333 26.5160301,10.6055333 26.5261805,10.0775333 C27.5405414,10.1042 28.7870075,9.9722 29.4515188,9.70486667 L29.6673835,10.6055333 C30.6343759,10.8335333 31.6548271,10.3308667 32.3105414,10.5928667 L32.1041504,11.0722 C33.2633233,11.3462 34.4049023,10.7668667 35.4348271,11.6455333 C36.4694887,10.6162 37.7714436,9.75886667 38.6166316,8.6822 C39.0693383,7.5202 41.651594,10.1415333 42.8182105,8.50553333 C42.8967068,8.6302 42.0170075,9.37953333 41.6191128,9.81953333 C42.3946015,10.0002 43.0117444,8.55486667 43.2546767,9.77753333 C41.5142256,9.36686667 43.3480602,10.7535333 42.5637744,11.1015333 C43.379188,11.0788667 44.2385865,10.8582 44.6385113,10.4215333 C43.3196391,10.4302 45.106782,8.7302 43.7716692,9.26286667 C44.8063308,8.2342 46.2185865,7.82286667 47.4515188,8.22153333 C47.4393383,8.74953333 47.5909173,8.9962 48.0510677,9.21353333 L48.4218947,8.4482 C48.9984361,8.58753333 47.3060301,9.3542 48.4672331,9.62753333 C49.6622707,8.31753333 52.0665564,10.3702 52.5896391,7.9482 C53.5004662,8.90486667 50.8559549,8.91753333 52.2289624,10.0888667 C51.4304662,10.9635333 50.328812,9.96153333 50.0655789,11.1715333 C50.8485113,10.8262 50.3511429,12.1935333 50.8559549,12.2055333 L51.7295639,11.4595333 L51.5360301,11.4135333 C53.0010677,10.2722 55.3221203,10.8195333 57.1931729,10.6255333 C58.7773083,9.40686667 59.868812,7.64753333 61.7689624,7.7802 C61.207985,8.49486667 63.3476842,8.4682 62.1512932,9.77753333 C63.0309925,10.4088667 63.899188,9.66153333 63.9161053,9.13353333 C63.1426466,8.9522 63.6440752,8.96353333 62.9924211,8.70486667 C63.4322707,8.0642 64.4466316,8.09286667 64.8634737,8.51086667 C64.6699398,8.46486667 64.7436992,8.58753333 64.7010677,8.7882 C65.6247519,9.2182 65.1436241,8.15153333 65.8115188,7.8842 C66.0233233,8.7802 67.2860301,8.1242 67.8950526,8.58753333 L68.7794887,7.30953333 C68.2936241,8.14953333 69.6267068,7.6162 69.7661053,8.38953333 C70.4001654,7.79753333 70.9320451,6.75753333 71.8976842,6.98353333 C71.4984361,7.42153333 72.7780602,7.6162 72.7949774,8.4682 C74.448812,9.2842 75.5335489,6.1442 77.0994135,7.3642 C77.0506917,7.5642 76.7346767,8.1242 77.1921203,8.3382 C77.552797,8.1002 78.1841504,8.2002 78.5698647,8.10753333 L78.5576842,8.13153333 C78.5651278,8.1242 78.5698647,8.1162 78.577985,8.10753333 C78.766782,8.06153333 78.885203,7.9562 78.8899398,7.74953333 C79.550391,6.9162 79.8907669,6.06153333 81.190015,5.3542 C81.0952782,4.3782 79.9976842,4.75753333 79.5226466,5.07086667 L79.1125714,6.03486667 C78.7200902,4.5622 77.9405414,6.28953333 77.6421203,5.79353333 C78.4209925,4.06753333 80.6662556,4.4922 82.0128722,3.4302 C81.1913684,2.07086667 79.4055789,1.8582 77.8471579,2.02353333 L78.5333233,2.60886667 L77.7179098,2.62753333 L78.507609,3.66553333 C77.7348271,3.48353333 77.0669323,3.74953333 76.3692632,3.6902 C77.1860301,3.67153333 77.5047519,5.01753333 77.0425714,4.8042 C76.1317444,3.84686667 76.0931729,5.42953333 75.3968571,5.3702 C75.7846015,5.45953333 76.2887368,5.4762 75.9639248,6.03486667 C74.5909173,4.86286667 74.2200902,5.62553333 72.971594,4.37353333 C73.1265564,6.00153333 71.4118195,4.53686667 71.2243759,5.86953333 L71.8043008,6.00553333 L70.5754286,6.98886667 C69.4412932,5.66286667 71.5789624,5.63753333 69.8533985,4.7002 C68.2618195,4.53686667 68.3024211,6.24553333 67.051218,6.3722 C67.4633233,5.40886667 68.4560301,4.58153333 69.4663308,4.60886667 L68.8546015,4.1442 C69.1780602,3.58553333 70.5754286,3.7022 71.2724211,3.7602 C70.1206917,4.86686667 71.8117444,4.1002 72.3355038,4.96553333 C72.4322707,4.0322 71.6926466,4.17886667 72.5655789,3.4302 C71.7474586,3.4482 71.6276842,3.5262 70.5869323,3.17486667 C72.8369323,3.5982 72.6102406,-0.0618 74.574,0.7222 C73.6685865,1.1442 74.8893383,2.06753333 74.9982857,2.5202 C75.4246015,2.40686667 76.2887368,2.18553333 76.644,1.9522 L76.3218947,0.605533333 C77.4661805,0.0235333333 77.8640752,2.8762 79.1843008,1.48686667 C79.3555038,0.6802 78.0230977,1.21353333 78.2606165,1.0582 C80.0673835,0.211533333 80.7176842,2.38153333 82.3221203,3.3962 C82.412797,2.99086667 82.3945263,2.13886667 82.9555038,1.42486667 C82.7788872,2.2342 83.1943759,2.64753333 82.5630226,3.2402 C83.0996391,3.58153333 83.7350526,2.9882 84.2080602,2.67286667 C83.0915188,2.19886667 84.6648271,1.51086667 84.8705414,1.0262 C85.4491128,1.1642 84.6946015,1.83353333 84.3386617,2.06753333 C84.8028722,2.2842 85.3543759,3.4762 85.6182857,2.26486667 C85.6365564,3.1162 84.320391,4.50553333 83.4596391,4.72553333 L84.0395639,4.86286667 C83.6396391,5.29753333 83.565203,5.17486667 82.9893383,5.0422 C83.5530226,5.7022 83.4975338,6.4302 83.3655789,7.03753333 C83.2918195,6.91286667 83.4075338,6.83553333 83.3364812,6.71353333 C82.8722707,6.49753333 82.5170075,6.7302 82.6246015,7.18286667 C82.2070827,8.3262 83.2674586,7.8982 83.5821203,8.4682 C83.8196391,8.39353333 84.0571579,8.31553333 84.2899398,8.23886667 L86.6996391,4.56553333 C87.7295639,4.13886667 88.1924211,5.01753333 88.9658797,5.5722 L89.1776842,4.58953333 C90.0736241,4.6902 90.9194887,5.00153333 90.3449774,6.24553333 C90.3131729,5.91753333 90.1947519,5.9962 89.9998647,5.9482 C89.9741504,6.08153333 89.9294887,6.1762 89.8726466,6.25353333 C89.8543759,6.31153333 89.8435489,6.3682 89.8286617,6.42486667 C90.7882105,6.10753333 91.3870827,5.90153333 91.4418947,5.8642 C89.8130977,7.28953333 91.3606917,7.64753333 91.087985,9.38953333 L92.7336992,8.82153333 C91.7362556,8.26953333 92.7154286,7.9702 93.0693383,7.7342 C93.166782,8.71353333 94.3943008,7.72553333 94.9715188,7.86286667 L94.9295639,8.0642 C95.4634737,8.4042 96.400015,8.3082 97.0665564,8.0422 C97.0361053,7.71353333 97.8907669,6.11286667 98.3015188,5.14753333 C97.1585865,4.7802 97.8366316,4.3882 97.7452782,3.7802 C97.8636992,3.83553333 98.0761805,3.84686667 98.101218,3.7222 C98.2643008,3.44353333 97.8785865,3.35153333 97.846782,3.0262 C96.6314436,3.48353333 95.3809173,3.6122 94.8849023,4.9802 C95.2584361,5.5982 95.5209925,4.3882 95.939188,4.8022 C95.3362556,5.7222 94.5600902,5.5402 93.5504662,5.51486667 L93.2195639,4.69353333 L92.2031729,5.13886667 C92.6274586,4.70486667 92.3723459,3.84686667 93.4381353,3.6822 C93.3021203,2.90953333 92.3811429,3.8582 91.7281353,3.5982 L91.3945263,4.6882 C91.5230977,4.08153333 90.1257293,3.96353333 91.1184361,3.1362 L92.7336992,2.24553333 L92.2843759,1.50153333 L93.6499398,1.2922 L93.3278346,1.85553333 C95.5209925,1.10153333 93.9740752,4.02353333 96.1821203,2.73686667 C96.8736992,1.41753333 97.6167068,1.27553333 98.9694135,1.59753333 C97.9909173,1.8922 98.8692632,2.5262 98.5004662,3.28953333 C99.4992632,3.84086667 99.8362556,2.75353333 100.354602,2.23886667 C100.609038,2.9362 100.789714,3.50553333 99.8978346,3.4042 C99.7861805,4.86286667 101.071218,3.15153333 101.153098,4.65353333 C104.108211,4.60886667 103.521519,-0.1978 106.97603,1.67886667 L106.846782,2.2842 C109.040617,1.5302 110.30603,2.25353333 112.338135,1.77686667 L113.937158,3.31753333 C113.579865,3.55486667 112.618286,4.70553333 113.066932,5.4482 C112.288737,3.8902 111.463173,4.43486667 110.624752,3.5982 C110.538812,4.00353333 110.880541,4.29686667 111.028737,4.5462 C110.523248,4.5322 110.269489,3.83353333 109.600917,4.1042 C109.633398,4.42486667 110.362195,4.8122 109.812722,5.00153333 L108.903925,4.0422 C107.68791,4.5002 108.305053,6.3382 106.876556,5.8982 C107.14182,5.0422 107.684526,3.8042 108.237383,3.5982 C107.585053,3.41353333 109.107609,3.08153333 108.51212,2.56953333 C107.571519,3.83753333 107.118135,2.83353333 105.867609,3.62753333 C106.014451,3.4502 106.053023,3.2022 106.360917,3.1242 L104.546707,2.58953333 C104.995353,3.33086667 103.047835,3.4042 103.216331,4.50553333 C105.150316,4.96153333 104.581895,4.29686667 106.785203,4.92153333 C106.161293,5.17153333 105.357383,6.2922 104.980466,7.3242 C104.961519,7.2802 104.929714,7.24553333 104.861368,7.22553333 C104.525053,8.31553333 104.868135,8.60886667 104.861368,10.5148667 C105.867609,9.15886667 106.539564,10.2742 107.726481,9.49486667 C107.949113,8.45086667 107.037609,8.1642 106.448211,8.43286667 L107.493023,7.74153333 L107.287308,8.22153333 L109.93994,8.5722 C109.437835,8.62753333 109.266632,9.23286667 109.004752,9.68886667 C109.346481,9.7302 109.685504,10.0055333 110.04618,10.3082 C109.970391,9.31153333 110.018436,8.60886667 110.352045,8.62753333 C112.058662,8.8642 113.007383,9.75886667 113.637383,10.8968667 C113.703023,10.8735333 113.776782,10.8508667 113.836331,10.8262 C113.55009,9.80553333 115.048286,8.99086667 115.576782,7.9482 C115.551068,9.00353333 116.456481,8.58153333 116.948436,9.12086667 C117.210316,7.90953333 116.860466,6.23753333 116.261594,5.2482 C115.107835,6.3542 115.615353,6.3642 115.06994,7.9362 L113.218511,8.98353333 L113.632647,8.01753333 C112.708962,7.59086667 111.821143,8.86686667 111.888812,7.60953333 C112.377383,6.7722 113.183323,7.2802 113.667835,6.43953333 L113.056782,5.9802 C114.134752,4.74486667 113.608962,7.16953333 114.914977,6.3082 C114.434526,5.2402 115.032722,6.23153333 115.592346,5.51486667 C115.143023,4.7702 113.293624,5.81953333 113.686105,4.00353333 C114.364827,3.2102 115.96994,6.13153333 116.868586,4.3262 L116.824602,4.5322 C118.149564,4.76686667 118.615128,3.7302 119.111143,3.07753333 C119.674827,3.66553333 120.453699,2.83753333 121.064752,2.7722 L121.049865,3.30086667 L121.91197,3.07886667 C121.501218,4.0422 120.901669,3.05353333 120.160692,3.19353333 L120.253398,4.17486667 C119.399414,3.0102 118.829639,4.7802 118.167835,5.6262 C119.131444,4.77686667 120.888812,5.86686667 121.115504,3.9482 L121.711669,4.93953333 L121.996556,4.58153333 C122.441143,5.32553333 121.987083,6.4922 121.126331,6.71353333 C120.976782,6.4662 120.901669,6.34286667 120.947008,6.13886667 C120.547083,6.5762 120.180316,7.3382 119.212647,7.11286667 L119.728962,6.59286667 C118.524451,6.5222 117.429564,6.90153333 117.016782,7.8662 C118.75588,8.27553333 120.46588,8.3622 122.098737,8.31753333 C122.580541,6.1002 123.151669,4.85553333 123.397308,2.79353333 C124.492872,2.41353333 125.980241,2.12953333 126.931669,2.88486667 L126.844376,3.28953333 C127.308586,3.50153333 127.736256,3.38953333 128.092872,3.1562 C128.583474,3.69686667 127.757233,4.24553333 128.098962,4.5382 L129.668211,3.84686667 C129.571444,4.7802 128.251218,4.78486667 127.623925,4.85086667 C127.742346,4.7722 127.981218,4.6162 127.904752,4.4922 C127.175278,4.10753333 125.816481,5.69686667 125.497759,4.3462 C125.142496,4.58153333 126.219789,3.35153333 125.016632,3.2802 C124.210692,2.7722 123.948135,3.98353333 123.864226,4.3882 C123.851368,4.91753333 125.128286,5.11286667 124.685729,5.74953333 C125.312346,5.6822 125.562045,5.00153333 126.363925,5.51086667 C125.742722,5.57486667 124.898211,6.64753333 124.567308,5.8262 C123.339113,6.8122 123.515053,9.2922 124.094301,9.42953333 C123.956256,8.65153333 126.335504,8.47086667 124.724301,7.45753333 C125.448361,6.45753333 126.770617,6.45086667 127.717308,5.8262 L127.674677,6.0262 L128.85009,5.77686667 C128.684301,6.05353333 128.329038,6.28953333 128.317534,6.81553333 L129.945654,5.39953333 C129.029414,6.35153333 130.514075,6.0602 130.930917,6.4802 C131.105504,5.67153333 131.741594,5.07886667 131.131218,4.6162 C130.445053,4.02953333 130.73197,5.05353333 130.10806,5.1162 L130.991143,3.84086667 L131.066932,3.96553333 L131.598812,2.92153333 C132.80197,2.9962 131.073023,5.3462 132.614526,4.3262 L132.414226,2.90486667 C134.198662,3.1142 136.491293,4.71353333 137.75197,4.0582 C137.40415,4.86686667 137.250541,6.1682 137.728962,6.9382 C137.184902,6.69353333 136.092045,6.74486667 135.312496,6.87753333 C135.162271,6.62753333 136.286932,5.19686667 137.13415,5.50353333 C136.723398,3.17486667 135.003248,6.90953333 134.903774,4.54953333 C132.744451,3.72553333 133.293248,6.82286667 131.460767,5.43753333 C131.435053,6.4922 130.939714,5.9522 130.843624,6.88153333 C131.385654,8.60153333 133.293248,6.82286667 134.482195,7.42486667 C134.365805,7.50153333 134.131669,7.65886667 134.085654,7.8582 C134.935579,8.1682 135.286782,7.93353333 135.880917,7.54153333 L135.805805,7.41753333 C136.843173,6.3882 136.447985,8.2042 137.058361,8.6682 C137.295203,8.51086667 138.144451,8.81553333 138.007759,8.0422 L139.113474,9.04353333 L139.060015,7.8662 C139.683925,7.79753333 139.820617,8.57486667 140.385654,7.8582 L140.412045,6.80553333 L138.863098,6.43953333 C139.64806,6.09486667 139.081669,5.4302 139.944451,5.2102 C138.980842,6.3622 140.62588,5.7942 140.721293,6.7722 L141.35603,6.17886667 L141.193624,6.45953333 C141.691669,7.00153333 141.786406,6.06753333 142.367684,6.20553333 C141.682195,5.6182 141.232872,4.87753333 140.35994,5.6262 C140.995353,5.03486667 142.256707,4.3782 142.565955,4.34286667 C143.23385,3.90153333 143.70009,4.70486667 144.324677,4.82286667 C143.126256,5.24553333 144.744902,8.01753333 142.34197,7.2602 C142.386632,7.0582 142.581519,7.1042 142.656632,7.2282 C142.336556,5.88153333 141.215955,7.31153333 140.695579,7.8262 C140.829564,8.60153333 140.284827,8.79353333 141.208511,9.22153333 C140.905353,8.72553333 141.98603,7.49486667 142.865053,8.12953333 L142.71009,9.7882 L143.989714,9.98353333 L143.86994,10.0615333 C144.351068,11.1295333 145.234827,9.85553333 146.115203,10.4835333 C146.751293,9.8922 149.191444,10.3622 148.141895,8.62753333 C148.932271,9.66553333 149.626556,8.34286667 150.488662,8.12086667 L149.413398,7.44353333 C150.684902,6.25686667 150.318812,7.02353333 151.336556,5.1362 C151.438737,5.58953333 151.666105,5.96153333 151.459038,6.43953333 C153.167008,6.5262 155.606481,6.9962 156.608662,5.63886667 C157.812496,5.70953333 158.001293,7.66286667 159.690992,6.89686667 C160.046932,6.66286667 159.413549,5.3462 160.53212,5.82286667 C160.607233,5.9462 159.455504,7.0522 160.700617,6.92153333 C161.587759,5.64553333 162.784827,7.6262 163.938586,6.5202 C164.547609,6.9802 165.605278,6.80553333 165.384677,7.81553333 C164.419714,7.58553333 163.053474,7.79553333 162.845729,8.2802 C162.979038,7.67153333 162.159564,7.6902 162.87009,7.22153333 C161.41182,6.45753333 161.924075,7.84686667 160.614677,7.32553333 C160.524677,7.7302 161.287985,8.4422 161.568135,8.08153333 C161.574226,9.45953333 158.98791,8.7482 160.151143,10.4008667 C161.549865,10.5202 161.964677,7.64553333 163.176632,9.0962 C162.690767,9.9362 161.931519,9.22553333 161.313699,10.6735333 L162.309789,11.2282 L163.032496,10.2315333 L162.989865,10.4348667 C164.749263,11.6968667 164.617308,9.01486667 166.190617,8.3242 C165.279113,7.36686667 166.401744,5.93353333 165.715579,5.3462 C166.768511,5.17153333 167.541293,5.3542 167.54806,6.73353333 C165.578887,7.8582 167.436406,8.19286667 165.616105,9.56753333 C165.915203,10.0615333 165.182346,11.5855333 166.267759,11.7382 C167.489865,10.7535333 165.901669,10.5895333 167.121068,10.1335333 C167.192797,10.2568667 167.26791,10.3815333 167.225278,10.5842 C167.785579,9.86686667 167.879639,10.8422 168.557684,10.0502 L168.396632,10.3262 C169.233699,11.1642 169.312195,9.3782 170.032195,10.2895333 C169.743925,9.2662 170.515353,9.4502 170.96197,8.8122 C170.232496,8.42486667 169.837308,6.9562 168.396632,7.03753333 C168.222722,7.84686667 168.328286,8.29686667 167.736857,8.6882 L168.672722,8.58953333 C168.471068,8.7222 168.316782,8.9302 168.132045,9.09286667 L167.232722,8.67353333 C168.372271,8.09486667 167.849865,7.22953333 168.334376,6.3882 C169.377158,6.74153333 169.195128,6.16553333 169.850842,6.42953333 C169.785203,7.6162 171.862647,8.45753333 173.063774,9.22153333 C172.877684,9.17486667 172.636782,9.20553333 172.50618,9.17486667 C171.633925,9.92553333 173.107083,10.1655333 173.138887,10.4922 L173.774977,9.8982 C173.655203,9.9802 173.49009,10.2568667 173.760767,10.4248667 C174.621519,10.2042 174.57212,9.0262 175.431519,8.8042 C175.495805,9.45753333 174.769038,10.4508667 175.303624,10.7935333 C175.487684,11.3642 176.074376,12.8815333 177.216632,12.3048667 C177.297835,12.0535333 177.593549,11.9128667 177.936632,11.8055333 C177.888586,11.8408667 177.829038,11.8668667 177.807383,11.9128667 L178.565955,12.6255333 C177.919714,13.7415333 177.259263,12.1002 176.609639,13.2202 L176.55415,14.2802 C176.048662,14.2842 175.362496,14.7422 175.047158,15.2922 C175.817233,15.4722 175.979639,15.1935333 176.841068,14.9735333 C176.962195,15.6442 176.355203,16.1415333 176.26791,16.2135333 L176.396481,15.6095333 C175.368586,14.7315333 174.859714,16.6262 173.580767,16.4295333 C173.387233,16.3862 173.505654,16.3082 173.548286,16.1062 C172.512947,17.1335333 171.496556,15.7255333 170.489639,17.0815333 L170.817835,16.5222 C170.132346,16.9735333 168.792496,18.0175333 167.453323,19.0262 L167.442496,19.4395333 C167.591368,19.6882 167.088586,19.6735333 166.818586,19.5055333 L166.81994,19.5002 C166.148662,20.0035333 165.503774,20.4682 164.975955,20.8155333 C165.144451,21.0695333 165.360316,21.2842 165.607985,21.3428667 C165.818436,20.8582 167.048662,21.2555333 166.880165,20.1562 C167.448586,20.8195333 168.364827,19.8668667 168.782346,20.2842 C168.021744,19.5762 169.312195,19.2455333 169.445504,18.6388667 C169.700617,19.3335333 170.572872,18.5855333 170.472722,19.5202 C170.622947,19.7628667 170.099188,18.8995333 169.775729,19.4595333 C168.979263,20.3308667 171.234677,20.2255333 170.24197,21.0535333 C171.504677,20.3975333 173.167985,20.6822 174.470617,19.8215333 L173.741143,19.4395333 C174.320391,19.5762 175.690015,19.3682 175.792872,19.8195333 C175.362496,19.9288667 174.859714,19.9175333 174.309564,20.1048667 C174.283173,21.1588667 175.63182,20.0982 175.692722,20.7495333 L177.291744,19.0035333 L176.591368,18.9448667 C177.031895,18.3042 178.495579,19.0775333 179.580316,19.2255333 C178.958436,20.6695333 177.944075,19.2628667 176.802496,19.8422 C175.973549,20.3895333 177.314752,21.2355333 176.529789,21.5815333 C176.733474,21.9175333 177.245729,21.8775333 177.498135,21.5148667 L177.807383,21.7768667 C177.107684,23.0888667 175.538436,22.7955333 174.493624,23.9255333 C174.584977,23.7848667 174.665504,23.6362 174.694602,23.4835333 C173.890015,22.9748667 173.073248,22.9962 172.288962,23.3428667 C172.703774,23.7575333 172.868211,23.4762 173.105053,23.3242 C173.134827,23.6475333 172.394526,23.7882 172.114376,24.1475333 C172.84385,24.5302 172.250391,24.9215333 172.711895,25.1388667 C172.236857,25.4508667 171.85182,25.3595333 171.272571,25.2215333 C170.972797,24.7255333 171.521594,24.5382 171.460015,23.8902 C170.86385,24.2802 170.591143,22.7255333 169.718887,23.4762 C170.879414,23.7495333 169.413023,24.8902 169.013098,25.3262 L169.207985,25.3722 C168.839865,26.1335333 168.527233,26.1655333 168.272797,25.4682 C168.748511,25.1562 169.207985,25.3722 169.072647,24.5975333 C168.758662,24.6302 168.44603,24.6628667 168.090767,24.8968667 L168.413549,24.3375333 L166.854451,24.5002 C166.607459,25.1828667 166.195353,26.1475333 165.978812,27.1562 C165.605278,26.5368667 165.084226,27.0522 164.728962,27.2895333 L164.894075,27.0055333 C164.206556,26.4215333 162.67588,26.9095333 162.546632,27.5148667 C162.055353,26.9748667 166.020767,23.6655333 162.546632,24.2255333 C161.226406,24.2315333 161.724451,26.1562 160.970617,26.8228667 C160.970617,26.8228667 161.013248,26.6255333 160.938135,26.5002 C160.360241,26.3595333 160.302722,27.0928667 159.827684,27.4042 C160.17415,27.6968667 160.676256,27.7095333 160.837985,27.4302 C160.664075,28.2375333 159.63415,27.3595333 159.191594,27.9962 C159.766105,26.7515333 158.074376,27.5208667 158.520992,26.8815333 C157.371293,26.0815333 156.142421,27.0662 155.538812,27.9835333 C154.758586,26.4215333 154.171218,28.1915333 152.905128,27.4682 C153.100015,27.5148667 153.452571,27.2802 153.725278,27.4482 C154.446632,26.4575333 152.41385,26.9288667 153.523624,26.0235333 C153.286782,26.1788667 153.507383,26.5495333 153.750992,26.3935333 C154.176632,26.2822 154.57791,25.8468667 154.470992,25.3962 L153.439038,24.5202 L153.799038,24.2802 L152.23385,23.0675333 C152.191218,23.2662 152.33806,23.5148667 152.41385,23.6388667 C150.597609,23.1048667 148.521519,23.7802 146.931293,23.6182 C146.632195,26.4135333 143.015278,24.8155333 141.729564,26.5322 C142.074,25.7302 142.262797,24.3155333 142.049639,23.7342 C142.336556,23.6162 142.923248,22.4868667 143.572872,22.7222 C143.676406,23.1715333 144.479639,23.6788667 143.962647,24.1928667 C145.759263,23.8735333 143.719714,22.9668667 144.250241,21.9268667 C142.259414,22.1988667 141.09212,23.8355333 139.835504,24.4935333 L139.803699,24.1642 L138.854977,24.7882 C139.630466,24.9735333 139.591895,26.5575333 138.593098,26.0035333 L138.714226,25.9255333 C138.144451,25.2602 136.958211,26.0422 136.068361,25.9395333 L135.464752,26.8555333 C134.572872,26.7515333 134.534301,25.0455333 134.244677,24.0248667 C132.847308,23.9048667 132.040015,25.3028667 131.047308,26.1335333 C130.598662,25.3895333 128.504977,25.2135333 129.614075,24.3115333 C128.353398,24.9668667 128.607835,28.9522 126.445805,26.7448667 L127.006782,26.0262 C124.939489,26.1762 121.99182,27.6042 121.039038,26.8482 C121.801669,24.2715333 118.456782,24.2255333 118.089338,21.6982 C118.192195,22.2755333 117.415353,22.4682 117.302346,22.7768667 C117.13182,22.4802 116.848286,22.1928667 116.547835,22.7135333 C117.354451,23.2215333 115.981444,25.3375333 117.522271,24.3175333 C116.742722,26.0502 115.737835,27.4042 114.029188,27.3175333 L114.054902,26.2628667 L115.406932,26.5842 C115.270241,25.8055333 115.96588,25.8642 116.250767,25.5055333 C113.73618,24.9128667 116.580316,23.0375333 114.009564,23.1748667 C113.761218,23.8582 113.922271,23.5762 113.253699,23.8468667 C113.568361,23.8122 113.624526,23.0855333 113.118361,23.0722 L112.63182,23.9128667 C111.734526,22.1562 114.117835,22.7688667 113.35182,21.5335333 C114.344526,20.7055333 116.064,20.2628667 115.743925,18.9175333 C114.122571,18.4295333 114.285654,21.4375333 112.590541,20.8262 L112.409865,20.2535333 C111.813699,20.6442 111.717609,21.5722 111.390767,22.1315333 C111.361669,21.8062 111.21009,21.5622 110.827083,21.4682 C109.820165,22.8228667 109.152271,23.0888667 108.22385,24.5675333 C110.695128,23.4575333 110.336481,25.5975333 112.887609,24.6088667 C112.487684,25.0455333 110.691744,25.3668667 110.581444,26.8228667 L110.605128,25.7668667 C109.77618,26.3155333 108.947233,26.8582 107.905128,26.5108667 L108.541218,25.9175333 C107.16009,26.6515333 106.24588,24.3155333 105.156406,26.0722 C105.540767,26.1655333 105.853398,26.1335333 106.090917,25.9735333 C105.380391,26.4435333 104.488511,26.3382 103.716406,26.1588667 L102.11806,27.9015333 C102.131594,27.3782 101.119263,27.3462 101.607835,26.5108667 C100.456782,25.7082 99.9147519,27.2802 99.2495639,27.5415333 C98.0714436,26.4215333 100.270692,27.0422 100.385729,25.5855333 C98.7623459,25.0962 97.0415188,25.5382 96.1259549,26.4868667 C96.4568571,26.7002 96.6179098,26.8815333 96.6009925,27.1388667 C96.551594,26.8055333 95.8979098,26.8922 95.5331729,26.8815333 L95.2821203,27.5675333 C94.6751278,27.1042 94.760391,26.7002 95.2773835,26.1828667 C94.6961053,26.0502 94.0045263,27.3682 93.4063308,26.3795333 C94.3976842,25.5542 95.6610677,26.2742 96.1773835,25.7602 C94.1060301,26.4362 94.0924962,23.6735333 91.4662556,24.5415333 C91.4337744,24.2135333 91.8790376,23.5762 91.3728722,23.5675333 C90.2008421,23.8195333 91.0663308,24.9802 90.7002406,25.7415333 C91.6029474,25.3155333 92.0224962,25.7335333 92.5462556,26.5982 L92.3053534,27.1562 C92.2694887,26.8668667 91.7024211,26.8508667 91.5352782,26.5722 L91.3897895,27.7055333 C91.456782,26.4508667 90.550015,25.4948667 89.8374586,25.9635333 C90.5581353,26.8735333 90.3632481,26.8262 90.5594887,28.2555333 C89.5573083,29.6095333 89.4287368,26.9255333 88.3054286,28.3595333 C88.3893383,27.9562 89.3705414,27.6548667 88.5226466,27.3462 C87.821594,27.2922 87.9149774,28.2695333 87.4446767,28.5815333 C87.9745263,27.5368667 87.8385113,26.7602 88.4123459,25.5202 C89.658812,25.3882 88.9151278,25.5335333 90.1331729,25.0775333 L89.1025714,24.1935333 C90.1582105,24.0235333 89.8699398,22.9975333 89.9572331,22.5975333 C88.1538496,21.5335333 88.5984361,24.1848667 87.4379098,23.9102 C86.8789624,24.6275333 88.5246767,24.0615333 87.6497143,24.8122 C86.5649774,24.6588667 87.4027218,25.4948667 86.1853534,25.9482 L86.3890376,25.4682 C86.0168571,24.8468667 85.6487368,25.6122 85.2183609,25.7175333 C84.7446767,26.0348667 85.7543008,29.3515333 83.806782,29.4215333 C83.9021955,29.1295333 83.9373835,28.9448667 83.9373835,28.8228667 L85.8375338,20.0422 C83.8643008,20.0642 81.5899398,19.8195333 79.3047519,19.2315333 C78.766782,17.5148667 80.9355789,17.8155333 80.7961805,17.0422 L81.8382857,17.3935333 C81.7800902,18.1215333 79.6546015,17.6182 80.5958797,18.9048667 C82.4364812,18.3815333 83.2715188,19.2182 85.0173835,17.7175333 C84.4753534,15.9975333 82.717985,18.0235333 81.5824962,16.6935333 C82.0588872,16.8062 82.4615188,16.6162 82.8526466,16.3702 C81.7861805,16.1515333 80.6446015,15.9128667 79.4312932,15.6475333 L79.1585865,16.0642 C79.9760301,16.2568667 80.5424211,16.4042 80.6155038,16.4662 C79.5307669,16.3155333 78.6158797,17.2682 78.5441504,18.5262 L78.7370075,18.5722 L78.345203,18.9635333 C78.0907669,18.8848667 77.8363308,18.8062 77.5832481,18.7222 Z" id="Fill-119" fill="#FF0217" mask="url(#mask-4)"></path>
                </g>
                <path d="M23,5 L18,5.942 C19.4386469,5.695 20.7668206,5.572 23,5" id="Fill-132" fill="#FF0217"></path>
                <path d="M144.596114,10 C145.977838,9.47353803 146.591938,8.51055373 148,8.26594082 C146.148707,7.14083602 145.554521,10.0223417 144,8.86973942 L144.596114,10 Z" id="Fill-134" fill="#FF0217"></path>
                <path d="M144.682178,5 C144.858142,6.05034325 143.861672,6.22997712 144.016382,7 C144.732594,6.74370709 144.349527,6 145,6.09038902 L144.682178,5 Z" id="Fill-136" fill="#FF0217"></path>
                <polygon id="Fill-140" fill="#FF0217" points="138.779425 5.996 139 5.581 138 5"></polygon>
                <path d="M139.238,5 L139,5.423 L139.238,5 Z" id="Fill-142" fill="#FF0217"></path>
                <path d="M145.118236,21.7138901 L145.985236,21.1268901 C145.813236,21.2408901 144.627236,20.4848901 145.118236,21.7138901" id="Fill-146" fill="#FF0217"></path>
                <polygon id="Fill-148" fill="#FF0217" points="133.910267 5 133 5.705 133.092321 5.886 134 5.182"></polygon>
                <path d="M140.79667,25 C141.349433,25.8661756 139.200208,25.2344997 140.337111,26 C141.349433,25.8661756 140.938783,25.4143646 140.79667,25" id="Fill-150" fill="#FF0217"></path>
                <path d="M132.437,18 C132.295,18 132.145,18.05 132,18.207 C132.173,18.147 132.317,18.073 132.437,18" id="Fill-152" fill="#FF0217"></path>
                <path d="M132,18.2749353 C132.371961,18.2749353 132.744733,18.8149353 133,18.4069353 C132.535656,17.7679353 132.367099,18.0079353 132,18.2749353" id="Fill-154" fill="#FF0217"></path>
                <path d="M129.022699,18.6734234 L129.333083,18.7288948 C129.016,19.1155308 129.166354,19.0583952 129.449198,18.7477551 C129.777446,18.7211288 129.759582,18.4737262 129.798287,18.3045383 C129.863788,18.2096821 129.929289,18.1076146 130,18 C129.898772,18.100958 129.807964,18.1991425 129.730554,18.2834591 C129.221434,18.2768025 128.91105,18.3150778 129.022699,18.6734234" id="Fill-156" fill="#FF0217"></path>
                <path d="M115,2.07512131 C116.163558,2.32843475 116.464466,2.45099021 116.400958,2.97932968 C117.505544,3.14772281 117.333921,2.23820692 118,2.02638863 C116.750252,2.12819651 116.495464,1.8850156 115,2.07512131" id="Fill-158" fill="#FF0217"></path>
                <path d="M118,2.09844181 C118.185,2.07644181 118.362,2.05244181 118.577,2.01044181 C118.336,1.97844181 118.158,2.02344181 118,2.09844181" id="Fill-160" fill="#FF0217"></path>
                <polygon id="Fill-162" fill="#FF0217" points="132.957 27 132 28 132.352 27.8610614"></polygon>
                <path d="M114.03952,2.24378058 C114.321248,2.31378058 114.773989,2.26478058 114.996406,2.64078058 C115.077464,1.54078058 113.757793,2.17578058 114.03952,2.24378058" id="Fill-164" fill="#FF0217"></path>
                <path d="M118,16.5462094 C118.101167,17.124857 118.739948,16.7787018 119,17 C118.627108,16.8785873 118.322957,15.1400614 118,16.5462094" id="Fill-166" fill="#FF0217"></path>
                <path d="M111,5.09175765 C111.285,5.1288504 111.724,5.51885411 111.534,6 C111.949,5.71491576 112.51,4.69115601 111,5.09175765" id="Fill-168" fill="#FF0217"></path>
                <polygon id="Fill-170" fill="#FF0217" points="116 16.332 116.172035 16.703 117 16"></polygon>
                <path d="M117.848574,27 C118.485273,26.1475625 116.838136,24.9435843 117.935152,24.2215886 C116.520325,23.3293664 118.043778,25.4288279 117,25.2912118 C117.610887,25.5788361 117.910415,26.6562857 117.848574,27" id="Fill-172" fill="#FF0217"></path>
                <path d="M117.538,26.113 C117.373,26.043 117.194,26.005 117,26 C117.215,26.062 117.388,26.095 117.538,26.113" id="Fill-174" fill="#FF0217"></path>
                <path d="M106,20.442 C106.172,20.304 106.29,20.156 106.398,20 C106.263,20.109 106.133,20.243 106,20.442" id="Fill-176" fill="#FF0217"></path>
                <path d="M113.665853,26.1844848 L115,25 C114.109316,25.7876462 111.866446,25.7400015 112.00625,26.9178522 C112.732326,27.1578853 113.605723,26.8442742 113.965003,26.3352594 L113.665853,26.1844848 Z" id="Fill-178" fill="#FF0217"></path>
                <path d="M99.191,2.83219946 L99.958,2.18917395 L99,2 C99.274,2.24310513 98.778,3.43373945 99.191,2.83219946" id="Fill-180" fill="#FF0217"></path>
                <path d="M99,2.01168561 L99.185,2.05268561 C99.145,2.00468561 99.086,1.98568561 99,2.01168561" id="Fill-182" fill="#FF0217"></path>
                <path d="M108.002668,19.6375554 C108.370174,19.7745554 108.664563,19.7215554 109,19.3735554 C108.861464,19.0035554 107.944303,18.6605554 108.002668,19.6375554" id="Fill-184" fill="#FF0217"></path>
                <polygon id="Fill-186" fill="#FF0217" points="96.083273 4.336 97 4 96 4.146"></polygon>
                <polygon id="Fill-188" fill="#FF0217" points="92 2.34392523 91.8280757 2 91 2.65514019 91.1750789 3"></polygon>
                <path d="M97.2108226,27.9910958 C97.7132832,28.0991495 98.1056475,27.1918083 97.974469,27 L97,27.0398093 C97.2477166,27.8334097 97.2705557,27.0160271 97.8350918,27.2171415 L97.2108226,27.9910958 Z" id="Fill-190" fill="#FF0217"></path>
                <path d="M62.600058,3.97264438 C62.8518793,3.30373426 64.0839082,3.69062093 64.1482174,4.3263135 C63.9823674,4.60117238 63.3149056,4.86495875 63.7346077,5.26943118 L64.7087228,3.62874512 C66.0057379,4.65132436 63.7237767,5.78528007 63.0833924,6.36430743 C64.4041003,6.57663917 64.795371,5.49804603 66.2006963,5.50455927 C65.7864096,5.35735997 65.5244343,4.94832827 65.305783,4.59661311 C65.2577203,3.4411637 66.5669203,3.95245332 67.5031268,3.86126791 C66.9074205,3.36039948 67.2519825,2.93703865 67.6859003,2.48241424 C67.7637483,2.44789405 67.8158726,2.38145897 67.8531042,2.30525402 C67.9031977,2.24989145 67.9512604,2.1977855 68,2.14242293 L67.8883051,2.14372558 C67.8957514,2.0134607 67.8713816,1.85844551 67.7901489,1.64350847 C67.0048997,1.97959184 66.4044549,1.01498046 65.8987815,1 C66.3983625,2.87776813 64.1766488,1.43508467 63.5410032,2.01215805 L62.8072013,2.1977855 L62.5330411,2.20169344 C62.4775321,1.99392097 62.5553801,1.73664785 62.9744053,1.36539297 C62.6251048,1.73599653 61.4594159,1.60573165 61.5670492,2.20885801 L58.908033,2.23621363 C58.8254465,2.15935736 58.7428599,2.064264 58.6812585,1.92878854 C58.5891948,2.04667825 58.5736252,2.14372558 58.5858101,2.23881893 L47,2.35996526 C47.5713365,2.50781589 48.0661788,2.93638732 48.6551157,3.14415979 C47.7710335,4.39079462 49.6217845,3.3688667 49.3625169,4.54776379 C48.9644768,4.97633521 48.3829863,4.84151107 48.0363935,4.55492835 C47.9070982,5.15023882 48.4005867,5.67781155 48.3437238,6.38905775 C49.805235,7.13808076 50.0286248,4.28853669 51.456966,4.72231871 C51.4007801,5.43551889 50.958739,6.05948762 51.8942686,5.96309162 L51.656663,6.11680417 C53.154052,5.3182805 52.8230288,7.73013461 53.7653278,5.77355623 L53.740958,6.80330004 C54.4199278,6.02757273 55.7413126,6.02171081 56.4859455,5.8797221 L56.4419444,6.07837603 C58.530978,4.89947894 57.6144027,5.82826748 59.9599961,5.33391229 L58.8802785,6.53625706 C59.6898975,7.03321754 59.8719941,5.72666088 60.4528077,5.8608337 C60.4115144,6.05948762 60.5462253,6.81372123 59.9972278,7 L62.843756,5.16782458 C63.5227258,4.39079462 62.7056605,4.41033435 62.600058,3.97264438" id="Fill-192" fill="#FF0217"></path>
                <path d="M66,6 C66.222,6.084 66.476,6.12 66.774,6.059 C66.486,6.01 66.238,6 66,6" id="Fill-194" fill="#FF0217"></path>
                <path d="M46,2.09546362 L47,2.08246362 C46.6905158,1.98446362 46.3677205,1.95646362 46,2.09546362" id="Fill-196" fill="#FF0217"></path>
                <path d="M69.5213685,2.93290735 C69.0029102,2.49733759 69.9096787,2.32321619 70,2 L68.1430803,2.01490948 C68.1509034,2.34025559 67.9674161,2.7028754 68.0051093,3 L69.5213685,2.93290735 Z" id="Fill-198" fill="#FF0217"></path>
                <path d="M68.4716981,1 C68.4102027,1.36457438 68.2166317,1.69045572 68,2 L69,1.98710232 C68.9937107,1.59415305 68.8819008,1.23645744 68.4716981,1" id="Fill-200" fill="#FF0217"></path>
                <polygon id="Fill-202" fill="#FF0217" points="68 23 67.6020672 23.055 67 23.524"></polygon>
                <path d="M63,21.1444937 C63.2830769,22.0684937 63.8205128,21.3664937 64,21.1324937 C63.3810256,21.1624937 63.6492308,20.8114937 63,21.1444937" id="Fill-204" fill="#FF0217"></path>
                <polygon id="Fill-206" fill="#FF0217" points="65 28 64 28.522 64.0936426 28.704"></polygon>
                <path d="M40.569,7 C40.378,7.035 40.193,7.061 40,7.103 C40.261,7.109 40.431,7.065 40.569,7" id="Fill-208" fill="#FF0217"></path>
                <path d="M46.2988659,5.90764216 C44.4608886,4.62187613 47.5032177,4.83773995 46.9258704,3.19123506 L45.925444,3.73741398 L46.0108543,3.29482072 L44.7906122,3.43897139 C45.0415464,4.1959435 45.2295815,4.24302789 45.1746276,5.03766751 C43.5465346,4.72763491 44.6615035,4.09525534 43.4670831,3.0934444 L41.6469824,3.23831945 L41.7946298,3 C41.6410236,3.01738501 41.5734898,3.11662441 41.5205222,3.24628758 L35.387531,3.74031148 C34.2719,4.37196668 36.004604,5.1695038 35.1816193,6.33792104 C36.475354,6.33357479 38.3967553,7.17964506 38.5066632,5.59543644 C38.463627,5.81419775 38.3775545,6.25099602 38.6397444,6.4386092 L39.3879124,5.13473379 L38.6748355,4.71894241 C39.426976,3.42013763 41.8555425,3.70916335 42.295174,4.51611735 C40.9133806,4.95943499 41.6065946,6.5233611 39.6825449,5.67222021 C39.7692794,6.07424846 40.1215143,6.78123868 39.6878417,7 C41.9422771,6.53929736 43.9636548,7.26149946 46.2988659,5.90764216" id="Fill-210" fill="#FF0217"></path>
                <path d="M24.031824,6.198 L24.058824,6 C23.997824,6.106 23.976824,6.185 24.031824,6.198" id="Fill-212" fill="#FF0217"></path>
                <path d="M24.8040346,6 L26,5 L24.1354467,5.08072795 L24,5.78161456 C24.1649856,5.60335978 24.8184438,5.24825012 25.0720461,5.52216519 L24.8040346,6 Z" id="Fill-214" fill="#FF0217"></path>
                <path d="M26,4 C25.3412229,4.49059873 25.3767258,5.85030194 25.7361933,6.46911661 C25.1311637,7.09944769 25.4171598,5.00883683 25,6.44301277 C25.0138067,7.42344247 25.7598619,6.84839012 25.9309665,6.66796649 L26,4 Z" id="Fill-216" fill="#FF0217"></path>
                <polygon id="Fill-218" fill="#FF0217" points="33.376 5 33 5.734 33.926 5.929"></polygon>
                <path d="M33.919,5.13535912 L33,5 C33.064,5.37569061 33.127,5.74309392 33.276,6 L33.919,5.13535912 Z" id="Fill-220" fill="#FF0217"></path>
                <path d="M31,5.28 C30.71035,5.147 30.3894267,5.048 30,5 L31,5.28 Z" id="Fill-222" fill="#FF0217"></path>
                <path d="M32,5.45 L31.9705043,5.219 L31,5 C31.3577545,5.138 31.6784015,5.289 32,5.45" id="Fill-224" fill="#FF0217"></path>
                <path d="M32,6 C31.9098609,4.89941365 31.8039927,3.74379798 31,4.0500095 L31.1578947,5.74171723 L32,6 Z" id="Fill-226" fill="#FF0217"></path>
                <polygon id="Fill-228" fill="#FF0217" points="58.904475 27 58 27.701 58.095525 27.893 59 27.19"></polygon>
                <path d="M54.636,26 C54.376,26.219 54.179,26.447 54,26.682 C54.274,26.545 54.491,26.339 54.636,26" id="Fill-230" fill="#FF0217"></path>
                <path d="M51.2131999,32.0711699 C50.3236119,31.2583237 52.4410617,30.9964935 50.7928768,30.6369654 C50.647491,29.880784 51.4204826,28.9057594 52.1956333,29.2815705 C52.1344562,29.9934622 51.4399153,29.7381452 51.9170973,30.4643659 C52.432425,29.6404473 52.6281919,30.2018843 52.4489788,29.1291619 C53.3155354,28.4602572 53.4119794,27.6975627 54,27 C52.9527908,27.4722063 50.7518521,26.3708258 49.4225082,27.7470629 C48.6891019,29.0373259 49.1338959,30.7971899 49.1310169,32.6586596 C49.2411359,33.0969973 51.1419465,33.3041168 51.2131999,32.0711699" id="Fill-232" fill="#FF0217"></path>
                <g id="Group-236" transform="translate(53.000000, 33.000000)">
                    <mask id="mask-6" fill="white">
                        <use xlink:href="#path-5"></use>
                    </mask>
                    <g id="Clip-235"></g>
                    <path d="M0.16185,0.46895 C0.44785,0.53945 0.53535,0.48195 0.71085,0.36345 C0.66335,-0.12505 0.39285,0.44745 0.16185,0.46895" id="Fill-234" fill="#FF0217" mask="url(#mask-6)"></path>
                </g>
                <path d="M43.5956539,19 C43.5275337,19.251861 42.8807049,19.5645161 43.019445,20 L44,19.6830025 C43.7700164,19.6401985 43.6887722,19.3318859 43.5956539,19" id="Fill-237" fill="#FF0217"></path>
                <path d="M44.688,20 L44,20.221 C44.172,20.256 44.385,20.199 44.688,20" id="Fill-239" fill="#FF0217"></path>
                <path d="M44,19 C44.025,19.084 44.047,19.171 44.075,19.254 C44.097,19.167 44.093,19.079 44,19" id="Fill-241" fill="#FF0217"></path>
                <path d="M28.9995067,4.43628554 C29.020897,3.65128554 28.3412713,4.11928554 28,4.35228554 C28.2771006,4.41828554 28.666986,4.67528554 28.9995067,4.43628554" id="Fill-243" fill="#FF0217"></path>
                <path d="M10.618,6.624 L10,6 C10.219,6.372 10.33,6.558 10.618,6.624" id="Fill-245" fill="#FF0217"></path>
                <path d="M4.125,21 C4.107,21.153 4.062,21.281 4,21.401 C4.062,21.303 4.104,21.173 4.125,21" id="Fill-247" fill="#FF0217"></path>
                <path d="M4,21 C3.71922821,21.653 2.85229541,20.638 2.54025283,21.632 L2.58017299,21.328 L2,21.917 C2.54357951,21.831 3.68529607,21.952 4,21" id="Fill-249" fill="#FF0217"></path>
            </g>
        </g>
    </g>
</svg>