<svg id="Calque_1" data-name="Calque 1" xmlns="http://www.w3.org/2000/svg" viewBox="0 0 118.59 117.42"><defs><style>.cls-1{fill:#fff;}</style></defs><title>extern</title><path class="cls-1" d="M105,109.92V58.65a3.75,3.75,0,0,1,3.75-3.75h0a3.75,3.75,0,0,1,3.75,3.75v51.27a7.12,7.12,0,0,1-2.23,5.33,7.27,7.27,0,0,1-5.27,2.17H7.5a7.22,7.22,0,0,1-5.33-2.17A7.22,7.22,0,0,1,0,109.92v-75a7.27,7.27,0,0,1,2.17-5.27A7.16,7.16,0,0,1,7.5,27.42H33.87a3.75,3.75,0,0,1,3.75,3.75h0a3.75,3.75,0,0,1-3.75,3.75H7.5v75Zm-69.53-30a3.75,3.75,0,0,1-3.65-4.6A68.86,68.86,0,0,1,39.2,56.25a71.63,71.63,0,0,1,15.59-19A72.59,72.59,0,0,1,76,24.55a69.07,69.07,0,0,1,25.25-4.63h3.52L91.17,6.33a3.6,3.6,0,0,1-1-2.64,3.73,3.73,0,0,1,6.33-2.64l22.14,22.74L96.45,46.52a3.3,3.3,0,0,1-1.24.82,3.78,3.78,0,0,1-1.34.24,4.2,4.2,0,0,1-1.47-.24,3.2,3.2,0,0,1-1.23-.82,3.83,3.83,0,0,1,0-5.27l13.71-13.71a14.68,14.68,0,0,0-1.87-.12h-2a61.29,61.29,0,0,0-22.21,4A65.42,65.42,0,0,0,60,42.54a63.72,63.72,0,0,0-14,16.64A60.5,60.5,0,0,0,39.13,77a3.75,3.75,0,0,1-3.66,3Z"/></svg>