<?xml version="1.0" encoding="UTF-8"?>
<svg width="1365px" height="1731px" viewBox="0 0 1365 1731" version="1.1" xmlns="http://www.w3.org/2000/svg" xmlns:xlink="http://www.w3.org/1999/xlink">
    <!-- Generator: Sketch 51.1 (57501) - http://www.bohemiancoding.com/sketch -->
    <title>icon-event-bg</title>
    <desc>Created with Sketch.</desc>
    <defs></defs>
    <g id="Page-1" stroke="none" stroke-width="1" fill="none" fill-rule="evenodd">
        <g id="Evenements" transform="translate(-33.000000, -772.000000)">
            <g id="icon-event-bg" transform="translate(38.000000, 769.000000)">
                <circle id="Oval-2-Copy-4" stroke="#F6BF32" stroke-width="6" cx="1253" cy="860" r="11"></circle>
                <polygon id="Rectangle-9-Copy-2" fill="#009A5D" fill-rule="evenodd" transform="translate(1334.976349, 1600.361467) rotate(12.000000) translate(-1334.976349, -1600.361467) " points="1311.47635 1576.36147 1358.47635 1590.63451 1325.29767 1624.36147"></polygon>
                <polygon id="Rectangle-9-Copy-9" fill="#FE3445" fill-rule="evenodd" transform="translate(1333.191574, 148.191574) rotate(-293.000000) translate(-1333.191574, -148.191574) " points="1311.69157 126.691574 1354.69157 139.477839 1324.33661 169.691574"></polygon>
                <polygon id="Rectangle-9-Copy" fill="#BA99BA" fill-rule="evenodd" transform="translate(62.336964, 1066.470041) rotate(-150.000000) translate(-62.336964, -1066.470041) " points="34.0158956 1038.14897 90.6580317 1054.99179 50.6726833 1094.79111"></polygon>
                <polygon id="Rectangle-9-Copy-8" fill="#719B77" fill-rule="evenodd" transform="translate(115.315747, 1194.034993) rotate(-210.000000) translate(-115.315747, -1194.034993) " points="98.4872639 1177.20651 132.144229 1187.21458 108.384788 1210.86348"></polygon>
                <circle id="Oval-2" stroke="#E5702B" stroke-width="10" cx="28" cy="438.954145" r="28"></circle>
                <circle id="Oval-2-Copy-3" fill="#B71D43" fill-rule="evenodd" cx="65" cy="509.954145" r="7"></circle>
                <polygon id="Rectangle-9-Copy-5" fill="#9CB7C1" fill-rule="evenodd" transform="translate(93.736542, 1708.578843) rotate(-330.000000) translate(-93.736542, -1708.578843) " points="56.1612972 1670.48172 131.311787 1693.13846 78.2608479 1746.67597"></polygon>
                <polygon id="Rectangle-9-Copy-4" fill="#F6BF32" fill-rule="evenodd" opacity="0.900000036" transform="translate(142.545855, 32.500000) rotate(-362.000000) translate(-142.545855, -32.500000) " points="112.045855 2 173.045855 20.1386549 129.984162 63"></polygon>
            </g>
        </g>
    </g>
</svg>