<?xml version="1.0" encoding="UTF-8"?>
<svg width="360px" height="10px" viewBox="0 0 360 10" version="1.1" xmlns="http://www.w3.org/2000/svg" xmlns:xlink="http://www.w3.org/1999/xlink">
    <!-- Generator: Sketch 50.2 (55047) - http://www.bohemiancoding.com/sketch -->
    <title>Page 1</title>
    <desc>Created with Sketch.</desc>
    <defs>
        <polygon id="path-1" points="0.3061 0.80034103 10 0.80034103 10 1.8282 0.3061 1.8282"></polygon>
        <polygon id="path-3" points="0.0004 0.158 341.2034 0.158 341.2034 8.8268 133.141602 8.8268 0.0004 8.8268"></polygon>
        <polygon id="path-5" points="0.702 0.866432082 2.114 0.866432082 2.114 1 0.702 1"></polygon>
    </defs>
    <g id="Page-1" stroke="none" stroke-width="1" fill="none" fill-rule="evenodd">
        <g id="Homepage" transform="translate(-940.000000, -968.000000)">
            <g id="Page-1" transform="translate(940.000000, 967.000000)">
                <g id="Group-3" transform="translate(350.000000, 2.842180)">
                    <mask id="mask-2" fill="white">
                        <use xlink:href="#path-1"></use>
                    </mask>
                    <g id="Clip-2"></g>
                    <path d="M1.1301,1.5912 C1.9451,1.5572 2.6551,1.7442 2.3491,1.8282 C4.0081,1.6012 4.0441,1.8592 4.2591,1.4212 C5.3241,1.2062 6.4611,1.5042 5.2491,1.6812 L8.3201,1.4132 L6.4841,1.3452 C6.9841,0.9812 9.4181,1.4542 10.0001,1.0302 L6.6751,1.0652 L6.8421,0.9452 C6.0851,1.0752 4.6141,1.0202 4.1021,0.9692 C4.1831,0.9092 4.1311,0.8122 4.7181,0.8012 C0.7031,0.7732 3.6361,1.4382 0.3061,1.5592 C0.5141,1.5502 0.7731,1.5552 1.1301,1.5912" id="Fill-1" fill="#38AEEB" mask="url(#mask-2)"></path>
                </g>
                <path d="M347.7205,3.54278 L346.3205,3.99878 L343.9715,3.88078 C343.9445,4.03878 342.2335,4.16578 343.3925,4.30478 C343.6185,4.27978 344.0665,4.23278 344.4285,4.24778 C344.1665,4.58778 341.3045,4.41778 341.9945,4.76178 C343.8525,4.67178 344.1375,4.74678 345.2805,4.46978 C346.9835,4.50178 348.2245,4.57978 349.0195,4.70378 C349.5255,4.65278 349.5955,4.44378 350.2385,4.40278 C350.0955,4.40778 349.9655,4.41278 349.8015,4.41578 L349.7325,3.90378 C349.1975,4.01178 348.6905,3.95978 348.0965,3.97078 L350.8455,3.37278 C349.9595,2.89378 347.2575,3.17478 346.1785,2.97578 C347.5175,3.40678 345.1125,3.18978 347.7205,3.54278" id="Fill-4" fill="#38AEEB"></path>
                <path d="M350.2383,4.40238 C350.2563,4.40238 350.2853,4.40138 350.3063,4.40138 C350.2853,4.40138 350.2563,4.40138 350.2383,4.40238" id="Fill-6" fill="#38AEEB"></path>
                <path d="M144.8025,7.38088 C144.2185,7.38988 144.0455,7.51088 143.9615,7.57188 L150.5435,7.56288 C150.3375,7.42788 148.4415,7.26088 149.7085,7.18088 C149.1435,7.03188 147.4225,7.15988 147.1725,7.34088 L147.6505,7.13588 C146.1335,7.39888 145.0975,6.88288 146.0865,6.72788 L145.9585,6.73088 L141.7585,7.74088 C143.3005,7.79988 142.9455,7.39388 144.8025,7.38088" id="Fill-8" fill="#38AEEB"></path>
                <path d="M9.6188,6.86658 C10.4718,6.81958 10.5768,6.77158 10.4798,6.72158 C10.1738,6.75858 9.8838,6.80258 9.6188,6.86658" id="Fill-10" fill="#38AEEB"></path>
                <path d="M140.7764,7.97858 L139.4604,8.29458 C139.9874,8.20958 140.4504,8.09558 140.7764,7.97858" id="Fill-12" fill="#38AEEB"></path>
                <path d="M149.8916,3.16698 C149.8946,3.14998 149.9086,3.13498 149.8736,3.11298 L149.2826,3.27498 L149.2976,3.27498 C149.5156,3.23898 149.7106,3.20298 149.8916,3.16698" id="Fill-14" fill="#38AEEB"></path>
                <path d="M110.9099,9.16698 C110.7689,9.17498 110.6469,9.17898 110.4779,9.18898 C110.6349,9.18698 110.7779,9.17798 110.9099,9.16698" id="Fill-16" fill="#38AEEB"></path>
                <path d="M167.7227,1.35888 L164.7967,1.66288 C165.1867,1.51888 163.7747,1.56188 164.3917,1.39488 C164.1677,1.41688 163.1227,1.47488 163.4077,1.54888 L164.0047,1.53988 C162.4617,1.95888 163.3957,2.11988 160.8377,2.43988 C162.4257,2.68888 163.1227,2.46088 163.9637,2.26988 C164.2487,2.24088 164.4877,2.22788 164.7297,2.21188 L167.1627,1.62488 L167.7227,1.35888 Z" id="Fill-18" fill="#38AEEB"></path>
                <path d="M50.3976,4.48378 L50.4296,4.45078 C50.4006,4.46278 50.3946,4.47378 50.3976,4.48378" id="Fill-20" fill="#38AEEB"></path>
                <path d="M50.5577,4.31658 L50.4297,4.45158 C50.5867,4.38458 51.1887,4.31958 50.5577,4.31658" id="Fill-22" fill="#38AEEB"></path>
                <path d="M141.2596,7.70668 C141.2196,7.78468 141.0506,7.87968 140.7766,7.97868 L141.7586,7.74168 C141.6186,7.73668 141.4346,7.72068 141.2596,7.70668" id="Fill-24" fill="#38AEEB"></path>
                <path d="M143.4933,6.79018 L145.9583,6.73018 L146.8673,6.51318 C145.9233,6.59518 144.8203,6.65118 143.4933,6.79018" id="Fill-26" fill="#38AEEB"></path>
                <path d="M114.8036,9.41388 C109.6976,9.47788 116.0586,8.91988 113.7116,8.80088 C112.2936,8.85888 111.7936,9.09288 110.9096,9.16688 C114.9596,8.96688 110.3606,9.93988 114.4456,9.81488 C113.8646,10.23988 111.4996,10.27788 110.1136,10.16288 C108.5446,9.75388 111.4846,9.86288 111.8396,9.46288 C110.2006,9.52888 110.4896,9.60388 109.7936,9.83088 C107.2206,9.73688 104.4686,10.33388 102.9316,9.76688 C101.0686,9.85688 101.1916,10.05288 100.1206,10.26788 C99.9066,10.70588 102.8906,10.49788 103.5816,10.84188 C103.4386,10.80488 103.1596,10.73188 103.2406,10.66988 L104.8506,10.76188 C103.3226,10.60988 105.0636,10.32488 105.8806,10.29088 C106.4746,10.28088 107.6566,10.26188 107.4936,10.38288 L106.5936,10.47688 C107.7526,10.61488 109.1496,10.15788 110.3736,10.39488 C110.4376,10.49288 109.9746,10.53988 109.9046,10.59988 C111.2746,10.30088 112.5966,10.31888 114.6266,10.10788 L113.4496,10.54088 C115.0726,10.06088 118.7486,10.19788 121.2956,10.45088 C121.0126,10.37788 120.5036,10.32588 120.8096,10.24188 C122.3056,10.13888 123.4356,10.43588 122.7426,10.66488 C124.2046,10.30488 128.3106,10.96788 130.3026,10.49988 L139.4606,8.29488 C139.1176,8.34988 138.7506,8.39488 138.3726,8.41388 C137.5396,8.03388 137.0916,8.07988 138.5506,7.72088 C137.1176,7.92188 137.6656,8.22788 135.5136,8.24388 C136.3576,8.05188 136.5706,7.61488 134.5096,7.56988 C129.3566,7.94988 125.9416,9.03288 121.1296,9.58688 C120.9516,9.29288 117.1736,9.37488 115.3366,9.30588 C116.0376,8.99188 117.4006,8.90188 118.8146,8.83788 C117.9276,8.81788 116.3996,8.80988 115.2656,8.79588 L114.8036,9.41388 Z" id="Fill-28" fill="#2EADEF"></path>
                <path d="M126.7688,8.42738 C126.6398,8.40138 126.5068,8.38638 126.3698,8.37238 C126.4428,8.39738 126.5618,8.41538 126.7688,8.42738" id="Fill-30" fill="#38AEEB"></path>
                <path d="M119.2456,8.84698 C119.2636,8.83598 119.2576,8.82698 119.2636,8.81498 C119.1146,8.82198 118.9666,8.83098 118.8146,8.83798 C118.9666,8.83998 119.1386,8.84398 119.2456,8.84698" id="Fill-32" fill="#38AEEB"></path>
                <path d="M140.0522,7.04428 C140.3582,6.96028 140.5842,6.93728 140.8902,6.85228 C140.7022,6.88128 140.4652,6.90328 140.2382,6.92928 C140.0212,6.96828 139.9182,7.00828 140.0522,7.04428" id="Fill-34" fill="#38AEEB"></path>
                <path d="M141.0828,7.56018 L140.9198,7.68118 C141.0508,7.69418 141.1428,7.69718 141.2598,7.70618 C141.2958,7.64218 141.2568,7.58718 141.0828,7.56018" id="Fill-36" fill="#38AEEB"></path>
                <path d="M95.2899,6.75978 L94.7999,6.82378 C95.0949,6.81878 95.2219,6.79278 95.2899,6.75978" id="Fill-38" fill="#38AEEB"></path>
                <path d="M109.1152,8.91528 C110.8912,8.88728 109.3272,8.47728 111.8402,8.47528 L111.1022,8.44828 C112.9052,8.26128 116.0732,8.34728 118.2152,8.33228 C117.9732,8.50628 119.5142,8.54428 119.2632,8.81528 C120.7282,8.75128 122.1772,8.69128 122.9322,8.41128 C123.8392,8.50328 125.2172,8.25728 126.3702,8.37228 C125.8832,8.20828 128.0122,7.81828 125.2052,8.01828 C125.4322,7.99628 125.2892,7.95928 125.5132,7.93628 C123.7052,7.70728 122.9802,8.09528 121.4232,8.10028 C120.4922,7.93828 122.9462,7.83928 122.0672,7.77428 C120.1222,7.92528 115.9652,7.57928 116.0932,8.18828 C114.6782,8.23128 114.4832,8.09728 114.0612,7.98528 C111.8222,8.63428 105.7522,7.70728 105.7732,8.53628 C106.5902,8.50328 107.9222,8.52128 109.1212,8.34428 L109.1152,8.91528 Z" id="Fill-40" fill="#38AEEB"></path>
                <path d="M137.0698,7.08698 C136.9608,7.08298 136.8148,7.08598 136.7248,7.07898 C136.8268,7.08298 136.9538,7.08598 137.0698,7.08698" id="Fill-42" fill="#38AEEB"></path>
                <path d="M157.2804,9.59558 L155.9294,9.54558 C156.2494,9.62858 156.7534,9.62658 157.2804,9.59558 M159.4804,9.48958 L158.7384,10.03158 C154.5094,10.16058 152.9804,10.00858 149.2824,10.02958 C149.0004,9.95558 149.4494,9.90858 149.6764,9.88458 C147.0774,9.94758 143.1874,9.83358 141.2954,10.08258 C140.4684,10.07858 138.2964,9.90658 139.1184,9.74658 C138.7164,9.79458 138.2564,9.84158 137.7934,9.82458 C137.6704,9.62858 138.8284,9.76858 138.8554,9.60858 C138.4884,9.59558 138.3454,9.55758 138.2614,9.61958 C138.8784,9.45158 137.6204,8.95858 140.5004,8.97058 C141.6144,9.42558 138.5024,9.02358 139.1614,9.52558 C140.1164,9.52858 140.0054,9.33458 140.0864,9.27358 C141.3044,9.28458 141.2724,9.41058 141.2074,9.52558 C141.6734,9.36958 143.2044,9.58658 143.8484,9.34958 C146.2154,9.31058 143.7194,9.72758 145.2654,9.72158 L146.1564,9.21258 L148.7264,9.30858 C152.4474,9.12958 148.1944,8.42958 152.4474,8.14258 C151.8884,8.40758 153.5944,8.85358 155.5734,8.95958 C154.3894,8.97858 152.2004,9.30958 150.6714,9.15858 C152.8264,9.55758 147.7054,9.20658 148.8234,9.66258 C149.8884,9.44658 151.6644,9.41758 153.0494,9.53458 L152.5954,9.58058 C154.0684,9.63458 155.1834,9.10358 157.2164,9.30658 C158.2264,9.28958 158.0374,9.43358 157.8594,9.55258 C158.7144,9.47658 159.4784,9.37658 159.4804,9.48958" id="Fill-44" fill="#2EADEF"></path>
                <path d="M328.8214,3.60868 C328.9554,3.62168 329.1104,3.63568 329.2314,3.64968 C329.1424,3.62668 328.9864,3.61568 328.8214,3.60868" id="Fill-46" fill="#38AEEB"></path>
                <path d="M208.8861,3.41388 L209.6691,3.43088 C209.3631,3.41288 209.1131,3.41088 208.8861,3.41388" id="Fill-48" fill="#38AEEB"></path>
                <path d="M226.4526,1.73378 L227.5956,1.61478 C227.1446,1.62278 226.7916,1.66978 226.4526,1.73378" id="Fill-50" fill="#38AEEB"></path>
                <path d="M319.4886,3.57358 L319.4506,3.56958 C319.3866,3.57858 319.3376,3.58958 319.2696,3.59658 L319.4886,3.57358 Z" id="Fill-52" fill="#38AEEB"></path>
                <path d="M261.6851,2.92368 C261.8591,2.96668 262.0551,3.00568 262.3221,3.03568 C262.2901,2.98568 262.0521,2.94968 261.6851,2.92368" id="Fill-54" fill="#38AEEB"></path>
                <path d="M226.2423,1.75588 C226.2713,1.76088 226.2883,1.76188 226.3113,1.76588 C226.3563,1.75488 226.4043,1.74288 226.4523,1.73388 L226.2423,1.75588 Z" id="Fill-56" fill="#38AEEB"></path>
                <path d="M201.1483,1.93048 C200.9803,1.94648 200.8273,1.95848 200.6473,1.98048 C200.8833,1.97148 201.0283,1.95248 201.1483,1.93048" id="Fill-58" fill="#38AEEB"></path>
                <path d="M202.2516,3.37208 C202.0716,3.38508 201.8986,3.40108 201.7646,3.42308 L202.2516,3.37208 Z" id="Fill-60" fill="#38AEEB"></path>
                <path d="M175.186,2.38368 L174.133,2.45668 C174.65,2.44868 174.96,2.41968 175.186,2.38368" id="Fill-62" fill="#38AEEB"></path>
                <path d="M199.4628,3.03948 C199.4018,3.06248 199.3398,3.08548 199.2998,3.10848 C199.4448,3.09248 199.5148,3.06248 199.4628,3.03948" id="Fill-64" fill="#38AEEB"></path>
                <path d="M335.5173,5.12448 C335.4933,5.12448 335.4673,5.12648 335.4533,5.12648 L335.4263,5.18548 L335.5173,5.12448 Z" id="Fill-66" fill="#38AEEB"></path>
                <path d="M338.0795,4.38378 C338.3815,4.36778 338.6955,4.35478 339.0055,4.34178 C338.6615,4.33878 338.3265,4.35478 338.0795,4.38378" id="Fill-68" fill="#38AEEB"></path>
                <path d="M276.9915,3.74168 C277.2705,3.81568 277.9255,3.90368 277.6195,3.98768 C278.1535,3.88068 278.1185,3.62368 276.9915,3.74168" id="Fill-70" fill="#38AEEB"></path>
                <path d="M330.3806,8.30768 C330.5486,8.23868 330.7576,8.18668 330.9666,8.13468 C330.5766,8.20868 330.2346,8.26968 330.3806,8.30768" id="Fill-72" fill="#38AEEB"></path>
                <path d="M330.9669,8.13458 C331.1599,8.09758 331.3659,8.05958 331.5379,8.01958 C331.3369,8.05258 331.1439,8.09158 330.9669,8.13458" id="Fill-74" fill="#38AEEB"></path>
                <path d="M269.8942,7.96238 C269.8252,7.92738 269.7172,7.89838 269.5712,7.88938 C269.6142,7.95838 269.7312,7.97338 269.8942,7.96238" id="Fill-76" fill="#38AEEB"></path>
                <path d="M339.7534,4.42328 C339.9194,4.30228 343.9444,4.03828 340.5594,3.97628 C340.6894,3.59928 342.7314,3.80228 343.6334,3.70928 C342.9784,3.62028 343.9604,3.46628 343.7614,3.33128 C343.3134,3.37728 342.7814,3.48628 342.0404,3.45928 C341.7004,3.28628 342.8234,3.16928 343.7004,3.23428 C342.6204,3.03428 345.0714,2.93428 343.5424,2.78228 C340.2734,2.91528 337.9644,3.05228 335.6654,3.60328 C337.5284,3.51228 339.6124,3.40028 341.1404,3.55228 L340.4984,3.87828 C338.7714,3.59128 337.7054,3.80528 336.0064,3.77528 L339.8224,3.94828 C341.6104,4.22028 340.4144,4.28228 339.0054,4.34228 C339.3514,4.34628 339.6654,4.36528 339.7534,4.42328" id="Fill-78" fill="#38AEEB"></path>
                <path d="M337.1821,7.28728 L337.2461,7.29628 C337.3021,7.28528 337.3711,7.27728 337.4071,7.26328 L337.1821,7.28728 Z" id="Fill-80" fill="#38AEEB"></path>
                <path d="M175.3807,8.98908 L175.0527,9.11208 C175.3267,9.05708 175.4107,9.01808 175.3807,8.98908" id="Fill-82" fill="#38AEEB"></path>
                <path d="M334.906,5.70628 L334.909,5.70628 C334.883,5.71028 334.877,5.71028 334.906,5.70628" id="Fill-84" fill="#38AEEB"></path>
                <path d="M183.5355,9.01418 C183.5235,9.02218 183.5125,9.03218 183.4915,9.04218 C183.5215,9.03218 183.5215,9.02218 183.5355,9.01418" id="Fill-86" fill="#38AEEB"></path>
                <path d="M185.7157,1.97618 C185.7007,1.96118 185.6957,1.94718 185.6607,1.93218 C185.4867,1.95018 185.5707,1.96518 185.7157,1.97618" id="Fill-88" fill="#38AEEB"></path>
                <path d="M183.5417,8.98378 C183.5417,8.99378 183.5467,9.00378 183.5357,9.01378 C183.5417,9.00378 183.5557,8.99278 183.5417,8.98378" id="Fill-90" fill="#38AEEB"></path>
                <path d="M223.1965,7.78528 C223.1965,7.78528 223.0715,7.72928 222.8745,7.67528 C222.7975,7.70528 222.8745,7.74128 223.1965,7.78528" id="Fill-92" fill="#38AEEB"></path>
                <path d="M215.3689,7.30228 C215.3189,7.29028 215.2899,7.27928 215.2259,7.26628 L215.3689,7.30228 Z" id="Fill-94" fill="#38AEEB"></path>
                <path d="M275.1404,2.27188 C274.7524,2.26688 274.4624,2.27488 274.2174,2.28888 C274.4994,2.29788 274.8054,2.29588 275.1404,2.27188" id="Fill-96" fill="#38AEEB"></path>
                <path d="M183.4919,9.04218 C183.4099,9.07618 183.2939,9.11218 183.1019,9.15618 C183.3129,9.10918 183.4249,9.07318 183.4919,9.04218" id="Fill-98" fill="#38AEEB"></path>
                <path d="M235.1315,6.13648 C235.0485,6.14948 234.9705,6.16148 234.8915,6.17248 C234.9385,6.17848 234.9865,6.18148 235.0335,6.18848 L235.1315,6.13648 Z" id="Fill-100" fill="#38AEEB"></path>
                <path d="M239.2166,6.37658 C239.0776,6.41358 239.0136,6.45258 238.9346,6.48558 C240.3926,6.34958 243.0716,6.49758 243.3886,6.15058 C242.8936,6.15858 240.3286,5.95458 240.7656,5.75158 C239.7496,5.83858 238.2476,5.59458 237.6996,5.65158 C239.3686,5.84158 237.8806,5.94458 236.7536,6.06158 C235.7296,5.96058 236.9466,5.78258 236.0646,5.71858 L233.6946,5.75658 L235.7586,5.80258 L235.1316,6.13658 C235.2076,6.12558 235.2606,6.11758 235.3426,6.10458 C238.8356,5.94958 235.6386,6.59358 239.2166,6.37658" id="Fill-102" fill="#38AEEB"></path>
                <path d="M238.9349,6.48578 C238.7159,6.50678 238.5239,6.53278 238.3749,6.56778 C238.7049,6.56278 238.8329,6.52878 238.9349,6.48578" id="Fill-104" fill="#38AEEB"></path>
                <path d="M253.2064,7.03648 C253.3854,7.02548 253.5804,7.00948 253.8244,6.98348 C253.7084,6.99648 253.4384,7.01248 253.2064,7.03648" id="Fill-106" fill="#38AEEB"></path>
                <path d="M148.6194,6.56788 C148.6804,6.66588 150.7154,6.86888 150.6794,6.61188 C150.0754,6.58688 149.4674,6.55988 148.8554,6.53088 L148.6194,6.56788 Z" id="Fill-108" fill="#38AEEB"></path>
                <path d="M292.0831,5.54428 C291.8561,5.53628 291.6291,5.53328 291.4011,5.53728 C291.3531,5.55028 291.3051,5.56428 291.2691,5.57728 C291.4081,5.61528 291.8561,5.56828 292.0831,5.54428" id="Fill-110" fill="#38AEEB"></path>
                <path d="M241.3948,5.63068 C241.0218,5.66968 240.8558,5.71068 240.7658,5.75168 C241.0078,5.73168 241.2308,5.69768 241.3948,5.63068" id="Fill-112" fill="#38AEEB"></path>
                <path d="M292.2109,6.15458 C292.4999,6.22758 292.9249,6.33958 292.9859,6.43758 C293.5769,6.43958 293.9919,6.30558 294.5929,6.25758 C293.9139,6.29458 293.1289,6.26858 292.2109,6.15458" id="Fill-114" fill="#38AEEB"></path>
                <path d="M294.6417,6.25258 C294.6247,6.25458 294.6077,6.25558 294.5927,6.25758 C294.6097,6.25758 294.6247,6.25458 294.6417,6.25258" id="Fill-116" fill="#38AEEB"></path>
                <g id="Group-120" transform="translate(0.000000, 0.842180)">
                    <mask id="mask-4" fill="white">
                        <use xlink:href="#path-3"></use>
                    </mask>
                    <g id="Clip-119"></g>
                    <path d="M168.6804,1.9288 C168.6604,1.9268 168.6334,1.9248 168.6084,1.9228 C168.6364,1.9238 168.6624,1.9238 168.6884,1.9238 L168.6804,1.9288 Z M210.3824,4.5928 C209.6304,4.6248 208.8684,4.6598 208.0934,4.6928 C208.1694,4.6978 208.2394,4.6978 208.3184,4.7018 L206.0604,4.9368 C207.4484,5.0518 208.3624,5.3728 206.4204,5.5228 C206.5834,5.4018 206.0154,5.2528 206.6904,5.1828 C205.3894,5.0068 202.5344,4.8368 203.2784,5.2788 C205.7794,4.8618 203.8614,5.8418 205.8264,5.5318 C204.7724,5.8198 203.7274,5.6898 202.7314,5.8188 C203.7684,5.5778 202.4894,5.2728 200.9324,5.1578 C200.2544,5.2288 198.4194,5.1608 197.2934,5.2778 C197.6954,5.5478 196.7144,5.7028 198.5494,5.7708 C197.8764,5.8418 196.8344,5.8978 195.6664,5.7588 C196.1294,5.7128 196.9384,5.6788 196.8824,5.5818 C196.1294,5.3328 195.2474,5.3438 194.7604,5.2378 C194.3724,5.2528 193.9804,5.2668 193.5994,5.2808 C193.7124,5.3048 193.8114,5.3348 193.8814,5.3738 L192.5914,5.6128 C194.3104,5.4848 193.3864,5.7368 193.3634,5.8958 C193.4104,5.5788 192.2574,5.8548 191.6694,5.8648 L192.9474,6.1988 C192.3294,6.3668 190.7674,5.9578 191.0894,6.2888 C193.8004,6.4208 194.8424,6.3638 197.2934,6.2648 L196.2984,6.0048 C199.0644,5.8218 198.0034,6.4508 201.1074,6.4378 C202.3974,6.2008 205.7744,6.4218 205.8384,5.9468 C205.4484,6.0908 207.7704,6.3688 208.8334,6.1538 C210.0094,5.7198 213.5634,5.6608 212.4864,5.4628 C211.5264,5.4578 210.2344,5.6968 209.4614,5.4138 L211.3254,5.3238 L210.1024,5.0868 C210.7344,5.1718 210.6724,4.9408 210.3824,4.5928 Z M218.1074,4.2278 C219.3194,4.8978 220.6554,5.4898 226.3114,5.3728 L225.8664,5.4188 C228.7164,5.8398 231.4234,4.8628 234.8914,5.3298 C233.2084,5.5828 233.2994,5.5598 231.4414,6.1368 L233.2464,5.9478 C232.7464,6.3128 234.5474,6.1238 235.8714,6.1418 L234.7024,6.5748 C233.9074,6.4508 231.8464,6.4058 231.9064,6.5038 C232.3574,6.4558 229.1854,5.9568 227.4624,6.0828 C227.6394,6.3768 231.2784,6.2578 229.6534,6.7378 C231.0854,6.5368 231.2634,6.8298 232.7604,6.7268 C231.3244,6.9278 232.4054,7.1268 231.3364,7.3408 L233.7904,7.2418 C233.8554,7.3398 230.2164,7.4588 232.2274,7.8198 C233.2104,7.6668 235.8374,7.8598 235.8844,7.5428 L235.9444,7.6408 C237.7844,7.7088 236.7534,7.1928 239.0134,7.3728 C239.0394,7.2138 238.6084,7.1038 237.7994,7.1368 C237.1154,7.2068 237.0104,7.4248 235.6014,7.4688 C234.9704,7.2218 237.3014,7.4998 236.3224,7.0808 C235.8374,6.8728 232.6034,7.2608 233.6334,6.7908 L235.4694,6.8588 C235.5174,6.5418 236.8474,6.5598 236.8094,6.3038 C237.9324,6.1878 238.9924,6.5448 240.1394,6.2688 C240.6154,6.0638 239.7844,5.6838 241.6814,5.8488 C243.1644,6.3178 247.5334,6.2268 249.1704,6.1598 L250.6024,5.9578 C250.4804,5.7628 247.8654,5.9838 248.7854,5.7318 L251.0194,5.6548 L250.8464,5.7768 C251.5864,5.8038 252.3434,5.6728 253.0184,5.6038 C252.3234,5.8318 250.7134,5.7398 251.0334,6.0698 C252.0814,6.1358 252.2414,6.2578 253.2064,6.1948 C252.9954,6.2178 252.8144,6.2498 252.8414,6.2968 C254.9634,6.4388 254.8904,5.9278 255.4224,5.8198 C257.5564,5.3908 253.2714,5.4218 253.5444,5.0818 L259.7754,4.8998 C259.2434,5.0068 258.7074,5.1138 258.9084,5.2488 C260.4364,5.4018 258.9424,5.5058 261.0884,5.4888 C260.9354,5.0378 263.7894,5.2078 265.3054,4.9478 C266.0134,5.1318 266.1594,5.1698 264.6104,5.1748 C264.7884,5.4678 266.8674,5.3548 267.6064,5.3818 C268.0344,5.3088 268.7644,5.2668 269.2274,5.2008 C268.6074,5.0548 268.8724,4.8718 270.2144,4.7468 L270.2934,4.6858 C268.0924,4.6058 264.6714,4.2848 263.2924,4.5848 L263.6824,4.4398 C261.1354,4.1868 258.1394,4.9658 256.9654,4.4128 C257.0734,4.1938 256.4534,4.3628 256.4974,4.0458 L254.6224,4.2938 L255.0124,4.1498 L251.8224,4.2218 L251.9064,4.1618 C250.3894,4.4488 249.2024,4.6828 248.2534,4.8738 C248.2494,5.0118 248.3484,5.0538 247.8434,5.1558 C247.3354,5.2238 246.9514,5.2348 246.6074,5.2168 C246.6054,5.2168 246.6054,5.2168 246.6054,5.2178 L246.6054,5.2168 C245.8224,5.1758 245.3014,4.9778 244.3374,4.8968 L247.3034,4.8628 C247.5454,4.6288 247.2934,4.3858 245.8394,4.2218 C246.4344,4.2128 246.6824,4.0298 245.9474,4.0028 C245.8664,4.0638 244.0034,4.1528 244.7134,4.3398 C241.8954,4.4248 237.3334,3.8098 233.0544,4.2548 C236.1284,3.9868 230.5904,3.9408 234.0034,3.8448 C231.6214,3.4698 231.9534,4.2138 229.5254,4.1548 C229.3184,4.0208 230.8474,4.1728 231.4054,3.9068 C227.3684,3.7568 224.5944,4.5128 220.6884,4.3988 L220.5214,4.1068 C219.7824,4.1448 218.9614,4.1858 218.1074,4.2278 Z M283.6724,4.6438 C283.8994,4.6208 283.9814,4.5588 283.9814,4.5588 C279.0524,5.2518 274.9944,5.4528 272.3374,5.4258 C272.8524,5.7008 275.2364,5.9128 276.3684,6.0268 L275.3644,6.3398 L274.7384,6.0938 L272.9974,6.3778 C273.4844,6.5888 274.8904,6.5448 275.8304,6.7058 C275.9124,6.6468 278.9224,6.2818 279.7634,6.0888 L277.3584,5.8728 C278.0074,5.9598 281.1984,5.8878 282.4634,5.8078 C282.4884,5.6508 280.3084,5.4088 280.0334,5.7498 C279.7744,5.5168 282.2874,5.5148 280.6984,5.2648 C282.5814,5.0168 285.5784,5.2238 286.9684,5.3398 L287.2034,5.7308 C288.7294,5.8828 288.2344,5.2588 290.0464,5.4848 C287.8184,5.5618 290.4234,5.9138 288.6504,5.9438 C289.2174,6.0908 288.6624,6.3578 290.4384,6.3278 C291.9164,5.8098 292.3104,6.6528 293.7074,6.1958 C294.6414,6.3578 292.7034,6.5068 294.5404,6.5768 C296.6474,6.3038 296.5254,6.1088 296.6564,5.7318 C294.6864,5.6268 294.4424,6.2228 292.8314,6.1308 L296.0364,5.4848 C295.4454,5.3938 295.0084,5.3848 294.6414,5.4108 C295.2854,5.3728 295.8334,5.2778 296.3014,5.1458 C296.5674,5.0718 296.8134,5.0078 297.0414,4.9538 C295.2244,4.9508 293.6114,4.9408 293.3254,4.7808 L293.5764,4.5978 C292.9334,4.4298 291.8844,4.5618 291.4014,4.6958 C289.7754,4.7148 288.1494,4.9698 287.7944,4.7328 L288.4124,4.5658 C286.4114,4.6188 286.1884,4.6418 283.6724,4.6438 Z M309.0344,5.3088 C309.0844,5.3418 309.2564,5.4268 309.4964,5.5318 L308.2604,5.7188 C306.0544,5.6368 304.2874,5.0938 302.3014,5.5598 C301.3724,5.4428 300.8744,5.1948 300.3994,4.9908 C300.8544,5.0068 301.2794,5.0258 301.6344,5.0578 C307.2014,4.3748 304.5364,5.7778 309.0344,5.3088 Z M174.0914,6.2928 C174.7324,5.9658 176.8774,5.9508 177.0094,5.5728 C177.1464,5.4758 176.6944,5.4388 176.1884,5.4078 C175.6234,5.3988 175.0204,5.3888 174.3804,5.3768 C174.3584,5.4318 174.2314,5.4828 174.0184,5.5318 C174.6504,5.5788 175.0724,5.6728 174.8164,5.9048 C173.1924,5.3988 173.3614,6.2648 171.6054,6.1358 C171.0474,6.4018 173.5594,6.3988 174.0914,6.2928 Z M163.9324,5.3968 L164.3014,5.1238 C163.9584,5.1138 163.6084,5.1028 163.2504,5.0928 C163.3684,5.2158 163.4924,5.3238 163.9324,5.3968 Z M160.7704,5.0318 C160.8404,5.0278 160.8654,5.0248 160.9304,5.0228 C160.5634,5.0108 160.1944,4.9998 159.8094,4.9878 C159.9594,5.0118 160.2434,5.0298 160.7704,5.0318 Z M191.0614,5.2208 C190.8864,5.2168 190.7374,5.2098 190.6584,5.1898 L191.0614,5.2208 Z M189.7094,5.6008 C191.2674,5.6838 190.9124,5.5178 191.1544,5.3698 C190.6064,5.3888 190.0594,5.4078 189.5184,5.4258 C189.7254,5.4628 189.8274,5.5158 189.7094,5.6008 Z M187.7564,4.3508 C185.0084,4.2948 182.2374,4.1928 179.5974,4.1468 C184.3624,4.8928 187.7124,5.4578 179.7594,5.4428 L179.2394,5.4968 C180.2784,5.5878 182.0714,5.5998 183.7574,5.5458 C185.1224,5.2808 189.5254,4.3088 189.4774,4.2228 C188.9944,4.0148 188.2894,4.2428 187.4104,4.1788 L187.7564,4.3508 Z M13.8514,5.5278 C13.9764,5.4918 14.0754,5.4488 14.1474,5.3968 C14.0724,5.4518 14.1564,5.4868 13.8514,5.5278 Z M147.4084,5.6168 C147.2334,5.6368 147.0524,5.6538 146.8674,5.6708 L147.1494,5.6018 C146.6804,5.5768 146.2154,5.5518 145.7484,5.5238 C145.5794,5.5408 145.3974,5.5558 145.1724,5.5648 C145.2624,5.5558 145.3334,5.5288 145.3764,5.5008 C145.2244,5.4918 145.0764,5.4808 144.9274,5.4708 C143.8134,5.7368 141.0384,5.9308 140.2374,6.0868 C139.1794,6.2008 137.8824,6.2658 137.0694,6.2448 C137.8234,6.2498 138.8234,6.1968 138.5234,6.0498 C136.9934,5.8968 136.2504,5.4558 133.6094,5.8348 L135.1584,5.8288 L131.6764,6.3988 C130.4564,6.1628 133.4144,6.1148 133.8974,5.9088 C131.1894,6.1898 128.9374,5.4388 127.6824,5.9328 C127.5054,5.6398 127.2084,5.1518 125.4314,5.1808 C126.7124,5.5148 124.3664,5.3948 125.4174,5.7528 C124.8034,5.9198 123.4354,5.6468 123.3334,5.8668 L123.4994,5.7448 C120.4654,5.2808 119.4724,6.0078 118.1744,6.2468 C114.5414,6.3668 112.8734,6.1768 109.9104,6.2258 C109.7944,6.0298 108.9874,5.4898 107.7984,5.5108 C107.2464,5.7758 104.5644,5.8988 104.2914,6.2388 C106.4164,6.3818 106.0294,5.9538 107.3024,5.8748 C108.3614,6.2308 107.3984,6.2268 108.8444,6.4408 C107.6764,6.3018 103.5704,6.6258 102.2914,6.2918 L102.7424,6.2448 C100.7024,6.0418 100.3124,5.1998 96.9124,5.7098 L95.2894,5.9178 C95.3684,5.8838 95.3764,5.8438 95.4184,5.8138 C92.7634,5.7778 93.4884,5.3908 90.5564,5.6968 C90.7834,5.6728 90.6404,5.6358 90.8704,5.6128 C89.1994,5.4218 87.5144,5.8058 86.2514,5.8858 C85.4804,5.6018 86.4344,5.6058 86.9114,5.4008 C83.9714,5.2918 80.7994,5.7778 78.9734,6.1238 L77.0784,5.9578 C78.2024,5.8408 79.5754,5.5418 79.2324,5.3698 C78.1904,5.4268 78.3924,5.5608 76.9184,5.5068 C77.1704,5.3248 77.7884,5.1558 78.4814,4.9278 C75.4334,4.6238 77.7994,5.5708 75.6664,5.0138 C74.7084,5.0108 74.1524,5.2758 74.0484,5.4948 L72.3134,5.2078 C72.1204,5.4868 69.9784,5.5028 68.5744,5.5448 C68.4034,5.6658 69.7044,5.8428 70.2364,5.7348 C70.1314,5.9538 68.6384,6.0578 67.6784,6.0528 C67.3264,5.4678 61.3904,6.1368 62.5254,5.4478 C58.2114,5.6378 52.1504,5.6978 49.3034,5.9418 C48.3644,5.7798 46.4504,5.7718 47.5974,5.4968 C44.1244,5.4948 42.3334,6.0958 38.8864,5.9348 C38.6014,5.8618 40.4444,5.9298 40.3224,5.7348 C38.0694,5.9698 36.2224,5.4868 32.7274,5.6438 C33.3154,5.6328 33.4864,5.5118 33.5684,5.4518 C33.6294,5.5488 32.1364,5.6528 31.2324,5.7468 C30.7234,5.6968 31.9094,5.6768 31.6234,5.6018 C24.8714,5.3178 19.7264,6.1138 13.0094,6.0868 C14.9284,6.0948 15.6524,5.7068 15.6734,5.5488 L13.7944,5.5418 C13.0704,5.7348 11.6594,5.7338 10.4794,5.8788 C10.3354,5.8058 9.7614,5.7278 10.3464,5.6368 C6.6344,5.2438 4.5484,6.3448 0.0004,6.1428 L5.5084,5.3608 L4.1454,5.0888 L6.5674,4.7328 C5.1204,4.5188 3.8624,5.0138 3.6884,4.7208 C3.9944,4.6368 4.7304,4.6638 4.7534,4.5048 C3.3654,4.3898 3.2564,4.6088 2.2124,4.6668 C4.9624,4.0688 10.3554,4.0778 13.2574,3.9318 C13.7144,3.8848 12.8664,4.0758 12.7864,4.1368 C13.9704,4.1168 14.6804,4.3028 16.1714,4.1988 C17.0974,3.9468 15.4654,4.0138 14.7304,3.9868 C14.8314,3.7668 15.2014,3.7808 16.0194,3.7478 C16.1974,4.0408 20.5114,3.8508 21.5664,4.2088 C25.9374,4.1168 20.8674,3.4508 25.1344,3.5778 L26.4094,3.9128 C28.8874,3.6538 32.0924,3.4238 34.8954,3.4958 L34.3044,3.5068 C33.9114,3.6498 34.5614,3.7378 34.8494,3.8118 C36.9684,3.9548 38.8724,3.5478 40.1564,3.8838 C42.5724,3.5278 46.6014,3.2628 49.3644,3.0798 C50.1094,3.5218 45.7604,3.4548 44.6104,3.7308 L47.1254,3.7288 C45.5714,3.7348 44.9574,3.9028 44.0254,4.1538 C46.2294,4.2358 46.9544,3.8488 49.0434,3.7368 C48.8814,3.8578 49.1604,3.9318 50.1244,3.9348 L50.3974,3.6418 C50.4154,3.6658 50.5224,3.6878 50.8194,3.7058 L54.5374,3.5278 C53.7484,3.4018 53.7104,3.1458 52.7504,3.1428 C53.0934,3.3138 52.2784,3.3478 51.3174,3.3428 C52.1594,3.1518 50.3794,3.1818 50.4004,3.0228 C52.3274,3.0308 54.6944,2.9918 55.9584,2.9118 L56.3684,3.1818 C58.2054,3.2498 60.1444,3.0988 61.3904,3.1778 L60.9974,3.3218 C63.2004,3.4038 65.3704,3.2298 67.3264,3.4938 C69.2914,3.1848 71.7654,2.9278 73.3724,2.6048 C74.2314,2.2558 79.1384,3.0428 81.3544,2.5518 C81.5034,2.5888 79.8324,2.8138 79.0764,2.9458 C80.5504,2.9998 81.7224,2.5668 82.1844,2.9338 C78.8764,2.8098 82.3614,3.2258 80.8714,3.3308 C82.4204,3.3238 84.0534,3.2578 84.8124,3.1268 C82.3064,3.1288 85.7034,2.6188 83.1654,2.7788 C85.1314,2.4708 87.8144,2.3468 90.1574,2.4668 C90.1344,2.6248 90.4234,2.6988 91.2964,2.7638 L92.0014,2.5348 C93.0974,2.5758 89.8814,2.8058 92.0884,2.8878 C94.3584,2.4958 98.9254,3.1108 99.9204,2.3848 C101.6504,2.6718 96.6264,2.6748 99.2354,3.0268 C97.7174,3.2888 95.6244,2.9888 95.1244,3.3518 C96.6124,3.2478 95.6674,3.6578 96.6264,3.6618 L98.2854,3.4378 L97.9184,3.4238 C100.7024,3.0818 105.1124,3.2458 108.6664,3.1878 C111.6774,2.8218 113.7504,2.2938 117.3614,2.3338 C116.2954,2.5488 120.3604,2.5408 118.0874,2.9338 C119.7584,3.1228 121.4084,2.8988 121.4414,2.7398 C119.9704,2.6858 120.9244,2.6888 119.6854,2.6118 C120.5214,2.4188 122.4484,2.4278 123.2404,2.5538 C122.8734,2.5398 123.0124,2.5758 122.9314,2.6368 C124.6874,2.7658 123.7734,2.4458 125.0414,2.3648 C125.4444,2.6338 127.8434,2.4368 129.0014,2.5758 L130.6814,2.1928 C129.7584,2.4448 132.2914,2.2848 132.5554,2.5168 C133.7604,2.3398 134.7704,2.0278 136.6054,2.0948 C135.8474,2.2268 138.2794,2.2848 138.3114,2.5408 C141.4524,2.7848 143.5134,1.8428 146.4884,2.2088 C146.3964,2.2688 145.7954,2.4368 146.6654,2.5018 C147.3504,2.4298 148.5504,2.4598 149.2824,2.4328 L149.2594,2.4398 C149.2744,2.4368 149.2824,2.4348 149.2984,2.4328 C149.6564,2.4188 149.8824,2.3868 149.8914,2.3248 C151.1454,2.0748 151.7924,1.8188 154.2614,1.6058 C154.0804,1.3138 151.9964,1.4278 151.0934,1.5218 L150.3134,1.8098 C149.5684,1.3688 148.0874,1.8868 147.5194,1.7378 C149.0004,1.2208 153.2654,1.3478 155.8244,1.0288 C154.2644,0.6218 150.8704,0.5578 147.9094,0.6068 L149.2134,0.7828 L147.6644,0.7878 L149.1634,1.0998 C147.6964,1.0448 146.4274,1.1248 145.1014,1.1068 C146.6544,1.1018 147.2594,1.5048 146.3804,1.4408 C144.6494,1.1538 144.5764,1.6288 143.2544,1.6108 C143.9904,1.6378 144.9484,1.6428 144.3314,1.8098 C141.7224,1.4588 141.0184,1.6878 138.6454,1.3118 C138.9394,1.8008 135.6824,1.3608 135.3264,1.7608 L136.4274,1.8018 L134.0924,2.0968 C131.9384,1.6988 136.0004,1.6908 132.7224,1.4098 C129.6974,1.3608 129.7754,1.8738 127.3964,1.9118 C128.1804,1.6228 130.0664,1.3748 131.9854,1.3828 L130.8234,1.2428 C131.4384,1.0758 134.0924,1.1108 135.4174,1.1278 C133.2284,1.4598 136.4414,1.2298 137.4374,1.4898 C137.6204,1.2098 136.2154,1.2538 137.8744,1.0288 C136.3204,1.0348 136.0924,1.0578 134.1154,0.9528 C138.3904,1.0798 137.9594,-0.0182 141.6904,0.2168 C139.9704,0.3428 142.2904,0.6208 142.4974,0.7558 C143.3064,0.7218 144.9484,0.6558 145.6234,0.5858 L145.0124,0.1818 C147.1864,0.0068 147.9414,0.8628 150.4504,0.4458 C150.7764,0.2038 148.2434,0.3638 148.6944,0.3178 C152.1274,0.0638 153.3644,0.7148 156.4124,1.0188 C156.5844,0.8978 156.5494,0.6418 157.6154,0.4278 C157.2804,0.6698 158.0694,0.7938 156.8694,0.9718 C157.8884,1.0748 159.0964,0.8968 159.9954,0.8018 C157.8734,0.6598 160.8634,0.4538 161.2544,0.3078 C162.3534,0.3488 160.9194,0.5498 160.2434,0.6208 C161.1254,0.6848 162.1734,1.0428 162.6744,0.6788 C162.7094,0.9348 160.2084,1.3518 158.5724,1.4178 L159.6754,1.4588 C158.9154,1.5898 158.7734,1.5528 157.6794,1.5128 C158.7504,1.7108 158.6454,1.9288 158.3954,2.1108 C158.2544,2.0738 158.4734,2.0508 158.3394,2.0138 C157.4584,1.9488 156.7814,2.0188 156.9864,2.1548 C156.1934,2.4978 158.2084,2.3698 158.8054,2.5408 C159.2574,2.5178 159.7084,2.4948 160.1504,2.4718 L164.7294,1.3698 C166.6854,1.2418 167.5654,1.5048 169.0344,1.6718 L169.4384,1.3768 C171.1404,1.4068 172.7464,1.5008 171.6554,1.8738 C171.5944,1.7748 171.3694,1.7988 170.9994,1.7848 C170.9514,1.8248 170.8664,1.8528 170.7584,1.8758 C170.7224,1.8938 170.7034,1.9108 170.6734,1.9278 C172.4974,1.8318 173.6354,1.7708 173.7404,1.7588 C170.6444,2.1868 173.5854,2.2938 173.0674,2.8168 L176.1934,2.6468 C174.2984,2.4808 176.1594,2.3908 176.8314,2.3198 C177.0174,2.6138 179.3494,2.3178 180.4464,2.3588 L180.3654,2.4188 C181.3814,2.5208 183.1604,2.4928 184.4264,2.4128 C184.3684,2.3138 185.9924,1.8338 186.7724,1.5438 C184.6004,1.4338 185.8894,1.3168 185.7154,1.1338 C185.9404,1.1508 186.3444,1.1538 186.3914,1.1168 C186.7024,1.0328 185.9694,1.0058 185.9084,0.9078 C183.5994,1.0448 181.2234,1.0838 180.2824,1.4938 C180.9904,1.6798 181.4904,1.3168 182.2834,1.4408 C181.1394,1.7168 179.6634,1.6618 177.7454,1.6538 L177.1164,1.4078 L175.1864,1.5418 C175.9924,1.4118 175.5074,1.1538 177.5324,1.1048 C177.2744,0.8728 175.5234,1.1578 174.2834,1.0798 L173.6494,1.4068 C173.8934,1.2248 171.2384,1.1888 173.1254,0.9408 L176.1934,0.6738 L175.3404,0.4508 L177.9354,0.3878 L177.3224,0.5568 C181.4904,0.3308 178.5514,1.2068 182.7464,0.8208 C184.0594,0.4248 185.4714,0.3828 188.0424,0.4788 C186.1824,0.5678 187.8514,0.7578 187.1514,0.9868 C189.0494,1.1518 189.6894,0.8258 190.6734,0.6718 C191.1574,0.8808 191.5004,1.0518 189.8054,1.0208 C189.5934,1.4588 192.0354,0.9458 192.1904,1.3958 C197.8064,1.3828 196.6904,-0.0592 203.2544,0.5038 L203.0084,0.6848 C207.1764,0.4588 209.5814,0.6758 213.4424,0.5328 L216.4814,0.9958 C215.8014,1.0668 213.9744,1.4118 214.8274,1.6348 C213.3484,1.1668 211.7794,1.3298 210.1864,1.0798 C210.0244,1.2008 210.6724,1.2888 210.9554,1.3638 C209.9944,1.3598 209.5114,1.1498 208.2424,1.2308 C208.3034,1.3278 209.6884,1.4438 208.6444,1.5008 L206.9174,1.2128 C204.6064,1.3498 205.7794,1.9018 203.0654,1.7698 C203.5704,1.5128 204.6004,1.1408 205.6514,1.0798 C204.4114,1.0238 207.3044,0.9248 206.1734,0.7708 C204.3864,1.1518 203.5234,0.8498 201.1484,1.0878 C201.4274,1.0348 201.5014,0.9608 202.0854,0.9368 L198.6384,0.7768 C199.4914,0.9988 195.7914,1.0208 196.1114,1.3518 C199.7854,1.4888 198.7064,1.2888 202.8924,1.4768 C201.7064,1.5518 200.1794,1.8878 199.4624,2.1968 C199.4264,2.1838 199.3664,2.1738 199.2374,2.1678 C198.5974,2.4948 199.2494,2.5828 199.2374,3.1538 C201.1484,2.7478 202.4254,3.0818 204.6794,2.8488 C205.1034,2.5348 203.3714,2.4488 202.2514,2.5298 L204.2374,2.3228 L203.8464,2.4668 L208.8864,2.5718 C207.9314,2.5878 207.6074,2.7698 207.1084,2.9068 C207.7584,2.9188 208.4024,3.0018 209.0874,3.0928 C208.9444,2.7938 209.0344,2.5828 209.6684,2.5878 C212.9114,2.6588 214.7144,2.9278 215.9104,3.2688 C216.0354,3.2618 216.1754,3.2548 216.2884,3.2478 C215.7444,2.9418 218.5914,2.6978 219.5954,2.3848 C219.5464,2.7008 221.2674,2.5748 222.2014,2.7358 C222.6994,2.3728 222.0354,1.8718 220.8974,1.5748 C218.7054,1.9058 219.6694,1.9088 218.6334,2.3808 L215.1154,2.6948 L215.9024,2.4048 C214.1464,2.2778 212.4604,2.6598 212.5894,2.2828 C213.5164,2.0318 215.0484,2.1838 215.9684,1.9318 L214.8074,1.7938 C216.8564,1.4238 215.8574,2.1508 218.3374,1.8928 C217.4254,1.5718 218.5624,1.8698 219.6254,1.6538 C218.7724,1.4308 215.2584,1.7458 216.0034,1.2008 C217.2934,0.9628 220.3434,1.8398 222.0504,1.2978 L221.9664,1.3598 C224.4844,1.4298 225.3694,1.1188 226.3114,0.9228 C227.3824,1.0998 228.8624,0.8508 230.0234,0.8318 L229.9944,0.9898 L231.6334,0.9238 C230.8524,1.2128 229.7134,0.9158 228.3054,0.9578 L228.4814,1.2528 C226.8584,0.9028 225.7764,1.4338 224.5184,1.6878 C226.3494,1.4328 229.6894,1.7598 230.1194,1.1848 L231.2524,1.4818 L231.7934,1.3748 C232.6374,1.5978 231.7764,1.9478 230.1394,2.0138 C229.8554,1.9398 229.7134,1.9028 229.7994,1.8418 C229.0394,1.9728 228.3424,2.2018 226.5044,2.1338 L227.4854,1.9778 C225.1964,1.9568 223.1154,2.0708 222.3324,2.3598 C225.6364,2.4828 228.8854,2.5088 231.9874,2.4958 C232.9024,1.8298 233.9884,1.4568 234.4544,0.8378 C236.5364,0.7238 239.3624,0.6388 241.1704,0.8658 L241.0044,0.9868 C241.8864,1.0508 242.6994,1.0168 243.3774,0.9468 C244.3084,1.1088 242.7394,1.2738 243.3884,1.3618 L246.3694,1.1538 C246.1864,1.4338 243.6774,1.4348 242.4854,1.4548 C242.7104,1.4318 243.1644,1.3848 243.0184,1.3478 C241.6324,1.2318 239.0514,1.7088 238.4454,1.3038 C237.7704,1.3748 239.8174,1.0058 237.5314,0.9838 C236.0004,0.8318 235.5024,1.1948 235.3424,1.3168 C235.3174,1.4748 237.7444,1.5338 236.9024,1.7248 C238.0934,1.7048 238.5684,1.5008 240.0914,1.6528 C238.9104,1.6728 237.3074,1.9938 236.6784,1.7478 C234.3434,2.0438 234.6784,2.7878 235.7794,2.8288 C235.5174,2.5958 240.0384,2.5418 236.9764,2.2368 C238.3524,1.9368 240.8644,1.9348 242.6634,1.7478 L242.5814,1.8078 L244.8154,1.7328 C244.5004,1.8158 243.8254,1.8868 243.8034,2.0448 L246.8964,1.6198 C245.1554,1.9058 247.9764,1.8178 248.7684,1.9438 C249.0994,1.7018 250.3084,1.5238 249.1494,1.3848 C247.8454,1.2088 248.3904,1.5158 247.2054,1.5348 L248.8834,1.1518 L249.0274,1.1898 L250.0374,0.8768 C252.3234,0.8988 249.0384,1.6038 251.9674,1.2978 L251.5864,0.8718 C254.9774,0.9338 259.3324,1.4138 261.7284,1.2178 C261.0674,1.4598 260.7764,1.8508 261.6854,2.0818 C260.6524,2.0078 258.5754,2.0228 257.0934,2.0638 C256.8094,1.9878 258.9454,1.5588 260.5554,1.6508 C259.7754,0.9528 256.5054,2.0728 256.3164,1.3648 C252.2144,1.1178 253.2574,2.0468 249.7754,1.6308 C249.7274,1.9478 248.7854,1.7858 248.6024,2.0648 C249.6334,2.5808 253.2574,2.0468 255.5164,2.2278 C255.2944,2.2508 254.8494,2.2978 254.7624,2.3578 C256.3774,2.4498 257.0454,2.3798 258.1734,2.2628 L258.0314,2.2248 C260.0024,1.9168 259.2514,2.4608 260.4114,2.6008 C260.8604,2.5538 262.4744,2.6448 262.2144,2.4128 L264.3154,2.7128 L264.2144,2.3598 C265.3994,2.3398 265.6594,2.5728 266.7334,2.3578 L266.7824,2.0418 L263.8394,1.9318 C265.3314,1.8288 264.2554,1.6288 265.8944,1.5628 C264.0634,1.9088 267.1894,1.7378 267.3704,2.0318 L268.5754,1.8538 L268.2674,1.9378 C269.2134,2.1008 269.3934,1.8198 270.4984,1.8618 C269.1954,1.6858 268.3424,1.4628 266.6834,1.6878 C267.8914,1.5108 270.2874,1.3138 270.8754,1.3028 C272.1444,1.1708 273.0304,1.4118 274.2174,1.4468 C271.9394,1.5738 275.0144,2.4048 270.4504,2.1778 C270.5344,2.1178 270.9044,2.1308 271.0474,2.1688 C270.4384,1.7648 268.3104,2.1938 267.3214,2.3478 C267.5764,2.5808 266.5414,2.6378 268.2954,2.7668 C267.7204,2.6178 269.7744,2.2488 271.4434,2.4388 L271.1494,2.9368 L273.5804,2.9948 L273.3524,3.0188 C274.2674,3.3388 275.9464,2.9568 277.6194,3.1448 C278.8284,2.9678 283.4634,3.1088 281.4694,2.5878 C282.9714,2.8998 284.2904,2.5028 285.9294,2.4358 L283.8854,2.2328 C286.3014,1.8768 285.6054,2.1068 287.5384,1.5408 C287.7344,1.6768 288.1654,1.7888 287.7724,1.9318 C291.0174,1.9578 295.6524,2.0988 297.5564,1.6918 C299.8444,1.7128 300.2034,2.2988 303.4134,2.0688 C304.0894,1.9988 302.8864,1.6038 305.0114,1.7468 C305.1544,1.7838 302.9654,2.1158 305.3314,2.0768 C307.0174,1.6938 309.2904,2.2878 311.4834,1.9558 C312.6404,2.0938 314.6494,2.0418 314.2314,2.3448 C312.3974,2.2758 309.8024,2.3388 309.4074,2.4838 C309.6604,2.3018 308.1024,2.3068 309.4544,2.1668 C306.6824,1.9368 307.6554,2.3538 305.1684,2.1978 C304.9974,2.3188 306.4464,2.5328 306.9794,2.4248 C306.9914,2.8378 302.0764,2.6248 304.2874,3.1198 C306.9444,3.1558 307.7334,2.2938 310.0364,2.7288 C309.1124,2.9808 307.6694,2.7678 306.4964,3.2018 L308.3884,3.3688 L309.7624,3.0698 L309.6804,3.1308 C313.0234,3.5088 312.7724,2.7048 315.7624,2.4968 C314.0304,2.2098 316.1634,1.7798 314.8594,1.6038 C316.8594,1.5518 318.3284,1.6058 318.3414,2.0198 C314.6004,2.3578 318.1294,2.4578 314.6704,2.8698 C315.2384,3.0188 313.8474,3.4758 315.9084,3.5218 C318.2304,3.2258 315.2134,3.1768 317.5294,3.0398 C317.6664,3.0768 317.8084,3.1148 317.7274,3.1748 C318.7924,2.9598 318.9704,3.2528 320.2594,3.0148 L319.9544,3.0978 C321.5434,3.3488 321.6924,2.8138 323.0604,3.0868 C322.5134,2.7798 323.9794,2.8348 324.8284,2.6438 C323.4414,2.5278 322.6904,2.0868 319.9544,2.1108 C319.6234,2.3538 319.8234,2.4888 318.6994,2.6058 L320.4784,2.5768 C320.0944,2.6168 319.8024,2.6788 319.4504,2.7278 L317.7424,2.6018 C319.9074,2.4288 318.9144,2.1688 319.8354,1.9168 C321.8174,2.0228 321.4704,1.8498 322.7174,1.9288 C322.5914,2.2848 326.5394,2.5368 328.8214,2.7668 C328.4664,2.7528 328.0094,2.7618 327.7624,2.7528 C326.1044,2.9778 328.9034,3.0498 328.9644,3.1478 L330.1724,2.9698 C329.9454,2.9938 329.6304,3.0768 330.1454,3.1278 C331.7814,3.0608 331.6864,2.7078 333.3194,2.6408 C333.4424,2.8368 332.0614,3.1358 333.0764,3.2378 C333.4264,3.4088 334.5414,3.8648 336.7114,3.6918 C336.8654,3.6158 337.4274,3.5738 338.0794,3.5418 C337.9884,3.5518 337.8754,3.5598 337.8344,3.5738 L339.2754,3.7878 C338.0474,4.1228 336.7924,3.6298 335.5584,3.9658 L335.4534,4.2838 C334.4924,4.2848 333.1884,4.4228 332.5894,4.5878 C334.0534,4.6418 334.3614,4.5578 335.9984,4.4918 C336.2284,4.6928 335.0744,4.8428 334.9094,4.8638 L335.1534,4.6828 C333.2004,4.4198 332.2334,4.9878 329.8034,4.9288 C329.4354,4.9158 329.6604,4.8928 329.7414,4.8318 C327.7744,5.1398 325.8434,4.7178 323.9304,5.1248 L324.5544,4.9568 C323.2524,5.0918 320.7054,5.4048 318.1614,5.7078 L318.1404,5.8318 C318.4234,5.9068 317.4684,5.9018 316.9564,5.8518 L316.9584,5.8498 C315.6824,6.0008 314.4564,6.1408 313.4534,6.2448 C313.7744,6.3208 314.1854,6.3848 314.6554,6.4028 C315.0544,6.2578 317.3934,6.3768 317.0724,6.0468 C318.1524,6.2458 319.8934,5.9598 320.6864,6.0848 C319.2404,5.8728 321.6924,5.7738 321.9464,5.5918 C322.4314,5.7998 324.0874,5.5758 323.8984,5.8558 C324.1844,5.9288 323.1894,5.6698 322.5744,5.8378 C321.0604,6.0988 325.3454,6.0678 323.4594,6.3158 C325.8584,6.1188 329.0194,6.2048 331.4934,5.9468 L330.1084,5.8318 C331.2084,5.8728 333.8114,5.8108 334.0064,5.9458 C333.1884,5.9788 332.2334,5.9748 331.1884,6.0318 C331.1374,6.3478 333.7004,6.0298 333.8164,6.2248 L336.8534,5.7008 L335.5234,5.6838 C336.3614,5.4918 339.1424,5.7228 341.2034,5.7678 C340.0204,6.2008 338.0934,5.7788 335.9254,5.9528 C334.3504,6.1168 336.8984,6.3708 335.4074,6.4748 C335.7934,6.5748 336.7664,6.5638 337.2464,6.4548 L337.8344,6.5328 C336.5044,6.9268 333.5224,6.8388 331.5384,7.1778 C331.7124,7.1358 331.8644,7.0908 331.9194,7.0448 C330.3914,6.8928 328.8394,6.8988 327.3494,7.0028 C328.1374,7.1268 328.4494,7.0428 328.8994,6.9968 C328.9554,7.0948 327.5494,7.1368 327.0174,7.2438 C328.4024,7.3588 327.2754,7.4768 328.1524,7.5418 C327.2494,7.6358 326.5184,7.6078 325.4184,7.5668 C324.8484,7.4178 325.8904,7.3618 325.7744,7.1668 C324.6414,7.2838 324.1234,6.8178 322.4654,7.0428 C324.6704,7.1248 321.8844,7.4668 321.1254,7.5978 L321.4944,7.6118 C320.7954,7.8398 320.2024,7.8498 319.7184,7.6408 C320.6214,7.5468 321.4944,7.6118 321.2374,7.3788 C320.6414,7.3888 320.0474,7.3988 319.3724,7.4688 L319.9864,7.3008 L317.0234,7.3498 C316.5544,7.5548 315.7704,7.8448 315.3604,8.1468 C314.6494,7.9608 313.6594,8.1158 312.9854,8.1868 L313.2994,8.1018 C311.9924,7.9268 309.0844,8.0728 308.8394,8.2548 C307.9054,8.0928 315.4394,7.0998 308.8394,7.2678 C306.3304,7.2698 307.2764,7.8468 305.8444,8.0468 C305.8444,8.0468 305.9254,7.9878 305.7834,7.9498 C304.6854,7.9078 304.5744,8.1278 303.6724,8.2208 C304.3304,8.3088 305.2844,8.3128 305.5924,8.2288 C305.2614,8.4708 303.3054,8.2078 302.4634,8.3988 C303.5554,8.0258 300.3414,8.2558 301.1894,8.0648 C299.0054,7.8248 296.6704,8.1198 295.5234,8.3948 C294.0424,7.9268 292.9254,8.4578 290.5204,8.2408 C290.8904,8.2548 291.5604,8.1838 292.0774,8.2348 C293.4484,7.9368 289.5854,8.0788 291.6954,7.8068 C291.2444,7.8538 291.6634,7.9648 292.1264,7.9178 C292.9354,7.8848 293.6984,7.7538 293.4944,7.6188 L291.5344,7.3558 L292.2184,7.2838 L289.2444,6.9198 C289.1634,6.9798 289.4424,7.0538 289.5854,7.0918 C286.1364,6.9318 282.1914,7.1338 279.1694,7.0858 C278.6014,7.9238 271.7284,7.4448 269.2864,7.9598 C269.9414,7.7188 270.2994,7.2948 269.8944,7.1198 C270.4384,7.0848 271.5534,6.7458 272.7884,6.8168 C272.9854,6.9518 274.5114,7.1038 273.5294,7.2578 C276.9424,7.1618 273.0674,6.8898 274.0744,6.5778 C270.2934,6.6598 268.0744,7.1508 265.6874,7.3478 L265.6274,7.2488 L263.8244,7.4368 C265.2974,7.4918 265.2244,7.9668 263.3264,7.8008 L263.5564,7.7778 C262.4744,7.5778 260.2214,7.8128 258.5294,7.7818 L257.3824,8.0568 C255.6884,8.0258 255.6154,7.5138 255.0644,7.2078 C252.4094,7.1718 250.8764,7.5908 248.9904,7.8398 C248.1374,7.6168 244.1594,7.5638 246.2674,7.2938 C243.8714,7.4898 244.3554,8.6858 240.2474,8.0228 L241.3134,7.8078 C237.3854,7.8528 231.7844,8.2808 229.9744,8.0548 C231.4234,7.2818 225.0684,7.2678 224.3704,6.5098 C224.5644,6.6828 223.0894,6.7408 222.8744,6.8328 C222.5504,6.7438 222.0124,6.6578 221.4414,6.8138 C222.9724,6.9668 220.3644,7.6008 223.2924,7.2948 C221.8104,7.8148 219.9014,8.2208 216.6554,8.1948 L216.7044,7.8788 L219.2724,7.9748 C219.0134,7.7418 220.3354,7.7588 220.8774,7.6518 C216.0994,7.4738 221.5024,6.9108 216.6184,6.9528 C216.1464,7.1578 216.4514,7.0728 215.1824,7.1538 C215.7794,7.1438 215.8864,6.9258 214.9244,6.9218 L214.0004,7.1738 C212.2954,6.6468 216.8244,6.8308 215.3684,6.4598 C217.2544,6.2118 220.5214,6.0788 219.9134,5.6748 C216.8334,5.5288 217.1424,6.4308 213.9214,6.2478 L213.5784,6.0758 C212.4464,6.1928 212.2634,6.4718 211.6434,6.6398 C211.5864,6.5418 211.2994,6.4688 210.5714,6.4408 C208.6584,6.8468 207.3894,6.9268 205.6244,7.3698 C210.3214,7.0368 209.6394,7.6788 214.4864,7.3828 C213.7274,7.5138 210.3144,7.6098 210.1054,8.0468 L210.1504,7.7298 C208.5744,7.8948 206.9994,8.0578 205.0194,7.9538 L206.2284,7.7748 C203.6044,7.9958 201.8674,7.2948 199.7964,7.8218 C200.5274,7.8498 201.1214,7.8398 201.5734,7.7918 C200.2224,7.9328 198.5284,7.9018 197.0604,7.8478 L194.0244,8.3708 C194.0504,8.2138 192.1264,8.2038 193.0544,7.9538 C190.8684,7.7128 189.8374,8.1838 188.5744,8.2628 C186.3354,7.9268 190.5134,8.1128 190.7334,7.6758 C187.6484,7.5288 184.3794,7.6618 182.6384,7.9458 C183.2684,8.0098 183.5734,8.0648 183.5414,8.1418 C183.4484,8.0418 182.2054,8.0678 181.5124,8.0648 L181.0364,8.2698 C179.8824,8.1308 180.0444,8.0098 181.0264,7.8548 C179.9234,7.8148 178.6084,8.2108 177.4724,7.9138 C179.3554,7.6668 181.7564,7.8818 182.7374,7.7278 C178.8014,7.9308 178.7764,7.1018 173.7864,7.3628 C173.7244,7.2638 174.5694,7.0728 173.6084,7.0698 C171.3814,7.1458 173.0264,7.4938 172.3314,7.7228 C174.0454,7.5948 174.8434,7.7198 175.8384,7.9798 L175.3804,8.1468 C175.3114,8.0598 174.2344,8.0548 173.9174,7.9718 L173.6404,8.3118 C173.7684,7.9348 172.0454,7.6478 170.6914,7.7888 C172.0594,8.0618 171.6904,8.0478 172.0624,8.4768 C170.1584,8.8828 169.9144,8.0778 167.7804,8.5078 C167.9404,8.3868 169.8034,8.2968 168.1934,8.2038 C166.8614,8.1878 167.0384,8.4808 166.1444,8.5748 C167.1514,8.2608 166.8934,8.0278 167.9834,7.6558 C170.3514,7.6168 168.9384,7.6598 171.2534,7.5228 L169.2944,7.2578 C171.3004,7.2068 170.7534,6.8988 170.9184,6.7788 C167.4924,6.4598 168.3364,7.2558 166.1324,7.1728 C165.0694,7.3878 168.1974,7.2188 166.5344,7.4438 C164.4734,7.3978 166.0644,7.6478 163.7514,7.7848 L164.1384,7.6408 C163.4314,7.4538 162.7324,7.6838 161.9144,7.7148 C161.0144,7.8098 162.9334,8.8058 159.2334,8.8268 C159.4144,8.7388 159.4804,8.6838 159.4804,8.6468 L163.0904,6.0128 C159.3414,6.0188 155.0214,5.9458 150.6794,5.7698 C149.6564,5.2548 153.7784,5.3448 153.5124,5.1128 L155.4924,5.2178 C155.3824,5.4368 151.3434,5.2858 153.1324,5.6718 C156.6294,5.5148 158.2164,5.7658 161.5334,5.3148 C160.5024,4.7988 157.1644,5.4068 155.0064,5.0078 C155.9124,5.0418 156.6774,4.9848 157.4194,4.9108 C155.3934,4.8458 153.2244,4.7738 150.9194,4.6948 L150.4014,4.8188 C151.9554,4.8768 153.0304,4.9208 153.1684,4.9398 C151.1084,4.8948 149.3704,5.1808 149.2344,5.5578 L149.6004,5.5718 L148.8554,5.6888 C148.3724,5.6658 147.8894,5.6418 147.4084,5.6168 Z" id="Fill-118" fill="#2EADEF" mask="url(#mask-4)"></path>
                </g>
                <path d="M336.6119,5.16628 C337.1479,5.05828 338.4719,5.07628 338.2129,4.84328 C338.2449,5.09928 335.8459,4.88228 336.6119,5.16628" id="Fill-121" fill="#38AEEB"></path>
                <path d="M338.1959,5.41648 C338.2889,5.35548 338.2239,5.25748 338.8189,5.24848 L337.1819,5.31348 L338.1959,5.41648 Z" id="Fill-123" fill="#38AEEB"></path>
                <path d="M339.8563,7.16388 C340.7003,6.97288 341.2353,6.86588 342.5593,6.88288 C343.0573,7.50588 340.3913,7.05688 339.7903,7.63888 C342.2183,7.69688 342.9643,7.15288 344.9613,7.09988 C343.9713,6.83988 339.9293,6.68988 339.8563,7.16388" id="Fill-125" fill="#38AEEB"></path>
                <polygon id="Fill-127" fill="#38AEEB" points="338.7778 7.95158 340.1278 7.81058 339.9948 7.77458 338.6438 7.91558"></polygon>
                <path d="M309.5321,2.53368 C309.4111,2.33868 308.5691,2.53068 308.1181,2.57768 C308.4851,2.58968 308.9981,2.64168 309.5321,2.53368" id="Fill-129" fill="#38AEEB"></path>
                <path d="M44.2118,2.33068 L33.9118,2.51868 C36.8748,2.46968 39.6118,2.44468 44.2118,2.33068" id="Fill-131" fill="#38AEEB"></path>
                <path d="M275.3525,3.80768 C278.1185,3.62368 279.3465,3.28768 282.1645,3.20268 C278.4595,2.80968 277.2705,3.81568 274.1595,3.41268 L275.3525,3.80768 Z" id="Fill-133" fill="#38AEEB"></path>
                <path d="M276.3281,2.25258 C276.7861,2.61958 274.1941,2.68258 274.5951,2.95158 C276.4591,2.86258 275.4631,2.60258 277.1551,2.63358 L276.3281,2.25258 Z" id="Fill-135" fill="#38AEEB"></path>
                <polygon id="Fill-137" fill="#38AEEB" points="288.8608 8.32068 288.0218 8.51168 288.6968 8.44168"></polygon>
                <polygon id="Fill-139" fill="#38AEEB" points="263.7233 2.57848 264.0293 2.49548 262.6423 2.37948"></polygon>
                <path d="M264.3346,2.41098 L264.0286,2.49498 L264.3346,2.41098 Z" id="Fill-141" fill="#38AEEB"></path>
                <polygon id="Fill-143" fill="#38AEEB" points="287.7831 9.10858 289.0291 9.18658 289.6461 9.01858"></polygon>
                <path d="M276.7819,7.13878 L277.8969,7.02178 C277.6759,7.04478 276.1499,6.89278 276.7819,7.13878" id="Fill-145" fill="#38AEEB"></path>
                <polygon id="Fill-147" fill="#38AEEB" points="255.254 2.42248 253.897 2.56348 254.036 2.59948 255.388 2.45848"></polygon>
                <path d="M268.0543,8.15078 C268.8243,8.43278 265.8303,8.22678 267.4143,8.47678 C268.8243,8.43278 268.2523,8.28578 268.0543,8.15078" id="Fill-149" fill="#38AEEB"></path>
                <path d="M251.6853,6.23718 C251.5023,6.23718 251.3093,6.24718 251.1233,6.27818 C251.3453,6.26618 251.5303,6.25218 251.6853,6.23718" id="Fill-151" fill="#38AEEB"></path>
                <path d="M251.6853,6.23718 C252.2763,6.23718 252.8673,6.34518 253.2723,6.26318 C252.5353,6.13618 252.2673,6.18418 251.6853,6.23718" id="Fill-153" fill="#38AEEB"></path>
                <path d="M244.9165,6.30288 L245.4525,6.32288 C244.9045,6.46188 245.1645,6.44188 245.6535,6.32988 C246.2205,6.31988 246.1885,6.23088 246.2565,6.16988 C246.3695,6.13588 246.4825,6.09888 246.6055,6.05988 C246.4305,6.09688 246.2735,6.13188 246.1395,6.16188 C245.2605,6.15988 244.7235,6.17388 244.9165,6.30288" id="Fill-155" fill="#38AEEB"></path>
                <path d="M219.772,1.54758 C221.751,1.65258 222.262,1.70358 222.155,1.92258 C224.033,1.99258 223.741,1.61558 224.874,1.52758 C222.749,1.56958 222.314,1.46858 219.772,1.54758" id="Fill-157" fill="#38AEEB"></path>
                <path d="M224.8741,1.52738 C225.1121,1.52338 225.3391,1.51838 225.6161,1.50938 C225.3071,1.50338 225.0771,1.51238 224.8741,1.52738" id="Fill-159" fill="#38AEEB"></path>
                <polygon id="Fill-161" fill="#38AEEB" points="252.8279 8.69778 251.5989 9.03278 252.0499 8.98678"></polygon>
                <path d="M216.8357,1.43718 C217.2027,1.45118 217.7907,1.44118 218.0797,1.51618 C218.1847,1.29618 216.4697,1.42418 216.8357,1.43718" id="Fill-163" fill="#38AEEB"></path>
                <path d="M224.4662,5.73218 C224.6672,5.86618 225.9332,5.78618 226.4482,5.83718 C225.7092,5.80918 225.1062,5.40518 224.4662,5.73218" id="Fill-165" fill="#38AEEB"></path>
                <path d="M211.1597,2.34098 C211.5267,2.35498 212.0907,2.50198 211.8467,2.68398 C212.3797,2.57598 213.1007,2.18998 211.1597,2.34098" id="Fill-167" fill="#38AEEB"></path>
                <polygon id="Fill-169" fill="#38AEEB" points="220.8506 5.69318 221.1326 5.76718 222.4866 5.62618"></polygon>
                <path d="M225.6798,8.92788 C227.2028,8.66688 223.2638,8.29788 225.8868,8.07588 C222.5038,7.80288 226.1458,8.44588 223.6508,8.40388 C225.1118,8.49188 225.8278,8.82288 225.6798,8.92788" id="Fill-171" fill="#38AEEB"></path>
                <path d="M223.6506,8.40378 C223.4386,8.38978 223.2086,8.38278 222.9586,8.38078 C223.2346,8.39378 223.4576,8.39978 223.6506,8.40378" id="Fill-173" fill="#38AEEB"></path>
                <path d="M202.2196,6.74928 C202.4406,6.72128 202.5916,6.69228 202.7316,6.66128 C202.5576,6.68228 202.3906,6.70928 202.2196,6.74928" id="Fill-175" fill="#38AEEB"></path>
                <path d="M215.6807,8.61988 L217.9627,8.22688 C216.4387,8.48788 212.6037,8.47288 212.8427,8.86288 C214.0847,8.94288 215.5787,8.83888 216.1927,8.66988 L215.6807,8.61988 Z" id="Fill-177" fill="#38AEEB"></path>
                <path d="M189.4834,1.53358 L190.4694,1.37858 L189.2384,1.33258 C189.5904,1.39158 188.9524,1.67858 189.4834,1.53358" id="Fill-179" fill="#38AEEB"></path>
                <path d="M189.0001,1.32488 L189.2381,1.33288 C189.1861,1.32388 189.1101,1.31988 189.0001,1.32488" id="Fill-181" fill="#38AEEB"></path>
                <path d="M206.5365,6.56018 C207.2735,6.58718 207.8635,6.57718 208.5365,6.50718 C208.2575,6.43318 206.4205,6.36518 206.5365,6.56018" id="Fill-183" fill="#38AEEB"></path>
                <polygon id="Fill-185" fill="#38AEEB" points="182.5396 2.10198 184.1676 2.03498 182.3916 2.06398"></polygon>
                <polygon id="Fill-187" fill="#38AEEB" points="174.9445 1.43718 174.6635 1.36418 173.3145 1.50418 173.5995 1.57718"></polygon>
                <path d="M184.8779,9.12708 C185.9809,9.16908 186.8429,8.81808 186.5549,8.74408 L184.4149,8.75908 C184.9589,9.06608 185.0089,8.75008 186.2489,8.82808 L184.8779,9.12708 Z" id="Fill-189" fill="#38AEEB"></path>
                <path d="M118.5731,2.01158 C119.0511,1.80658 121.3911,1.92458 121.5141,2.12058 C121.1991,2.20458 119.9311,2.28558 120.7281,2.40958 L122.5791,1.90558 C125.0421,2.21958 120.7071,2.56858 119.4911,2.74558 C122.0001,2.81158 122.7431,2.48058 125.4121,2.48158 C124.6251,2.43658 124.1281,2.31158 123.7121,2.20358 C123.6211,1.84858 126.1081,2.00558 127.8851,1.97758 C126.7541,1.82358 127.4081,1.69358 128.2331,1.55458 C128.3811,1.54358 128.4801,1.52258 128.5501,1.49958 C128.6461,1.48258 128.7371,1.46658 128.8301,1.44958 L128.6161,1.44958 C128.6321,1.41058 128.5841,1.36258 128.4311,1.29658 C126.9391,1.39958 125.7981,1.10358 124.8381,1.09858 C125.7871,1.67558 121.5681,1.23258 120.3601,1.40958 L118.9671,1.46658 L118.4451,1.46758 C118.3411,1.40458 118.4891,1.32458 119.2841,1.21058 C118.6201,1.32458 116.4071,1.28458 116.6121,1.46958 L111.5611,1.47858 C111.4041,1.45458 111.2461,1.42558 111.1301,1.38458 C110.9551,1.42058 110.9261,1.44958 110.9491,1.47958 L88.9441,1.51658 C90.0291,1.56158 90.9691,1.69358 92.0881,1.75758 C90.4081,2.14058 93.9231,1.82658 93.4301,2.18858 C92.6751,2.31958 91.5701,2.27858 90.9121,2.19058 C90.6671,2.37358 91.6051,2.53558 91.4961,2.75358 C94.2721,2.98358 94.6961,2.10858 97.4091,2.24158 C97.3021,2.46058 96.4631,2.65258 98.2391,2.62258 L97.7881,2.66958 C100.6321,2.42458 100.0041,3.16558 101.7941,2.56458 L101.7471,2.88058 C103.0371,2.64258 105.5461,2.64058 106.9611,2.59758 L106.8761,2.65858 C110.8441,2.29658 109.1041,2.58158 113.5591,2.42958 L111.5081,2.79858 C113.0461,2.95158 113.3921,2.55058 114.4951,2.59158 C114.4161,2.65258 114.6721,2.88458 113.6301,2.94158 L119.0361,2.37858 C120.3261,2.14058 118.7741,2.14658 118.5731,2.01158" id="Fill-191" fill="#1FA4E9"></path>
                <path d="M125.4121,2.48208 C125.6981,2.49908 126.0231,2.50608 126.4071,2.49408 C126.0371,2.48408 125.7181,2.48208 125.4121,2.48208" id="Fill-193" fill="#38AEEB"></path>
                <path d="M87.3982,1.51918 L88.9442,1.51618 C88.4652,1.49718 87.9662,1.49118 87.3982,1.51918" id="Fill-195" fill="#38AEEB"></path>
                <path d="M133.1609,1.79138 C132.2239,1.62738 133.8629,1.56238 134.0259,1.44138 L130.6689,1.44638 C130.6839,1.56838 130.3519,1.70538 130.4189,1.81638 L133.1609,1.79138 Z" id="Fill-197" fill="#38AEEB"></path>
                <path d="M129.697,1.21698 C129.583,1.30198 129.228,1.37798 128.83,1.44998 L130.669,1.44698 C130.657,1.35498 130.451,1.27198 129.697,1.21698" id="Fill-199" fill="#38AEEB"></path>
                <polygon id="Fill-201" fill="#38AEEB" points="130.0525 7.72138 129.4575 7.73238 128.5595 7.82638"></polygon>
                <path d="M120.7568,7.18528 C121.4668,7.37028 122.8138,7.22928 123.2638,7.18328 C121.7118,7.18928 122.3848,7.11828 120.7568,7.18528" id="Fill-203" fill="#38AEEB"></path>
                <polygon id="Fill-205" fill="#38AEEB" points="122.6749 9.16558 121.1789 9.26958 121.3179 9.30658"></polygon>
                <path d="M75.9723,2.76428 C75.7273,2.77128 75.4893,2.77628 75.2413,2.78528 C75.5763,2.78628 75.7953,2.77728 75.9723,2.76428" id="Fill-207" fill="#38AEEB"></path>
                <path d="M88.8097,2.46268 C85.2407,2.10768 91.1477,2.16768 90.0267,1.71268 L88.0847,1.86368 L88.2497,1.74168 L85.8817,1.78068 C86.3677,1.98968 86.7327,2.00268 86.6267,2.22268 C83.4657,2.13668 85.6297,1.96268 83.3107,1.68568 L79.7767,1.72568 L80.0627,1.65968 C79.7647,1.66468 79.6337,1.69168 79.5307,1.72768 L67.6217,1.86468 C65.4547,2.03868 68.8197,2.25868 67.2217,2.58168 C69.7327,2.58068 73.4647,2.81368 73.6787,2.37668 C73.5937,2.43668 73.4277,2.55768 73.9367,2.60968 L75.3897,2.24968 L74.0047,2.13468 C75.4647,1.77568 80.1817,1.85568 81.0347,2.07868 C78.3517,2.20068 79.6987,2.63268 75.9617,2.39768 C76.1297,2.50868 76.8137,2.70368 75.9727,2.76468 C80.3507,2.63768 84.2747,2.83668 88.8097,2.46268" id="Fill-209" fill="#1FA4E9"></path>
                <path d="M44.8931,2.67338 L44.9281,2.63338 C44.8491,2.65538 44.8231,2.67038 44.8931,2.67338" id="Fill-211" fill="#38AEEB"></path>
                <path d="M46.3624,2.72748 L48.4964,2.29848 L45.1694,2.33348 L44.9274,2.63348 C45.2214,2.55748 46.3884,2.40548 46.8404,2.52248 L46.3624,2.72748 Z" id="Fill-213" fill="#38AEEB"></path>
                <path d="M50.9744,2.03958 C49.2564,2.16758 49.3494,2.52158 50.2864,2.68258 C48.7084,2.84658 49.4544,2.30258 48.3674,2.67558 C48.4034,2.93158 50.3474,2.78158 50.7944,2.73458 L50.9744,2.03958 Z" id="Fill-215" fill="#38AEEB"></path>
                <polygon id="Fill-217" fill="#38AEEB" points="63.6516 2.22588 63.1686 2.37288 64.3586 2.41188"></polygon>
                <path d="M63.1685,2.37258 L61.9865,2.33358 C62.0685,2.44258 62.1495,2.54858 62.3425,2.62258 L63.1685,2.37258 Z" id="Fill-219" fill="#38AEEB"></path>
                <path d="M58.8865,2.23118 C58.3865,2.20418 57.8325,2.18518 57.1595,2.17518 L58.8865,2.23118 Z" id="Fill-221" fill="#38AEEB"></path>
                <path d="M60.2377,2.32128 L60.1977,2.27528 L58.8867,2.23128 C59.3697,2.25928 59.8027,2.28928 60.2377,2.32128" id="Fill-223" fill="#38AEEB"></path>
                <path d="M61.9868,2.33338 C61.7948,2.08538 61.5698,1.82438 59.8618,1.89438 L60.1978,2.27538 L61.9868,2.33338 Z" id="Fill-225" fill="#38AEEB"></path>
                <polygon id="Fill-227" fill="#38AEEB" points="111.7938 8.79218 110.4428 8.93218 110.5858 8.97118 111.9358 8.83018"></polygon>
                <path d="M103.9971,8.56558 C103.6631,8.60958 103.4101,8.65458 103.1801,8.70158 C103.5321,8.67458 103.8111,8.63358 103.9971,8.56558" id="Fill-229" fill="#38AEEB"></path>
                <path d="M98.201,10.25908 C96.612,10.00908 100.394,9.92908 97.45,9.81908 C97.191,9.58608 98.571,9.28708 99.956,9.40208 C99.847,9.62108 98.606,9.54308 99.458,9.76508 C100.378,9.51308 100.729,9.68508 100.408,9.35608 C101.956,9.15008 102.129,8.91608 103.18,8.70208 C101.308,8.84708 97.378,8.50908 95.002,8.93108 C93.692,9.32708 94.487,9.86808 94.481,10.43908 C94.679,10.57408 98.073,10.63808 98.201,10.25908" id="Fill-231" fill="#2EADEF"></path>
                <g id="Group-235" transform="translate(100.000000, 9.842180)">
                    <mask id="mask-6" fill="white">
                        <use xlink:href="#path-5"></use>
                    </mask>
                    <g id="Clip-234"></g>
                    <path d="M0.702,0.9875 C1.437,1.0155 1.662,0.9925 2.114,0.9455 C1.992,0.7495 1.296,0.9785 0.702,0.9875" id="Fill-233" fill="#38AEEB" mask="url(#mask-6)"></path>
                </g>
                <path d="M83.7975,6.52408 C83.6565,6.60508 82.3265,6.70608 82.6125,6.84708 L84.6295,6.74408 C84.1565,6.73008 83.9895,6.63108 83.7975,6.52408" id="Fill-236" fill="#38AEEB"></path>
                <path d="M85.5146,6.70008 L84.6296,6.74408 C84.8506,6.75108 85.1246,6.74008 85.5146,6.70008" id="Fill-238" fill="#38AEEB"></path>
                <path d="M83.7014,6.47328 C83.7334,6.49028 83.7614,6.50728 83.7974,6.52428 C83.8254,6.50628 83.8204,6.48928 83.7014,6.47328" id="Fill-240" fill="#38AEEB"></path>
                <path d="M53.9904,2.08898 C54.0184,1.93198 53.1204,2.02598 52.6684,2.07198 C53.0354,2.08498 53.5504,2.13698 53.9904,2.08898" id="Fill-242" fill="#38AEEB"></path>
                <path d="M20.1447,2.70628 L19.3507,2.58128 C19.6317,2.65628 19.7747,2.69328 20.1447,2.70628" id="Fill-244" fill="#38AEEB"></path>
                <path d="M7.9041,6.99318 C7.8811,7.02418 7.8231,7.04918 7.7431,7.07318 C7.8231,7.05418 7.8781,7.02818 7.9041,6.99318" id="Fill-246" fill="#38AEEB"></path>
                <path d="M7.7433,7.07328 C7.2003,7.20428 5.5253,7.00028 4.9223,7.19928 L4.9993,7.13928 L3.8783,7.25628 C4.9293,7.23928 7.1353,7.26328 7.7433,7.07328" id="Fill-248" fill="#38AEEB"></path>
            </g>
        </g>
    </g>
</svg>