<?xml version="1.0" encoding="utf-8"?>
<!-- Generator: Adobe Illustrator 23.0.4, SVG Export Plug-In . SVG Version: 6.00 Build 0)  -->
<!DOCTYPE svg PUBLIC "-//W3C//DTD SVG 1.1//EN" "http://www.w3.org/Graphics/SVG/1.1/DTD/svg11.dtd" [
	<!ENTITY ns_extend "http://ns.adobe.com/Extensibility/1.0/">
	<!ENTITY ns_ai "http://ns.adobe.com/AdobeIllustrator/10.0/">
	<!ENTITY ns_graphs "http://ns.adobe.com/Graphs/1.0/">
	<!ENTITY ns_vars "http://ns.adobe.com/Variables/1.0/">
	<!ENTITY ns_imrep "http://ns.adobe.com/ImageReplacement/1.0/">
	<!ENTITY ns_sfw "http://ns.adobe.com/SaveForWeb/1.0/">
	<!ENTITY ns_custom "http://ns.adobe.com/GenericCustomNamespace/1.0/">
	<!ENTITY ns_adobe_xpath "http://ns.adobe.com/XPath/1.0/">
]>
<svg version="1.1" id="Calque_1" xmlns:x="&ns_extend;" xmlns:i="&ns_ai;" xmlns:graph="&ns_graphs;"
	 xmlns="http://www.w3.org/2000/svg" xmlns:xlink="http://www.w3.org/1999/xlink" x="0px" y="0px" width="256px" height="382px"
	 viewBox="0 0 256 382" style="enable-background:new 0 0 256 382;" xml:space="preserve">
<style type="text/css">
	.st0{opacity:0.8;}
	.st1{opacity:0.8;fill-rule:evenodd;clip-rule:evenodd;fill:#1FA4E9;enable-background:new    ;}
	.st2{fill-rule:evenodd;clip-rule:evenodd;fill:#F47820;}
	.st3{opacity:0.8;fill:#F6BF32;enable-background:new    ;}
</style>
<metadata>
	<sfw  xmlns="&ns_sfw;">
		<slices></slices>
		<sliceSourceBounds  bottomLeftOrigin="true" height="382" width="256" x="0" y="0"></sliceSourceBounds>
	</sfw>
</metadata>
<g transform="translate(-3)" class="st0">
	<path class="st1" d="M204,0l37,11l-26.1,26L204,0z"/>
	<circle class="st2" cx="253" cy="347" r="6"/>
</g>
<path class="st3" d="M28.3,382C12.7,382,0,369.3,0,353.7s12.7-28.3,28.3-28.3s28.3,12.7,28.3,28.3S44,382,28.3,382z M28.3,330.5
	c-12.8,0-23.2,10.4-23.2,23.2c0,12.8,10.4,23.2,23.2,23.2s23.2-10.4,23.2-23.2C51.5,340.9,41.1,330.5,28.3,330.5z"/>
</svg>
