<?xml version="1.0" encoding="UTF-8"?>
<svg width="1428px" height="1786px" viewBox="0 0 1428 1786" version="1.1" xmlns="http://www.w3.org/2000/svg" xmlns:xlink="http://www.w3.org/1999/xlink">
    <!-- Generator: Sketch 50.2 (55047) - http://www.bohemiancoding.com/sketch -->
    <title>bg</title>
    <desc>Created with Sketch.</desc>
    <defs>
        <polygon id="path-1" points="0.4603 0.00356047224 8 0.00356047224 8 5.1388 0.4603 5.1388"></polygon>
        <polygon id="path-3" points="0.863220518 0.6372 31.4687 0.6372 31.4687 17 0.863220518 17"></polygon>
        <polygon id="path-5" points="0 0.789112019 265.3798 0.789112019 265.3798 44.1323 0 44.1323"></polygon>
        <polygon id="path-7" points="0.3237 0.333468364 1.4217 0.333468364 1.4217 1 0.3237 1"></polygon>
    </defs>
    <g id="Page-1" stroke="none" stroke-width="1" fill="none" fill-rule="evenodd">
        <g id="Liste-de-recherche" transform="translate(0.000000, -161.000000)">
            <g id="bg" transform="translate(-12.000000, 161.000000)">
                <g id="Page-1" stroke-width="1" fill-rule="evenodd" transform="translate(737.000000, 71.000000)">
                    <g id="Group-3" transform="translate(272.000000, 14.211000)">
                        <mask id="mask-2" fill="white">
                            <use xlink:href="#path-1"></use>
                        </mask>
                        <g id="Clip-2"></g>
                        <path d="M1.1013,3.9558 C1.7353,3.7878 2.2873,4.7198 2.0493,5.1388 C3.3403,4.0088 3.3673,5.2948 3.5353,3.1058 C4.3633,2.0318 5.2473,3.5188 4.3043,4.4068 L6.6933,3.0678 L5.2653,2.7268 C5.6543,0.9078 7.5473,3.2718 8.0003,1.1498 L5.4143,1.3268 L5.5433,0.7238 C4.9553,1.3738 3.8113,1.1018 3.4123,0.8478 C3.4753,0.5468 3.4353,0.0598 3.8913,0.0078 C0.7693,-0.1312 3.0503,3.1898 0.4603,3.7948 C0.6223,3.7498 0.8233,3.7758 1.1013,3.9558" id="Fill-1" fill="#FF0217" mask="url(#mask-2)"></path>
                    </g>
                    <path d="M270.4492,13.7136 L269.3602,15.9946 L267.5332,15.4056 C267.5122,16.1936 266.1812,16.8296 267.0832,17.5226 C267.2592,17.4006 267.6072,17.1656 267.8882,17.2376 C267.6842,18.9396 265.4592,18.0866 265.9962,19.8106 C267.4402,19.3596 267.6622,19.7326 268.5522,18.3496 C269.8762,18.5096 270.8412,18.9006 271.4592,19.5206 C271.8532,19.2636 271.9082,18.2196 272.4072,18.0116 C272.2972,18.0376 272.1952,18.0636 272.0682,18.0766 L272.0142,15.5166 C271.5972,16.0566 271.2042,15.8006 270.7412,15.8556 L272.8802,12.8646 C272.1902,10.4686 270.0892,11.8756 269.2502,10.8796 C270.2912,13.0356 268.4202,11.9506 270.4492,13.7136" id="Fill-4" fill="#FF0217"></path>
                    <path d="M272.4075,18.0117 C272.4215,18.0107 272.4445,18.0067 272.4605,18.0057 C272.4445,18.0067 272.4215,18.0067 272.4075,18.0117" id="Fill-6" fill="#FF0217"></path>
                    <path d="M112.6243,32.9046 C112.1693,32.9506 112.0353,33.5546 111.9693,33.8606 L117.0893,33.8126 C116.9293,33.1396 115.4543,32.3066 116.4403,31.9056 C116.0003,31.1626 114.6623,31.7986 114.4683,32.7056 L114.8393,31.6806 C113.6593,32.9946 112.8533,30.4136 113.6233,29.6386 L113.5233,29.6526 L110.2563,34.7066 C111.4563,35.0016 111.1803,32.9676 112.6243,32.9046" id="Fill-8" fill="#FF0217"></path>
                    <path d="M7.4812,30.333 C8.1452,30.1 8.2262,29.856 8.1512,29.607 C7.9132,29.795 7.6872,30.012 7.4812,30.333" id="Fill-10" fill="#FF0217"></path>
                    <path d="M109.4927,35.8929 L108.4697,37.4739 C108.8787,37.0469 109.2397,36.4789 109.4927,35.8929" id="Fill-12" fill="#FF0217"></path>
                    <path d="M116.5823,11.835 C116.5843,11.752 116.5953,11.677 116.5683,11.564 L116.1093,12.373 L116.1203,12.373 C116.2903,12.194 116.4423,12.015 116.5823,11.835" id="Fill-14" fill="#FF0217"></path>
                    <path d="M86.2634,41.835 C86.1534,41.876 86.0584,41.893 85.9274,41.946 C86.0494,41.935 86.1604,41.891 86.2634,41.835" id="Fill-16" fill="#FF0217"></path>
                    <path d="M130.4509,2.7948 L128.1749,4.3158 C128.4779,3.5958 127.3799,3.8118 127.8599,2.9718 C127.6859,3.0868 126.8729,3.3728 127.0949,3.7428 L127.5589,3.6968 C126.3589,5.7948 127.0859,6.6008 125.0959,8.1998 C126.3309,9.4448 126.8729,8.3048 127.5269,7.3498 C127.7489,7.2038 127.9349,7.1388 128.1229,7.0588 L130.0159,4.1258 L130.4509,2.7948 Z" id="Fill-18" fill="#FF0217"></path>
                    <path d="M39.1982,18.4188 L39.2232,18.2558 C39.2002,18.3128 39.1962,18.3668 39.1982,18.4188" id="Fill-20" fill="#FF0217"></path>
                    <path d="M39.3228,17.583 L39.2228,18.256 C39.3448,17.921 39.8138,17.598 39.3228,17.583" id="Fill-22" fill="#FF0217"></path>
                    <path d="M109.8687,34.5336 C109.8377,34.9236 109.7067,35.4006 109.4927,35.8926 L110.2567,34.7066 C110.1477,34.6826 110.0047,34.6016 109.8687,34.5336" id="Fill-24" fill="#FF0217"></path>
                    <path d="M111.606,29.9508 L113.523,29.6528 L114.23,28.5638 C113.496,28.9748 112.638,29.2568 111.606,29.9508" id="Fill-26" fill="#FF0217"></path>
                    <g id="Group-30" transform="translate(77.000000, 33.211000)">
                        <mask id="mask-4" fill="white">
                            <use xlink:href="#path-3"></use>
                        </mask>
                        <g id="Clip-29"></g>
                        <path d="M12.2917,9.8582 C8.3197,10.1802 13.2677,7.3882 11.4427,6.7932 C10.3397,7.0842 9.9507,8.2552 9.2637,8.6242 C12.4137,7.6222 8.8357,12.4862 12.0127,11.8642 C11.5617,13.9862 9.7217,14.1762 8.6437,13.6012 C7.4237,11.5582 9.7097,12.1042 9.9867,10.1012 C8.7117,10.4342 8.9367,10.8062 8.3957,11.9452 C6.3937,11.4712 4.2537,14.4582 3.0577,11.6242 C1.6087,12.0752 1.7047,13.0522 0.8717,14.1292 C0.7057,16.3162 3.0257,15.2772 3.5627,17.0002 C3.4517,16.8152 3.2347,16.4452 3.2977,16.1382 L4.5507,16.5992 C3.3617,15.8362 4.7157,14.4132 5.3517,14.2422 C5.8137,14.1952 6.7327,14.0992 6.6057,14.7032 L5.9067,15.1742 C6.8077,15.8652 7.8947,13.5782 8.8457,14.7632 C8.8957,15.2542 8.5357,15.4862 8.4807,15.7892 C9.5467,14.2952 10.5757,14.3842 12.1537,13.3272 L11.2387,15.4962 C12.5007,13.0952 15.3597,13.7772 17.3407,15.0442 C17.1207,14.6772 16.7247,14.4182 16.9627,14.0002 C18.1267,13.4822 19.0057,14.9702 18.4667,16.1122 C19.6027,14.3122 22.7977,17.6272 24.3467,15.2892 L31.4687,4.2632 C31.2027,4.5392 30.9167,4.7642 30.6227,4.8582 C29.9757,2.9562 29.6267,3.1862 30.7607,1.3912 C29.6467,2.3982 30.0727,3.9282 28.3997,4.0072 C29.0557,3.0482 29.2217,0.8622 27.6187,0.6372 C23.6107,2.5402 20.9547,7.9542 17.2117,10.7212 C17.0737,9.2542 14.1347,9.6652 12.7067,9.3202 C13.2517,7.7462 14.3117,7.2962 15.4117,6.9772 C14.7207,6.8782 13.5327,6.8362 12.6507,6.7672 L12.2917,9.8582 Z" id="Fill-28" fill="#FF0217" mask="url(#mask-4)"></path>
                    </g>
                    <path d="M98.5979,38.1372 C98.4979,38.0062 98.3939,37.9322 98.2879,37.8632 C98.3439,37.9852 98.4369,38.0792 98.5979,38.1372" id="Fill-31" fill="#FF0217"></path>
                    <path d="M92.7466,40.2348 C92.7606,40.1788 92.7556,40.1358 92.7606,40.0758 C92.6446,40.1088 92.5296,40.1528 92.4116,40.1888 C92.5296,40.1998 92.6636,40.2178 92.7466,40.2348" id="Fill-33" fill="#FF0217"></path>
                    <path d="M108.9294,31.2216 C109.1674,30.8006 109.3434,30.6846 109.5814,30.2626 C109.4344,30.4056 109.2504,30.5196 109.0744,30.6446 C108.9054,30.8436 108.8254,31.0426 108.9294,31.2216" id="Fill-35" fill="#FF0217"></path>
                    <path d="M109.7312,33.801 L109.6042,34.405 C109.7062,34.472 109.7782,34.487 109.8682,34.534 C109.8962,34.209 109.8662,33.937 109.7312,33.801" id="Fill-37" fill="#FF0217"></path>
                    <path d="M74.1143,29.7993 L73.7333,30.1183 C73.9633,30.0933 74.0623,29.9643 74.1143,29.7993" id="Fill-39" fill="#FF0217"></path>
                    <path d="M84.8674,40.5768 C86.2484,40.4348 85.0324,38.3878 86.9864,38.3768 L86.4134,38.2428 C87.8154,37.3068 90.2794,37.7368 91.9454,37.6598 C91.7574,38.5328 92.9554,38.7218 92.7604,40.0758 C93.8994,39.7568 95.0264,39.4568 95.6134,38.0578 C96.3194,38.5168 97.3904,37.2848 98.2874,37.8628 C97.9094,37.0438 99.5644,35.0918 97.3814,36.0938 C97.5584,35.9818 97.4474,35.7948 97.6214,35.6788 C96.2154,34.5378 95.6514,36.4748 94.4404,36.5018 C93.7164,35.6938 95.6244,35.1968 94.9414,34.8728 C93.4284,35.6258 90.1944,33.8988 90.2944,36.9418 C89.1944,37.1568 89.0424,36.4858 88.7144,35.9288 C86.9724,39.1708 82.2524,34.5378 82.2674,38.6828 C82.9034,38.5188 83.9394,38.6068 84.8724,37.7198 L84.8674,40.5768 Z" id="Fill-41" fill="#FF0217"></path>
                    <path d="M106.6099,31.4346 C106.5249,31.4146 106.4119,31.4286 106.3409,31.3926 C106.4209,31.4146 106.5189,31.4286 106.6099,31.4346" id="Fill-43" fill="#FF0217"></path>
                    <path d="M122.3291,43.9782 L121.2781,43.7262 C121.5271,44.1452 121.9191,44.1312 122.3291,43.9782 M124.0411,43.4452 L123.4631,46.1562 C120.1741,46.8032 118.9851,46.0432 116.1091,46.1492 C115.8891,45.7782 116.2381,45.5432 116.4151,45.4232 C114.3931,45.7382 111.3681,45.1692 109.8961,46.4142 C109.2531,46.3932 107.5641,45.5312 108.2031,44.7352 C107.8901,44.9742 107.5321,45.2072 107.1731,45.1202 C107.0771,44.1452 107.9781,44.8412 107.9991,44.0432 C107.7131,43.9782 107.6021,43.7892 107.5361,44.0962 C108.0171,43.2582 107.0381,40.7912 109.2781,40.8532 C110.1451,43.1292 107.7241,41.1182 108.2361,43.6282 C108.9791,43.6452 108.8931,42.6732 108.9561,42.3672 C109.9031,42.4232 109.8781,43.0542 109.8281,43.6282 C110.1911,42.8482 111.3811,43.9322 111.8821,42.7502 C113.7231,42.5552 111.7821,44.6362 112.9841,44.6072 L113.6771,42.0632 L115.6761,42.5432 C118.5701,41.6492 115.2621,38.1492 118.5701,36.7112 C118.1351,38.0382 119.4621,40.2682 121.0021,40.7992 C120.0801,40.8922 118.3781,42.5492 117.1891,41.7952 C118.8651,43.7862 114.8811,42.0332 115.7521,44.3132 C116.5801,43.2352 117.9611,43.0892 119.0391,43.6712 L118.6851,43.9052 C119.8311,44.1752 120.6981,41.5162 122.2791,42.5312 C123.0651,42.4492 122.9181,43.1692 122.7801,43.7632 C123.4441,43.3812 124.0381,42.8832 124.0411,43.4452" id="Fill-45" fill="#FF0217"></path>
                    <path d="M255.75,14.0433 C255.854,14.1113 255.975,14.1783 256.069,14.2503 C255.999,14.1313 255.878,14.0793 255.75,14.0433" id="Fill-47" fill="#FF0217"></path>
                    <path d="M162.467,13.0692 L163.076,13.1522 C162.838,13.0652 162.643,13.0542 162.467,13.0692" id="Fill-49" fill="#FF0217"></path>
                    <path d="M176.1299,4.6692 L177.0189,4.0762 C176.6679,4.1132 176.3929,4.3492 176.1299,4.6692" id="Fill-51" fill="#FF0217"></path>
                    <path d="M248.4912,13.8684 L248.4612,13.8504 C248.4112,13.8924 248.3742,13.9494 248.3212,13.9854 L248.4912,13.8684 Z" id="Fill-53" fill="#FF0217"></path>
                    <path d="M203.5327,10.6185 C203.6687,10.8335 203.8207,11.0285 204.0287,11.1785 C204.0037,10.9265 203.8187,10.7465 203.5327,10.6185" id="Fill-55" fill="#FF0217"></path>
                    <path d="M175.9663,4.7796 C175.9893,4.8026 176.0023,4.8106 176.0203,4.8276 C176.0543,4.7746 176.0923,4.7166 176.1303,4.6696 L175.9663,4.7796 Z" id="Fill-57" fill="#FF0217"></path>
                    <path d="M156.4487,5.6526 C156.3177,5.7346 156.1987,5.7946 156.0587,5.9046 C156.2427,5.8556 156.3547,5.7616 156.4487,5.6526" id="Fill-59" fill="#FF0217"></path>
                    <path d="M157.3069,12.8604 C157.1669,12.9244 157.0329,13.0044 156.9279,13.1134 L157.3069,12.8604 Z" id="Fill-61" fill="#FF0217"></path>
                    <path d="M136.2559,7.9188 L135.4369,8.2838 C135.8389,8.2428 136.0799,8.1008 136.2559,7.9188" id="Fill-63" fill="#FF0217"></path>
                    <path d="M155.1377,11.1972 C155.0897,11.3132 155.0427,11.4272 155.0107,11.5432 C155.1237,11.4632 155.1777,11.3132 155.1377,11.1972" id="Fill-65" fill="#FF0217"></path>
                    <path d="M260.958,21.6225 C260.939,21.6225 260.919,21.6315 260.908,21.6315 L260.887,21.9275 L260.958,21.6225 Z" id="Fill-67" fill="#FF0217"></path>
                    <path d="M262.9507,17.9193 C263.1857,17.8413 263.4297,17.7753 263.6707,17.7093 C263.4037,17.6933 263.1427,17.7733 262.9507,17.9193" id="Fill-69" fill="#FF0217"></path>
                    <path d="M215.4377,14.709 C215.6547,15.077 216.1637,15.517 215.9267,15.937 C216.3417,15.406 216.3137,14.119 215.4377,14.709" id="Fill-71" fill="#FF0217"></path>
                    <path d="M256.9626,37.5381 C257.0936,37.1941 257.2556,36.9311 257.4186,36.6731 C257.1156,37.0441 256.8486,37.3501 256.9626,37.5381" id="Fill-73" fill="#FF0217"></path>
                    <path d="M257.4187,36.6729 C257.5687,36.4889 257.7287,36.2989 257.8627,36.0999 C257.7067,36.2629 257.5567,36.4569 257.4187,36.6729" id="Fill-75" fill="#FF0217"></path>
                    <path d="M209.9177,35.8125 C209.8637,35.6385 209.7797,35.4945 209.6667,35.4495 C209.6997,35.7945 209.7907,35.8685 209.9177,35.8125" id="Fill-77" fill="#FF0217"></path>
                    <path d="M264.2527,18.1164 C264.3817,17.5114 267.5127,16.1934 264.8787,15.8834 C264.9807,13.9984 266.5687,15.0104 267.2707,14.5434 C266.7607,14.1014 267.5247,13.3334 267.3697,12.6574 C267.0217,12.8874 266.6077,13.4294 266.0317,13.2944 C265.7667,12.4324 266.6407,11.8474 267.3227,12.1694 C266.4827,11.1734 268.3887,10.6734 267.1997,9.9104 C264.6577,10.5754 262.8607,11.2614 261.0737,14.0174 C262.5227,13.5634 264.1437,13.0004 265.3317,13.7594 L264.8327,15.3924 C263.4887,13.9574 262.6597,15.0274 261.3387,14.8764 L264.3067,15.7424 C265.6967,17.1014 264.7667,17.4134 263.6707,17.7094 C263.9407,17.7294 264.1837,17.8274 264.2527,18.1164" id="Fill-79" fill="#FF0217"></path>
                    <path d="M262.2527,32.4366 L262.3027,32.4826 C262.3467,32.4246 262.3997,32.3876 262.4277,32.3186 L262.2527,32.4366 Z" id="Fill-81" fill="#FF0217"></path>
                    <path d="M136.4072,40.9452 L136.1522,41.5622 C136.3652,41.2832 136.4302,41.0912 136.4072,40.9452" id="Fill-83" fill="#FF0217"></path>
                    <path d="M260.4824,24.5316 L260.4844,24.5316 C260.4644,24.5496 260.4594,24.5496 260.4824,24.5316" id="Fill-85" fill="#FF0217"></path>
                    <path d="M142.75,41.0712 C142.741,41.1132 142.732,41.1612 142.716,41.2112 C142.739,41.1612 142.739,41.1132 142.75,41.0712" id="Fill-87" fill="#FF0217"></path>
                    <path d="M144.4456,5.8812 C144.4336,5.8062 144.4306,5.7352 144.4026,5.6602 C144.2676,5.7512 144.3326,5.8282 144.4456,5.8812" id="Fill-89" fill="#FF0217"></path>
                    <path d="M142.7546,40.9188 C142.7546,40.9678 142.7586,41.0168 142.7496,41.0708 C142.7546,41.0168 142.7656,40.9658 142.7546,40.9188" id="Fill-91" fill="#FF0217"></path>
                    <path d="M173.5974,34.9269 C173.5974,34.9269 173.5004,34.6449 173.3464,34.3759 C173.2874,34.5279 173.3464,34.7049 173.5974,34.9269" id="Fill-93" fill="#FF0217"></path>
                    <path d="M167.509,32.5113 C167.47,32.4513 167.448,32.3973 167.398,32.3313 L167.509,32.5113 Z" id="Fill-95" fill="#FF0217"></path>
                    <path d="M213.998,7.3593 C213.696,7.3353 213.471,7.3763 213.28,7.4453 C213.499,7.4873 213.737,7.4813 213.998,7.3593" id="Fill-97" fill="#FF0217"></path>
                    <path d="M142.7158,41.211 C142.6528,41.383 142.5618,41.562 142.4128,41.782 C142.5768,41.547 142.6638,41.367 142.7158,41.211" id="Fill-99" fill="#FF0217"></path>
                    <path d="M182.8801,26.6826 C182.8151,26.7466 182.7541,26.8066 182.6931,26.8616 C182.7301,26.8926 182.7671,26.9076 182.8041,26.9436 L182.8801,26.6826 Z" id="Fill-101" fill="#FF0217"></path>
                    <path d="M186.0574,27.8832 C185.9494,28.0692 185.8994,28.2612 185.8384,28.4292 C186.9724,27.7502 189.0554,28.4872 189.3024,26.7512 C188.9174,26.7952 186.9224,25.7742 187.2624,24.7572 C186.4724,25.1912 185.3034,23.9742 184.8774,24.2592 C186.1754,25.2092 185.0184,25.7242 184.1414,26.3102 C183.3454,25.8032 184.2914,24.9132 183.6054,24.5912 L181.7624,24.7832 L183.3684,25.0132 L182.8804,26.6822 C182.9394,26.6252 182.9804,26.5892 183.0444,26.5232 C185.7604,25.7462 183.2744,28.9682 186.0574,27.8832" id="Fill-103" fill="#FF0217"></path>
                    <path d="M185.8381,28.4289 C185.6681,28.5339 185.5191,28.6619 185.4031,28.8399 C185.6591,28.8129 185.7591,28.6429 185.8381,28.4289" id="Fill-105" fill="#FF0217"></path>
                    <path d="M196.9382,31.1826 C197.0782,31.1256 197.2292,31.0476 197.4192,30.9176 C197.3282,30.9826 197.1182,31.0616 196.9382,31.1826" id="Fill-107" fill="#FF0217"></path>
                    <path d="M115.5928,28.8396 C115.6408,29.3316 117.2238,30.3446 117.1948,29.0606 C116.7258,28.9326 116.2518,28.7986 115.7768,28.6566 L115.5928,28.8396 Z" id="Fill-109" fill="#FF0217"></path>
                    <path d="M227.1758,23.7216 C226.9998,23.6826 226.8228,23.6686 226.6458,23.6886 C226.6078,23.7516 226.5708,23.8236 226.5428,23.8876 C226.6508,24.0766 226.9998,23.8416 227.1758,23.7216" id="Fill-111" fill="#FF0217"></path>
                    <path d="M187.7515,24.1536 C187.4615,24.3506 187.3325,24.5526 187.2625,24.7576 C187.4505,24.6566 187.6235,24.4886 187.7515,24.1536" id="Fill-113" fill="#FF0217"></path>
                    <path d="M227.2751,26.7729 C227.5001,27.1399 227.8311,27.6989 227.8781,28.1889 C228.3371,28.1999 228.6601,27.5269 229.1281,27.2859 C228.5991,27.4739 227.9891,27.3439 227.2751,26.7729" id="Fill-115" fill="#FF0217"></path>
                    <path d="M229.1658,27.2628 C229.1528,27.2748 229.1398,27.2798 229.1278,27.2858 C229.1408,27.2858 229.1528,27.2708 229.1658,27.2628" id="Fill-117" fill="#FF0217"></path>
                    <g id="Group-121" transform="translate(0.000000, 0.211000)">
                        <mask id="mask-6" fill="white">
                            <use xlink:href="#path-5"></use>
                        </mask>
                        <g id="Clip-120"></g>
                        <path d="M131.1958,9.6443 C131.1798,9.6323 131.1598,9.6263 131.1398,9.6133 C131.1618,9.6203 131.1818,9.6203 131.2018,9.6203 L131.1958,9.6443 Z M163.6308,22.9623 C163.0458,23.1263 162.4528,23.2983 161.8508,23.4663 C161.9098,23.4883 161.9638,23.4883 162.0258,23.5093 L160.2688,24.6863 C161.3488,25.2573 162.0598,26.8643 160.5488,27.6133 C160.6758,27.0083 160.2348,26.2663 160.7598,25.9133 C159.7478,25.0353 157.5268,24.1863 158.1058,26.3963 C160.0508,24.3083 158.5588,29.2083 160.0878,27.6593 C159.2668,29.0993 158.4548,28.4503 157.6798,29.0943 C158.4868,27.8893 157.4918,26.3643 156.2808,25.7903 C155.7538,26.1453 154.3268,25.8063 153.4498,26.3893 C153.7628,27.7403 152.9998,28.5133 154.4268,28.8533 C153.9038,29.2083 153.0928,29.4883 152.1848,28.7953 C152.5448,28.5633 153.1748,28.3953 153.1308,27.9083 C152.5448,26.6653 151.8588,26.7203 151.4808,26.1893 C151.1788,26.2663 150.8738,26.3323 150.5778,26.4063 C150.6658,26.5233 150.7418,26.6773 150.7968,26.8693 L149.7938,28.0623 C151.1298,27.4263 150.4118,28.6863 150.3938,29.4773 C150.4298,27.8963 149.5338,29.2723 149.0768,29.3243 L150.0698,30.9943 C149.5898,31.8323 148.3748,29.7873 148.6248,31.4423 C150.7338,32.1063 151.5438,31.8203 153.4498,31.3223 L152.6768,30.0263 C154.8278,29.1073 154.0028,32.2523 156.4168,32.1893 C157.4198,31.0043 160.0468,32.1073 160.0968,29.7323 C159.7938,30.4563 161.5988,31.8443 162.4258,30.7683 C163.3408,28.5993 166.1048,28.3063 165.2678,27.3153 C164.5208,27.2893 163.5158,28.4823 162.9148,27.0683 L164.3638,26.6173 L163.4128,25.4343 C163.9038,25.8583 163.8568,24.7023 163.6308,22.9623 Z M169.6398,21.1393 C170.5818,24.4893 171.6218,27.4513 176.0198,26.8643 L175.6738,27.0963 C177.8908,29.1993 179.9958,24.3153 182.6928,26.6503 C181.3838,27.9133 181.4548,27.7983 180.0098,30.6863 L181.4138,29.7393 C181.0248,31.5633 182.4258,30.6203 183.4558,30.7063 L182.5468,32.8763 C181.9278,32.2523 180.3248,32.0273 180.3718,32.5203 C180.7228,32.2813 178.2558,29.7833 176.9148,30.4133 C177.0528,31.8833 179.8838,31.2873 178.6198,33.6893 C179.7338,32.6823 179.8718,34.1483 181.0358,33.6323 C179.9188,34.6393 180.7598,35.6363 179.9288,36.7063 L181.8378,36.2083 C181.8868,36.6973 179.0568,37.2943 180.6208,39.1013 C181.3858,38.3313 183.4288,39.2983 183.4658,37.7163 L183.5118,38.2023 C184.9438,38.5453 184.1418,35.9623 185.8988,36.8643 C185.9198,36.0683 185.5848,35.5183 184.9558,35.6823 C184.4228,36.0353 184.3418,37.1243 183.2458,37.3453 C182.7548,36.1083 184.5678,37.5003 183.8068,35.4063 C183.4288,34.3643 180.9138,36.3063 181.7148,33.9543 L183.1438,34.2943 C183.1798,32.7093 184.2148,32.7993 184.1858,31.5223 C185.0588,30.9383 185.8838,32.7233 186.7748,31.3453 C187.1458,30.3203 186.4988,28.4173 187.9748,29.2463 C189.1278,31.5903 192.5258,31.1333 193.7988,30.7983 L194.9128,29.7873 C194.8178,28.8153 192.7848,29.9193 193.4998,28.6573 L195.2368,28.2763 L195.1028,28.8853 C195.6788,29.0193 196.2678,28.3653 196.7918,28.0183 C196.2518,29.1593 194.9988,28.7003 195.2478,30.3513 C196.0638,30.6763 196.1878,31.2873 196.9378,30.9713 C196.7748,31.0883 196.6338,31.2503 196.6538,31.4823 C198.3048,32.1953 198.2488,29.6363 198.6618,29.0993 C200.3218,26.9523 196.9888,27.1063 197.2018,25.4073 L202.0468,24.5003 C201.6338,25.0353 201.2168,25.5683 201.3728,26.2463 C202.5618,27.0083 201.3998,27.5273 203.0688,27.4463 C202.9498,25.1913 205.1698,26.0413 206.3488,24.7383 C206.8998,25.6613 207.0128,25.8473 205.8088,25.8743 C205.9468,27.3383 207.5638,26.7763 208.1378,26.9093 C208.4718,26.5453 209.0398,26.3323 209.3998,26.0063 C208.9168,25.2763 209.1228,24.3603 210.1668,23.7343 L210.2278,23.4273 C208.5168,23.0273 205.8558,21.4263 204.7828,22.9263 L205.0868,22.2013 C203.1048,20.9343 200.7758,24.8323 199.8618,22.0643 C199.9458,20.9703 199.4638,21.8123 199.4978,20.2303 L198.0398,21.4673 L198.3428,20.7503 L195.8618,21.1083 L195.9268,20.8103 C194.7478,22.2443 193.8238,23.4133 193.0858,24.3683 C193.0828,25.0583 193.1598,25.2703 192.7668,25.7783 C192.3728,26.1203 192.0728,26.1723 191.8058,26.0823 C191.8038,26.0843 191.8038,26.0843 191.8038,26.0903 L191.8038,26.0823 C191.1958,25.8803 190.7898,24.8893 190.0398,24.4863 L192.3478,24.3153 C192.5348,23.1443 192.3388,21.9273 191.2088,21.1083 C191.6708,21.0633 191.8638,20.1493 191.2918,20.0143 C191.2288,20.3193 189.7798,20.7633 190.3328,21.6973 C188.1408,22.1243 184.5918,19.0473 181.2648,21.2743 C183.6548,19.9343 179.3488,19.7043 182.0028,19.2233 C180.1498,17.3483 180.4088,21.0683 178.5198,20.7763 C178.3588,20.1023 179.5488,20.8643 179.9818,19.5353 C176.8418,18.7833 174.6848,22.5633 171.6468,21.9943 L171.5168,20.5333 C170.9418,20.7233 170.3038,20.9283 169.6398,21.1393 Z M220.6338,23.2203 C220.8108,23.1023 220.8748,22.7953 220.8748,22.7953 C217.0408,26.2583 213.8848,27.2623 211.8178,27.1283 C212.2188,28.5023 214.0728,29.5643 214.9528,30.1333 L214.1728,31.6973 L213.6858,30.4673 L212.3308,31.8903 C212.7098,32.9423 213.8038,32.7233 214.5348,33.5313 C214.5988,33.2343 216.9398,31.4073 217.5938,30.4453 L215.7238,29.3623 C216.2278,29.8003 218.7098,29.4393 219.6938,29.0393 C219.7128,28.2533 218.0178,27.0443 217.8038,28.7483 C217.6018,27.5843 219.5568,27.5723 218.3208,26.3243 C219.7858,25.0833 222.1168,26.1203 223.1978,26.6963 L223.3808,28.6523 C224.5668,29.4133 224.1818,26.2953 225.5918,27.4263 C223.8588,27.8073 225.8848,29.5703 224.5068,29.7183 C224.9468,30.4563 224.5158,31.7873 225.8968,31.6393 C227.0468,29.0503 227.3528,33.2623 228.4398,30.9773 C229.1658,31.7873 227.6578,32.5353 229.0868,32.8823 C230.7258,31.5223 230.6318,30.5463 230.7328,28.6613 C229.1998,28.1333 229.0108,31.1123 227.7578,30.6543 L230.2508,27.4263 C229.7908,26.9703 229.4508,26.9223 229.1658,27.0523 C229.6668,26.8643 230.0918,26.3863 230.4558,25.7273 C230.6638,25.3573 230.8548,25.0403 231.0318,24.7683 C229.6188,24.7523 228.3638,24.7063 228.1428,23.9043 L228.3378,22.9893 C227.8368,22.1503 227.0218,22.8083 226.6458,23.4773 C225.3808,23.5763 224.1168,24.8513 223.8408,23.6663 L224.3208,22.8303 C222.7648,23.0943 222.5908,23.2083 220.6338,23.2203 Z M240.3608,26.5453 C240.3988,26.7093 240.5328,27.1333 240.7198,27.6593 L239.7578,28.5923 C238.0418,28.1823 236.6678,25.4703 235.1238,27.8023 C234.4008,27.2163 234.0138,25.9763 233.6438,24.9563 C233.9978,25.0323 234.3288,25.1303 234.6048,25.2873 C238.9338,21.8723 236.8618,28.8903 240.3608,26.5453 Z M135.4048,31.4623 C135.9028,29.8273 137.5718,29.7533 137.6738,27.8643 C137.7798,27.3803 137.4288,27.1953 137.0358,27.0393 C136.5958,26.9963 136.1268,26.9433 135.6288,26.8823 C135.6118,27.1573 135.5128,27.4133 135.3478,27.6593 C135.8388,27.8963 136.1678,28.3643 135.9688,29.5233 C134.7058,26.9963 134.8368,31.3223 133.4708,30.6763 C133.0368,32.0073 134.9908,31.9963 135.4048,31.4623 Z M127.5028,26.9823 L127.7898,25.6183 C127.5228,25.5683 127.2508,25.5153 126.9728,25.4623 C127.0648,26.0793 127.1608,26.6173 127.5028,26.9823 Z M125.0438,25.1583 C125.0978,25.1403 125.1168,25.1243 125.1688,25.1123 C124.8828,25.0523 124.5958,24.9983 124.2958,24.9383 C124.4128,25.0583 124.6338,25.1503 125.0438,25.1583 Z M148.6028,26.1023 C148.4668,26.0843 148.3508,26.0503 148.2898,25.9513 L148.6028,26.1023 Z M147.5518,28.0023 C148.7638,28.4173 148.4878,27.5903 148.6758,26.8473 C148.2498,26.9423 147.8238,27.0393 147.4028,27.1283 C147.5638,27.3153 147.6438,27.5793 147.5518,28.0023 Z M146.0328,21.7523 C143.8958,21.4763 141.7398,20.9623 139.6868,20.7343 C143.3938,24.4643 145.9988,27.2893 139.8128,27.2163 L139.4078,27.4863 C140.2168,27.9413 141.6108,27.9983 142.9228,27.7283 C143.9838,26.4063 147.4088,21.5463 147.3708,21.1163 C146.9958,20.0723 146.4468,21.2123 145.7638,20.8933 L146.0328,21.7523 Z M10.7728,27.6373 C10.8708,27.4563 10.9468,27.2463 11.0038,26.9823 C10.9458,27.2573 11.0108,27.4343 10.7728,27.6373 Z M114.6508,28.0833 C114.5148,28.1823 114.3748,28.2703 114.2298,28.3523 L114.4488,28.0103 C114.0848,27.8843 113.7228,27.7583 113.3598,27.6203 C113.2288,27.7023 113.0868,27.7803 112.9118,27.8243 C112.9818,27.7803 113.0368,27.6443 113.0708,27.5033 C112.9528,27.4563 112.8368,27.4043 112.7218,27.3533 C111.8548,28.6823 109.6968,29.6533 109.0738,30.4343 C108.2498,31.0043 107.2418,31.3273 106.6098,31.2233 C107.1958,31.2503 107.9738,30.9823 107.7398,30.2483 C106.5508,29.4823 105.9718,27.2783 103.9188,29.1723 L105.1228,29.1443 L102.4148,31.9963 C101.4658,30.8123 103.7668,30.5723 104.1428,29.5453 C102.0368,30.9513 100.2848,27.1943 99.3088,29.6653 C99.1708,28.2013 98.9398,25.7573 97.5578,25.9023 C98.5548,27.5723 96.7298,26.9753 97.5468,28.7623 C97.0698,29.6013 96.0058,28.2343 95.9258,29.3313 L96.0548,28.7243 C93.6958,26.4063 92.9228,30.0393 91.9138,31.2343 C89.0878,31.8323 87.7898,30.8843 85.4858,31.1303 C85.3948,30.1503 84.7678,27.4513 83.8438,27.5523 C83.4138,28.8803 81.3278,29.4943 81.1148,31.1963 C82.7688,31.9073 82.4678,29.7703 83.4568,29.3723 C84.2808,31.1553 83.5318,31.1363 84.6568,32.2023 C83.7488,31.5083 80.5548,33.1313 79.5598,31.4583 L79.9108,31.2233 C78.3238,30.2083 78.0208,26.0003 75.3758,28.5463 L74.1138,29.5883 C74.1748,29.4183 74.1818,29.2203 74.2148,29.0673 C72.1488,28.8903 72.7128,26.9553 70.4328,28.4823 C70.6088,28.3643 70.4978,28.1773 70.6768,28.0623 C69.3778,27.1083 68.0668,29.0273 67.0838,29.4273 C66.4848,28.0103 67.2268,28.0323 67.5978,27.0053 C65.3108,26.4583 62.8438,28.8903 61.4238,30.6203 L59.9498,29.7873 C60.8238,29.2023 61.8918,27.7063 61.6258,26.8493 C60.8148,27.1333 60.9718,27.8053 59.8258,27.5313 C60.0208,26.6243 60.5018,25.7783 61.0408,24.6373 C58.6698,23.1203 60.5108,27.8543 58.8518,25.0703 C58.1068,25.0523 57.6748,26.3783 57.5928,27.4733 L56.2438,26.0393 C56.0938,27.4343 54.4278,27.5143 53.3358,27.7253 C53.2028,28.3273 54.2148,29.2143 54.6288,28.6743 C54.5468,29.7703 53.3858,30.2873 52.6388,30.2643 C52.3648,27.3383 47.7478,30.6863 48.6308,27.2383 C45.2758,28.1903 40.5618,28.4863 38.3468,29.7083 C37.6168,28.8993 36.1278,28.8583 37.0198,27.4863 C34.3188,27.4733 32.9258,30.4763 30.2448,29.6773 C30.0228,29.3103 31.4568,29.6503 31.3618,28.6743 C29.6098,29.8473 28.1738,27.4343 25.4548,28.2183 C25.9118,28.1653 26.0458,27.5603 26.1088,27.2573 C26.1568,27.7423 24.9948,28.2633 24.2918,28.7343 C23.8958,28.4823 24.8178,28.3823 24.5958,28.0103 C19.3438,26.5883 15.3428,30.5673 10.1188,30.4343 C11.6108,30.4733 12.1748,28.5353 12.1898,27.7423 L10.7288,27.7063 C10.1658,28.6743 9.0688,28.6713 8.1508,29.3963 C8.0388,29.0313 7.5918,28.6393 8.0478,28.1823 C5.1598,26.2203 3.5378,31.7213 -0.0002,30.7143 L4.2838,26.8043 L3.2248,25.4423 L5.1078,23.6653 C3.9828,22.5923 3.0048,25.0703 2.8688,23.6013 C3.1068,23.1863 3.6798,23.3193 3.6978,22.5263 C2.6178,21.9513 2.5328,23.0463 1.7208,23.3323 C3.8598,20.3433 8.0538,20.3893 10.3118,19.6573 C10.6668,19.4223 10.0078,20.3783 9.9448,20.6823 C10.8658,20.5833 11.4188,21.5143 12.5778,20.9963 C13.2978,19.7343 12.0288,20.0673 11.4568,19.9343 C11.5358,18.8363 11.8238,18.9023 12.4598,18.7383 C12.5978,20.2023 15.9538,19.2563 16.7738,21.0443 C20.1738,20.5833 16.2298,17.2523 19.5498,17.8883 L20.5408,19.5633 C22.4678,18.2683 24.9608,17.1203 27.1408,17.4773 L26.6818,17.5323 C26.3758,18.2483 26.8818,18.6893 27.1048,19.0573 C28.7538,19.7743 30.2338,17.7393 31.2328,19.4173 C33.1118,17.6363 36.2458,16.3163 38.3948,15.3973 C38.9748,17.6073 35.5918,17.2723 34.6968,18.6523 L36.6528,18.6443 C35.4438,18.6723 34.9668,19.5133 34.2418,20.7703 C35.9558,21.1813 36.5198,19.2463 38.1448,18.6863 C38.0188,19.2873 38.2358,19.6573 38.9858,19.6743 L39.1978,18.2083 C39.2118,18.3273 39.2948,18.4383 39.5268,18.5313 L42.4178,17.6363 C41.8048,17.0073 41.7748,15.7303 41.0278,15.7143 C41.2948,16.5683 40.6608,16.7383 39.9138,16.7163 C40.5688,15.7583 39.1848,15.9083 39.1998,15.1163 C40.6988,15.1563 42.5408,14.9583 43.5228,14.5573 L43.8418,15.9083 C45.2708,16.2503 46.7788,15.4963 47.7478,15.8893 L47.4428,16.6083 C49.1558,17.0193 50.8428,16.1503 52.3648,17.4683 C53.8938,15.9243 55.8178,14.6383 57.0668,13.0233 C57.7358,11.2803 61.5518,15.2123 63.2758,12.7583 C63.3918,12.9453 62.0918,14.0693 61.5038,14.7293 C62.6498,15.0003 63.5618,12.8323 63.9208,14.6663 C61.3488,14.0503 64.0588,16.1303 62.8998,16.6523 C64.1048,16.6183 65.3748,16.2873 65.9658,15.6323 C64.0168,15.6453 66.6578,13.0953 64.6848,13.8943 C66.2138,12.3513 68.3008,11.7343 70.1228,12.3323 C70.1048,13.1243 70.3288,13.4943 71.0088,13.8203 L71.5568,12.6723 C72.4088,12.8813 69.9078,14.0313 71.6238,14.4413 C73.3898,12.4763 76.9428,15.5553 77.7158,11.9223 C79.0618,13.3573 75.1538,13.3763 77.1828,15.1333 C76.0028,16.4453 74.3748,14.9423 73.9858,16.7573 C75.1428,16.2393 74.4078,18.2903 75.1538,18.3083 L76.4448,17.1893 L76.1588,17.1203 C78.3238,15.4083 81.7538,16.2293 84.5188,15.9383 C86.8598,14.1103 88.4728,11.4713 91.2808,11.6703 C90.4518,12.7423 93.6138,12.7023 91.8458,14.6663 C93.1458,15.6133 94.4288,14.4923 94.4538,13.7003 C93.3108,13.4283 94.0518,13.4453 93.0888,13.0573 C93.7388,12.0963 95.2378,12.1393 95.8538,12.7663 C95.5678,12.6973 95.6768,12.8813 95.6138,13.1823 C96.9788,13.8273 96.2678,12.2273 97.2548,11.8263 C97.5678,13.1703 99.4338,12.1863 100.3338,12.8813 L101.6408,10.9643 C100.9228,12.2243 102.8928,11.4243 103.0988,12.5843 C104.0358,11.6963 104.8218,10.1363 106.2488,10.4753 C105.6588,11.1323 107.5498,11.4243 107.5748,12.7023 C110.0188,13.9263 111.6218,9.2163 113.9358,11.0463 C113.8638,11.3463 113.3968,12.1863 114.0728,12.5073 C114.6058,12.1503 115.5388,12.3003 116.1088,12.1613 L116.0908,12.1973 C116.1018,12.1863 116.1088,12.1743 116.1208,12.1613 C116.3998,12.0923 116.5748,11.9343 116.5818,11.6243 C117.5578,10.3743 118.0608,9.0923 119.9808,8.0313 C119.8408,6.5673 118.2188,7.1363 117.5168,7.6063 L116.9108,9.0523 C116.3308,6.8433 115.1788,9.4343 114.7378,8.6903 C115.8888,6.1013 119.2068,6.7383 121.1968,5.1453 C119.9828,3.1063 117.3438,2.7873 115.0408,3.0353 L116.0548,3.9133 L114.8498,3.9413 L116.0168,5.4983 C114.8748,5.2253 113.8878,5.6243 112.8568,5.5353 C114.0638,5.5073 114.5348,7.5263 113.8518,7.2063 C112.5058,5.7703 112.4488,8.1443 111.4198,8.0553 C111.9928,8.1893 112.7378,8.2143 112.2578,9.0523 C110.2288,7.2943 109.6808,8.4383 107.8358,6.5603 C108.0648,9.0023 105.5308,6.8053 105.2538,8.8043 L106.1108,9.0083 L104.2948,10.4833 C102.6188,8.4943 105.7778,8.4563 103.2278,7.0503 C100.8758,6.8053 100.9358,9.3683 99.0868,9.5583 C99.6958,8.1133 101.1628,6.8723 102.6558,6.9133 L101.7518,6.2163 C102.2298,5.3783 104.2948,5.5533 105.3248,5.6403 C103.6228,7.3003 106.1218,6.1503 106.8958,7.4483 C107.0388,6.0483 105.9458,6.2683 107.2358,5.1453 C106.0268,5.1723 105.8498,5.2893 104.3118,4.7623 C107.6368,5.3973 107.3018,-0.0927 110.2038,1.0833 C108.8658,1.7163 110.6698,3.1013 110.8308,3.7803 C111.4608,3.6103 112.7378,3.2783 113.2628,2.9283 L112.7868,0.9083 C114.4778,0.0353 115.0658,4.3143 117.0168,2.2303 C117.2698,1.0203 115.3008,1.8203 115.6518,1.5873 C118.3218,0.3173 119.2828,3.5723 121.6538,5.0943 C121.7878,4.4863 121.7608,3.2083 122.5898,2.1373 C122.3288,3.3513 122.9428,3.9713 122.0098,4.8603 C122.8028,5.3723 123.7418,4.4823 124.4408,4.0093 C122.7908,3.2983 125.1158,2.2663 125.4198,1.5393 C126.2748,1.7463 125.1598,2.7503 124.6338,3.1013 C125.3198,3.4263 126.1348,5.2143 126.5248,3.3973 C126.5518,4.6743 124.6068,6.7583 123.3348,7.0883 L124.1918,7.2943 C123.6008,7.9463 123.4908,7.7623 122.6398,7.5633 C123.4728,8.5533 123.3908,9.6453 123.1958,10.5563 C123.0868,10.3693 123.2578,10.2533 123.1528,10.0703 C122.4668,9.7463 121.9418,10.0953 122.1008,10.7743 C121.4838,12.4893 123.0508,11.8473 123.5158,12.7023 C123.8668,12.5903 124.2178,12.4733 124.5618,12.3583 L128.1228,6.8483 C129.6448,6.2083 130.3288,7.5263 131.4718,8.3583 L131.7848,6.8843 C133.1088,7.0353 134.3588,7.5023 133.5098,9.3683 C133.4628,8.8763 133.2878,8.9943 132.9998,8.9223 C132.9618,9.1223 132.8958,9.2643 132.8118,9.3803 C132.7848,9.4673 132.7688,9.5523 132.7468,9.6373 C134.1648,9.1613 135.0498,8.8523 135.1308,8.7963 C132.7238,10.9343 135.0108,11.4713 134.6078,14.0843 L137.0398,13.2323 C135.5658,12.4043 137.0128,11.9553 137.5358,11.6013 C137.6798,13.0703 139.4938,11.5883 140.3468,11.7943 L140.2848,12.0963 C141.0738,12.6063 142.4578,12.4623 143.4428,12.0633 C143.3978,11.5703 144.6608,9.1693 145.2678,7.7213 C143.5788,7.1703 144.5808,6.5823 144.4458,5.6703 C144.6208,5.7533 144.9348,5.7703 144.9718,5.5833 C145.2128,5.1653 144.6428,5.0273 144.5958,4.5393 C142.7998,5.2253 140.9518,5.4183 140.2188,7.4703 C140.7708,8.3973 141.1588,6.5823 141.7768,7.2033 C140.8858,8.5833 139.7388,8.3103 138.2468,8.2723 L137.7578,7.0403 L136.2558,7.7083 C136.8828,7.0573 136.5058,5.7703 138.0808,5.5233 C137.8798,4.3643 136.5188,5.7873 135.5538,5.3973 L135.0608,7.0323 C135.2508,6.1223 133.1858,5.9453 134.6528,4.7043 L137.0398,3.3683 L136.3758,2.2523 L138.3938,1.9383 L137.9178,2.7833 C141.1588,1.6523 138.8728,6.0353 142.1358,4.1053 C143.1578,2.1263 144.2558,1.9133 146.2548,2.3963 C144.8088,2.8383 146.1068,3.7893 145.5618,4.9343 C147.0378,5.7613 147.5358,4.1303 148.3018,3.3583 C148.6778,4.4043 148.9448,5.2583 147.6268,5.1063 C147.4618,7.2943 149.3608,4.7273 149.4818,6.9803 C153.8488,6.9133 152.9818,-0.2967 158.0868,2.5183 L157.8958,3.4263 C161.1378,2.2953 163.0078,3.3803 166.0108,2.6653 L168.3738,4.9763 C167.8458,5.3323 166.4248,7.0583 167.0878,8.1723 C165.9378,5.8353 164.7178,6.6523 163.4788,5.3973 C163.3518,6.0053 163.8568,6.4453 164.0758,6.8193 C163.3288,6.7983 162.9538,5.7503 161.9658,6.1563 C162.0138,6.6373 163.0908,7.2183 162.2788,7.5023 L160.9358,6.0633 C159.1388,6.7503 160.0508,9.5073 157.9398,8.8473 C158.3318,7.5633 159.1338,5.7063 159.9508,5.3973 C158.9868,5.1203 161.2368,4.6223 160.3568,3.8543 C158.9668,5.7563 158.2968,4.2503 156.4488,5.4413 C156.6658,5.1753 156.7228,4.8033 157.1778,4.6863 L154.4968,3.8843 C155.1598,4.9963 152.2818,5.1063 152.5308,6.7583 C155.3888,7.4423 154.5488,6.4453 157.8048,7.3823 C156.8828,7.7573 155.6948,9.4383 155.1378,10.9863 C155.1098,10.9203 155.0628,10.8683 154.9618,10.8383 C154.4648,12.4733 154.9718,12.9133 154.9618,15.7723 C156.4488,13.7383 157.4418,15.4113 159.1958,14.2423 C159.5248,12.6763 158.1778,12.2463 157.3068,12.6493 L158.8508,11.6123 L158.5468,12.3323 L162.4668,12.8583 C161.7248,12.9413 161.4718,13.8493 161.0848,14.5333 C161.5898,14.5953 162.0908,15.0083 162.6238,15.4623 C162.5118,13.9673 162.5828,12.9133 163.0758,12.9413 C165.5978,13.2963 166.9998,14.6383 167.9308,16.3453 C168.0278,16.3103 168.1368,16.2763 168.2248,16.2393 C167.8018,14.7083 170.0158,13.4863 170.7968,11.9223 C170.7588,13.5053 172.0968,12.8723 172.8238,13.6813 C173.2108,11.8643 172.6938,9.3563 171.8088,7.8723 C170.1038,9.5313 170.8538,9.5463 170.0478,11.9043 L167.3118,13.4753 L167.9238,12.0263 C166.5588,11.3863 165.2468,13.3003 165.3468,11.4143 C166.0688,10.1583 167.2598,10.9203 167.9758,9.6593 L167.0728,8.9703 C168.6658,7.1173 167.8888,10.7543 169.8188,9.4623 C169.1088,7.8603 169.9928,9.3473 170.8198,8.2723 C170.1558,7.1553 167.4228,8.7293 168.0028,6.0053 C169.0058,4.8153 171.3778,9.1973 172.7058,6.4893 L172.6408,6.7983 C174.5988,7.1503 175.2868,5.5953 176.0198,4.6163 C176.8528,5.4983 178.0038,4.2563 178.9068,4.1583 L178.8848,4.9513 L180.1588,4.6183 C179.5518,6.0633 178.6658,4.5803 177.5708,4.7903 L177.7078,6.2623 C176.4458,4.5153 175.6038,7.1703 174.6258,8.4393 C176.0498,7.1653 178.6468,8.8003 178.9818,5.9223 L179.8628,7.4093 L180.2838,6.8723 C180.9408,7.9883 180.2698,9.7383 178.9978,10.0703 C178.7768,9.6993 178.6658,9.5143 178.7328,9.2083 C178.1418,9.8643 177.5998,11.0073 176.1698,10.6693 L176.9328,9.8893 C175.1528,9.7833 173.5348,10.3523 172.9248,11.7993 C175.4948,12.4133 178.0218,12.5433 180.4348,12.4763 C181.1468,9.1503 181.9908,7.2833 182.3538,4.1903 C183.9728,3.6203 186.1708,3.1943 187.5768,4.3273 L187.4478,4.9343 C188.1338,5.2523 188.7658,5.0843 189.2928,4.7343 C190.0178,5.5453 188.7968,6.3683 189.3018,6.8073 L191.6208,5.7703 C191.4778,7.1703 189.5268,7.1773 188.5998,7.2763 C188.7748,7.1583 189.1278,6.9243 189.0148,6.7383 C187.9368,6.1613 185.9288,8.5453 185.4578,6.5193 C184.9328,6.8723 186.5248,5.0273 184.7468,4.9203 C183.5558,4.1583 183.1678,5.9753 183.0438,6.5823 C183.0248,7.3763 184.9118,7.6693 184.2578,8.6243 C185.1838,8.5233 185.5528,7.5023 186.7378,8.2663 C185.8198,8.3623 184.5718,9.9713 184.0828,8.7393 C182.2678,10.2183 182.5278,13.9383 183.3838,14.1443 C183.1798,12.9773 186.6958,12.7063 184.3148,11.1863 C185.3848,9.6863 187.3388,9.6763 188.7378,8.7393 L188.6748,9.0393 L190.4118,8.6653 C190.1668,9.0803 189.6418,9.4343 189.6248,10.2233 L192.0308,8.0993 C190.6768,9.5273 192.8708,9.0903 193.4868,9.7203 C193.7448,8.5073 194.6848,7.6183 193.7828,6.9243 C192.7688,6.0443 193.1928,7.5803 192.2708,7.6743 L193.5758,5.7613 L193.6878,5.9483 L194.4738,4.3823 C196.2518,4.4943 193.6968,8.0193 195.9748,6.4893 L195.6788,4.3573 C198.3158,4.6713 201.7038,7.0703 203.5668,6.0873 C203.0528,7.3003 202.8258,9.2523 203.5328,10.4073 C202.7288,10.0403 201.1138,10.1173 199.9618,10.3163 C199.7398,9.9413 201.4018,7.7953 202.6538,8.2553 C202.0468,4.7623 199.5048,10.3643 199.3578,6.8243 C196.1668,5.5883 196.9778,10.2343 194.2698,8.1563 C194.2318,9.7383 193.4998,8.9283 193.3578,10.3223 C194.1588,12.9023 196.9778,10.2343 198.7348,11.1373 C198.5628,11.2523 198.2168,11.4883 198.1488,11.7873 C199.4048,12.2523 199.9238,11.9003 200.8018,11.3123 L200.6908,11.1263 C202.2238,9.5823 201.6398,12.3063 202.5418,13.0023 C202.8918,12.7663 204.1468,13.2233 203.9448,12.0633 L205.5788,13.5653 L205.4998,11.7993 C206.4218,11.6963 206.6238,12.8623 207.4588,11.7873 L207.4978,10.2083 L205.2088,9.6593 C206.3688,9.1423 205.5318,8.1453 206.8068,7.8153 C205.3828,9.5433 207.8138,8.6913 207.9548,10.1583 L208.8928,9.2683 L208.6528,9.6893 C209.3888,10.5023 209.5288,9.1013 210.3878,9.3083 C209.3748,8.4273 208.7108,7.3163 207.4208,8.4393 C208.3598,7.5523 210.2238,6.5673 210.6808,6.5143 C211.6678,5.8523 212.3568,7.0573 213.2798,7.2343 C211.5088,7.8683 213.9008,12.0263 210.3498,10.8903 C210.4158,10.5873 210.7038,10.6563 210.8148,10.8423 C210.3418,8.8223 208.6858,10.9673 207.9168,11.7393 C208.1148,12.9023 207.3098,13.1903 208.6748,13.8323 C208.2268,13.0883 209.8238,11.2423 211.1228,12.1943 L210.8938,14.6823 L212.7848,14.9753 L212.6078,15.0923 C213.3188,16.6943 214.6248,14.7833 215.9258,15.7253 C216.8658,14.8383 220.4718,15.5433 218.9208,12.9413 C220.0888,14.4983 221.1148,12.5143 222.3888,12.1813 L220.7998,11.1653 C222.6788,9.3853 222.1378,10.5353 223.6418,7.7043 C223.7928,8.3843 224.1288,8.9423 223.8228,9.6593 C226.3468,9.7893 229.9518,10.4943 231.4328,8.4583 C233.2118,8.5643 233.4908,11.4943 235.9878,10.3453 C236.5138,9.9943 235.5778,8.0193 237.2308,8.7343 C237.3418,8.9193 235.6398,10.5783 237.4798,10.3823 C238.7908,8.4683 240.5598,11.4393 242.2648,9.7803 C243.1648,10.4703 244.7278,10.2083 244.4018,11.7233 C242.9758,11.3783 240.9568,11.6933 240.6498,12.4203 C240.8468,11.5073 239.6358,11.5353 240.6858,10.8323 C238.5308,9.6863 239.2878,11.7703 237.3528,10.9883 C237.2198,11.5953 238.3478,12.6633 238.7618,12.1223 C238.7708,14.1893 234.9488,13.1223 236.6678,15.6013 C238.7348,15.7803 239.3478,11.4683 241.1388,13.6443 C240.4208,14.9043 239.2988,13.8383 238.3858,16.0103 L239.8578,16.8423 L240.9258,15.3473 L240.8628,15.6523 C243.4628,17.5453 243.2678,13.5223 245.5928,12.4863 C244.2458,11.0503 245.9048,8.9003 244.8908,8.0193 C246.4468,7.7573 247.5888,8.0313 247.5988,10.1003 C244.6888,11.7873 247.4338,12.2893 244.7438,14.3513 C245.1858,15.0923 244.1028,17.3783 245.7068,17.6073 C247.5128,16.1303 245.1658,15.8843 246.9678,15.2003 C247.0738,15.3853 247.1848,15.5723 247.1218,15.8763 C247.9498,14.8003 248.0888,16.2633 249.0908,15.0753 L248.8528,15.4893 C250.0898,16.7463 250.2058,14.0673 251.2698,15.4343 C250.8438,13.8993 251.9838,14.1753 252.6438,13.2183 C251.5658,12.6373 250.9818,10.4343 248.8528,10.5563 C248.5958,11.7703 248.7518,12.4453 247.8778,13.0323 L249.2608,12.8843 C248.9628,13.0833 248.7348,13.3953 248.4618,13.6393 L247.1328,13.0103 C248.8168,12.1423 248.0448,10.8443 248.7608,9.5823 C250.3018,10.1123 250.0328,9.2483 251.0018,9.6443 C250.9048,11.4243 253.9748,12.6863 255.7498,13.8323 C255.4748,13.7623 255.1188,13.8083 254.9258,13.7623 C253.6368,14.8883 255.8138,15.2483 255.8608,15.7383 L256.8008,14.8473 C256.6238,14.9703 256.3798,15.3853 256.7798,15.6373 C258.0518,15.3063 257.9788,13.5393 259.2488,13.2063 C259.3438,14.1863 258.2698,15.6763 259.0598,16.1903 C259.3318,17.0463 260.1988,19.3223 261.8868,18.4573 C262.0068,18.0803 262.4438,17.8693 262.9508,17.7083 C262.8798,17.7613 262.7918,17.8003 262.7598,17.8693 L263.8808,18.9383 C262.9258,20.6123 261.9498,18.1503 260.9898,19.8303 L260.9078,21.4203 C260.1608,21.4263 259.1468,22.1133 258.6808,22.9383 C259.8188,23.2083 260.0588,22.7903 261.3318,22.4603 C261.5108,23.4663 260.6138,24.2123 260.4848,24.3203 L260.6748,23.4143 C259.1558,22.0973 258.4038,24.9393 256.5138,24.6443 C256.2278,24.5793 256.4028,24.4623 256.4658,24.1593 C254.9358,25.7003 253.4338,23.5883 251.9458,25.6223 L252.4308,24.7833 C251.4178,25.4603 249.4378,27.0263 247.4588,28.5393 L247.4428,29.1593 C247.6628,29.5323 246.9198,29.5103 246.5208,29.2583 L246.5228,29.2503 C245.5308,30.0053 244.5778,30.7023 243.7978,31.2233 C244.0468,31.6043 244.3658,31.9263 244.7318,32.0143 C245.0428,31.2873 246.8608,31.8833 246.6118,30.2343 C247.4518,31.2293 248.8058,29.8003 249.4228,30.4263 C248.2988,29.3643 250.2058,28.8683 250.4028,27.9583 C250.7798,29.0003 252.0688,27.8783 251.9208,29.2803 C252.1428,29.6443 251.3688,28.3493 250.8908,29.1893 C249.7138,30.4963 253.0468,30.3383 251.5798,31.5803 C253.4458,30.5963 255.9038,31.0233 257.8288,29.7323 L256.7508,29.1593 C257.6068,29.3643 259.6308,29.0523 259.7828,29.7293 C259.1468,29.8933 258.4038,29.8763 257.5908,30.1573 C257.5518,31.7383 259.5448,30.1473 259.6348,31.1243 L261.9978,28.5053 L260.9628,28.4173 C261.6138,27.4563 263.7768,28.6163 265.3798,28.8383 C264.4608,31.0043 262.9618,28.8943 261.2748,29.7633 C260.0498,30.5843 262.0318,31.8533 260.8718,32.3723 C261.1728,32.8763 261.9298,32.8163 262.3028,32.2723 L262.7598,32.6653 C261.7258,34.6333 259.4068,34.1933 257.8628,35.8883 C257.9978,35.6773 258.1168,35.4543 258.1598,35.2253 C256.9708,34.4623 255.7638,34.4943 254.6048,35.0143 C255.2178,35.6363 255.4608,35.2143 255.8108,34.9863 C255.8548,35.4713 254.7608,35.6823 254.3468,36.2213 C255.4248,36.7953 254.5478,37.3823 255.2298,37.7083 C254.5278,38.1763 253.9588,38.0393 253.1028,37.8323 C252.6598,37.0883 253.4708,36.8073 253.3798,35.8353 C252.4988,36.4203 252.0958,34.0883 250.8068,35.2143 C252.5218,35.6243 250.3548,37.3353 249.7638,37.9893 L250.0518,38.0583 C249.5078,39.2003 249.0458,39.2483 248.6698,38.2023 C249.3728,37.7343 250.0518,38.0583 249.8518,36.8963 C249.3878,36.9453 248.9258,36.9943 248.4008,37.3453 L248.8778,36.5063 L246.5738,36.7503 C246.2088,37.7743 245.5998,39.2213 245.2798,40.7343 C244.7278,39.8053 243.9578,40.5783 243.4328,40.9343 L243.6768,40.5083 C242.6608,39.6323 240.3988,40.3643 240.2078,41.2723 C239.4818,40.4623 245.3418,35.4983 240.2078,36.3383 C238.2568,36.3473 238.9928,39.2343 237.8788,40.2343 C237.8788,40.2343 237.9418,39.9383 237.8308,39.7503 C236.9768,39.5393 236.8918,40.6393 236.1898,41.1063 C236.7018,41.5453 237.4438,41.5643 237.6828,41.1453 C237.4258,42.3563 235.9038,41.0393 235.2498,41.9943 C236.0988,40.1273 233.5988,41.2813 234.2588,40.3223 C232.5598,39.1223 230.7438,40.5993 229.8518,41.9753 C228.6988,39.6323 227.8308,42.2873 225.9598,41.2023 C226.2478,41.2723 226.7688,40.9203 227.1718,41.1723 C228.2378,39.6863 225.2338,40.3933 226.8738,39.0353 C226.5238,39.2683 226.8498,39.8243 227.2098,39.5903 C227.8388,39.4233 228.4318,38.7703 228.2738,38.0943 L226.7488,36.7803 L227.2808,36.4203 L224.9678,34.6013 C224.9048,34.8993 225.1218,35.2723 225.2338,35.4583 C222.5498,34.6573 219.4818,35.6703 217.1318,35.4273 C216.6898,39.6203 211.3448,37.2233 209.4448,39.7983 C209.9538,38.5953 210.2328,36.4733 209.9178,35.6013 C210.3418,35.4243 211.2088,33.7303 212.1688,34.0833 C212.3218,34.7573 213.5088,35.5183 212.7448,36.2893 C215.3998,35.8103 212.3858,34.4503 213.1698,32.8903 C210.2278,33.2983 208.5028,35.7533 206.6458,36.7403 L206.5988,36.2463 L205.1968,37.1823 C206.3428,37.4603 206.2858,39.8363 204.8098,39.0053 L204.9888,38.8883 C204.1468,37.8903 202.3938,39.0633 201.0788,38.9093 L200.1868,40.2833 C198.8688,40.1273 198.8118,37.5683 198.3838,36.0373 C196.3188,35.8573 195.1258,37.9543 193.6588,39.2003 C192.9958,38.0843 189.9018,37.8203 191.5408,36.4673 C189.6778,37.4503 190.0538,43.4283 186.8588,40.1173 L187.6878,39.0393 C184.6328,39.2643 180.2768,41.4063 178.8688,40.2723 C179.9958,36.4073 175.0528,36.3383 174.5098,32.5473 C174.6618,33.4133 173.5138,33.7023 173.3468,34.1653 C173.0948,33.7203 172.6758,33.2893 172.2318,34.0703 C173.4238,34.8323 171.3948,38.0063 173.6718,36.4763 C172.5198,39.0753 171.0348,41.1063 168.5098,40.9763 L168.5478,39.3943 L170.5458,39.8763 C170.3438,38.7083 171.3718,38.7963 171.7928,38.2583 C168.0768,37.3693 172.2798,34.5563 168.4808,34.7623 C168.1138,35.7873 168.3518,35.3643 167.3638,35.7703 C167.8288,35.7183 167.9118,34.6283 167.1638,34.6083 L166.4448,35.8693 C165.1188,33.2343 168.6408,34.1533 167.5088,32.3003 C168.9758,31.0583 171.5168,30.3943 171.0438,28.3763 C168.6478,27.6443 168.8888,32.1563 166.3838,31.2393 L166.1168,30.3803 C165.2358,30.9663 165.0938,32.3583 164.6108,33.1973 C164.5678,32.7093 164.3438,32.3433 163.7778,32.2023 C162.2898,34.2343 161.3028,34.6333 159.9308,36.8513 C163.5828,35.1863 163.0528,38.3963 166.8228,36.9133 C166.2318,37.5683 163.5778,38.0503 163.4148,40.2343 L163.4498,38.6503 C162.2248,39.4733 160.9998,40.2873 159.4598,39.7663 L160.3998,38.8763 C158.3588,39.9773 157.0078,36.4733 155.3978,39.1083 C155.9658,39.2483 156.4278,39.2003 156.7788,38.9603 C155.7288,39.6653 154.4108,39.5073 153.2698,39.2383 L150.9078,41.8523 C150.9278,41.0673 149.4318,41.0193 150.1538,39.7663 C148.4528,38.5623 147.6518,40.9203 146.6688,41.3123 C144.9278,39.6323 148.1778,40.5633 148.3478,38.3783 C145.9488,37.6443 143.4058,38.3073 142.0528,39.7303 C142.5418,40.0503 142.7798,40.3223 142.7548,40.7083 C142.6818,40.2083 141.7158,40.3383 141.1768,40.3223 L140.8058,41.3513 C139.9088,40.6563 140.0348,40.0503 140.7988,39.2743 C139.9398,39.0753 138.9178,41.0523 138.0338,39.5693 C139.4988,38.3313 141.3658,39.4113 142.1288,38.6403 C139.0678,39.6543 139.0478,35.5103 135.1668,36.8123 C135.1188,36.3203 135.7768,35.3643 135.0288,35.3513 C133.2968,35.7293 134.5758,37.4703 134.0348,38.6123 C135.3688,37.9733 135.9888,38.6003 136.7628,39.8973 L136.4068,40.7343 C136.3538,40.3003 135.5158,40.2763 135.2688,39.8583 L135.0538,41.5583 C135.1528,39.6763 133.8128,38.2423 132.7598,38.9453 C133.8248,40.3103 133.5368,40.2393 133.8268,42.3833 C132.3458,44.4143 132.1558,40.3883 130.4958,42.5393 C130.6198,41.9343 132.0698,41.4823 130.8168,41.0193 C129.7808,40.9383 129.9188,42.4043 129.2238,42.8723 C130.0068,41.3053 129.8058,40.1403 130.6538,38.2803 C132.4958,38.0823 131.3968,38.3003 133.1968,37.6163 L131.6738,36.2903 C133.2338,36.0353 132.8078,34.4963 132.9368,33.8963 C130.2718,32.3003 130.9288,36.2773 129.2138,35.8653 C128.3878,36.9413 130.8198,36.0923 129.5268,37.2183 C127.9238,36.9883 129.1618,38.2423 127.3628,38.9223 L127.6638,38.2023 C127.1138,37.2703 126.5698,38.4183 125.9338,38.5763 C125.2338,39.0523 126.7258,44.0273 123.8478,44.1323 C123.9888,43.6943 124.0408,43.4173 124.0408,43.2343 L126.8488,30.0633 C123.9328,30.0963 120.5718,29.7293 117.1948,28.8473 C116.3998,26.2723 119.6048,26.7233 119.3988,25.5633 L120.9388,26.0903 C120.8528,27.1823 117.7118,26.4273 119.1028,28.3573 C121.8228,27.5723 123.0568,28.8273 125.6368,26.5763 C124.8358,23.9963 122.2388,27.0353 120.5608,25.0403 C121.2648,25.2093 121.8598,24.9243 122.4378,24.5553 C120.8618,24.2273 119.1748,23.8693 117.3818,23.4713 L116.9788,24.0963 C118.1868,24.3853 119.0238,24.6063 119.1318,24.6993 C117.5288,24.4733 116.1768,25.9023 116.0708,27.7893 L116.3558,27.8583 L115.7768,28.4453 C115.4008,28.3273 115.0248,28.2093 114.6508,28.0833 Z" id="Fill-119" fill="#FF0217" mask="url(#mask-6)"></path>
                    </g>
                    <path d="M261.8093,21.8313 C262.2263,21.2913 263.2563,21.3803 263.0543,20.2173 C263.0793,21.4983 261.2133,20.4133 261.8093,21.8313" id="Fill-122" fill="#FF0217"></path>
                    <path d="M263.0413,23.0829 C263.1143,22.7769 263.0633,22.2879 263.5253,22.2429 L262.2523,22.5679 L263.0413,23.0829 Z" id="Fill-124" fill="#FF0217"></path>
                    <path d="M264.3328,31.8192 C264.9888,30.8652 265.4048,30.3272 266.4358,30.4132 C266.8228,33.5312 264.7488,31.2852 264.2818,34.1932 C266.1698,34.4872 266.7498,31.7632 268.3028,31.4982 C267.5328,30.1982 264.3898,29.4492 264.3328,31.8192" id="Fill-126" fill="#FF0217"></path>
                    <polygon id="Fill-128" fill="#FF0217" points="263.4939 35.7582 264.5439 35.0552 264.4409 34.8722 263.3899 35.5762"></polygon>
                    <path d="M240.7473,8.6688 C240.6523,7.6928 239.9983,8.6528 239.6473,8.8878 C239.9323,8.9508 240.3323,9.2068 240.7473,8.6688" id="Fill-130" fill="#FF0217"></path>
                    <path d="M34.387,7.6536 L26.376,8.5956 C28.681,8.3486 30.809,8.2256 34.387,7.6536" id="Fill-132" fill="#FF0217"></path>
                    <path d="M214.1631,15.0381 C216.3141,14.1191 217.2701,12.4381 219.4621,12.0111 C216.5801,10.0471 215.6551,15.0771 213.2351,13.0651 L214.1631,15.0381 Z" id="Fill-134" fill="#FF0217"></path>
                    <path d="M214.9219,7.2633 C215.2779,9.0993 213.2619,9.4133 213.5749,10.7593 C215.0239,10.3113 214.2489,9.0113 215.5649,9.1693 L214.9219,7.2633 Z" id="Fill-136" fill="#FF0217"></path>
                    <polygon id="Fill-138" fill="#FF0217" points="224.6697 37.6038 224.0167 38.5588 224.5427 38.2108"></polygon>
                    <polygon id="Fill-140" fill="#FF0217" points="205.1182 8.8929 205.3562 8.4779 204.2772 7.8969"></polygon>
                    <path d="M205.5935,8.055 L205.3555,8.478 L205.5935,8.055 Z" id="Fill-142" fill="#FF0217"></path>
                    <polygon id="Fill-144" fill="#FF0217" points="223.8313 41.5428 224.8003 41.9348 225.2803 41.0918"></polygon>
                    <path d="M215.2747,31.6941 L216.1417,31.1071 C215.9697,31.2211 214.7837,30.4651 215.2747,31.6941" id="Fill-146" fill="#FF0217"></path>
                    <polygon id="Fill-148" fill="#FF0217" points="198.531 8.1129 197.476 8.8179 197.583 8.9989 198.635 8.2949"></polygon>
                    <path d="M208.4866,36.7542 C209.0856,38.1652 206.7566,37.1362 207.9886,38.3832 C209.0856,38.1652 208.6406,37.4292 208.4866,36.7542" id="Fill-150" fill="#FF0217"></path>
                    <path d="M195.7551,27.186 C195.6131,27.186 195.4631,27.236 195.3181,27.393 C195.4911,27.333 195.6351,27.259 195.7551,27.186" id="Fill-152" fill="#FF0217"></path>
                    <path d="M195.7551,27.186 C196.2141,27.186 196.6741,27.726 196.9891,27.318 C196.4161,26.679 196.2081,26.919 195.7551,27.186" id="Fill-154" fill="#FF0217"></path>
                    <path d="M190.4907,27.5148 L190.9077,27.6148 C190.4817,28.3118 190.6837,28.2088 191.0637,27.6488 C191.5047,27.6008 191.4807,27.1548 191.5327,26.8498 C191.6207,26.6788 191.7087,26.4948 191.8037,26.3008 C191.6677,26.4828 191.5457,26.6598 191.4417,26.8118 C190.7577,26.7998 190.3407,26.8688 190.4907,27.5148" id="Fill-156" fill="#FF0217"></path>
                    <path d="M170.9338,3.738 C172.4728,4.263 172.8708,4.517 172.7868,5.612 C174.2478,5.961 174.0208,4.076 174.9018,3.637 C173.2488,3.848 172.9118,3.344 170.9338,3.738" id="Fill-158" fill="#FF0217"></path>
                    <path d="M174.9021,3.6372 C175.0871,3.6152 175.2641,3.5912 175.4791,3.5492 C175.2381,3.5172 175.0601,3.5622 174.9021,3.6372" id="Fill-160" fill="#FF0217"></path>
                    <polygon id="Fill-162" fill="#FF0217" points="196.644 39.489 195.687 41.166 196.039 40.933"></polygon>
                    <path d="M168.6499,3.186 C168.9349,3.256 169.3929,3.207 169.6179,3.583 C169.6999,2.483 168.3649,3.118 168.6499,3.186" id="Fill-164" fill="#FF0217"></path>
                    <path d="M174.5847,24.6612 C174.7407,25.3332 175.7257,24.9312 176.1267,25.1882 C175.5517,25.0472 175.0827,23.0282 174.5847,24.6612" id="Fill-166" fill="#FF0217"></path>
                    <path d="M164.2354,7.7049 C164.5204,7.7749 164.9594,8.5109 164.7694,9.4189 C165.1844,8.8809 165.7454,6.9489 164.2354,7.7049" id="Fill-168" fill="#FF0217"></path>
                    <polygon id="Fill-170" fill="#FF0217" points="171.7727 24.4656 171.9917 24.8366 173.0457 24.1336"></polygon>
                    <path d="M175.5288,40.6398 C176.7128,39.3328 173.6498,37.4868 175.6898,36.3798 C173.0588,35.0118 175.8918,38.2308 173.9508,38.0198 C175.0868,38.4608 175.6438,40.1128 175.5288,40.6398" id="Fill-172" fill="#FF0217"></path>
                    <path d="M173.9504,38.0193 C173.7854,37.9493 173.6064,37.9113 173.4124,37.9063 C173.6274,37.9683 173.8004,38.0013 173.9504,38.0193" id="Fill-174" fill="#FF0217"></path>
                    <path d="M157.282,29.7465 C157.454,29.6085 157.572,29.4605 157.68,29.3045 C157.545,29.4135 157.415,29.5475 157.282,29.7465" id="Fill-176" fill="#FF0217"></path>
                    <path d="M167.7517,39.0996 L169.5267,37.1356 C168.3417,38.4416 165.3577,38.3626 165.5437,40.3156 C166.5097,40.7136 167.6717,40.1936 168.1497,39.3496 L167.7517,39.0996 Z" id="Fill-178" fill="#FF0217"></path>
                    <path d="M147.376,3.6678 L148.143,2.8928 L147.185,2.6648 C147.459,2.9578 146.963,4.3928 147.376,3.6678" id="Fill-180" fill="#FF0217"></path>
                    <path d="M147,2.6241 L147.185,2.6651 C147.145,2.6171 147.086,2.5981 147,2.6241" id="Fill-182" fill="#FF0217"></path>
                    <path d="M160.6394,28.8009 C161.2124,28.9379 161.6714,28.8849 162.1944,28.5369 C161.9784,28.1669 160.5484,27.8239 160.6394,28.8009" id="Fill-184" fill="#FF0217"></path>
                    <polygon id="Fill-186" fill="#FF0217" points="141.9753 6.5097 143.2413 6.1737 141.8603 6.3197"></polygon>
                    <polygon id="Fill-188" fill="#FF0217" points="136.0679 3.186 135.8499 2.818 134.7999 3.519 135.0219 3.888"></polygon>
                    <path d="M143.7939,41.6358 C144.6519,41.8448 145.3219,40.0898 145.0979,39.7188 L143.4339,39.7958 C143.8569,41.3308 143.8959,39.7498 144.8599,40.1388 L143.7939,41.6358 Z" id="Fill-190" fill="#FF0217"></path>
                    <path d="M92.2236,6.0585 C92.5956,5.0315 94.4156,5.6255 94.5106,6.6015 C94.2656,7.0235 93.2796,7.4285 93.8996,8.0495 L95.3386,5.5305 C97.2546,7.1005 93.8836,8.8415 92.9376,9.7305 C94.8886,10.0565 95.4666,8.4005 97.5426,8.4105 C96.9306,8.1845 96.5436,7.5565 96.2206,7.0165 C96.1496,5.2425 98.0836,6.0275 99.4666,5.8875 C98.5866,5.1185 99.0956,4.4685 99.7366,3.7705 C99.8516,3.7175 99.9286,3.6155 99.9836,3.4985 C100.0576,3.4135 100.1286,3.3335 100.2006,3.2485 L100.0356,3.2505 C100.0466,3.0505 100.0106,2.8125 99.8906,2.4825 C98.7306,2.9985 97.8436,1.5175 97.0966,1.4945 C97.8346,4.3775 94.5526,2.1625 93.6136,3.0485 L92.5296,3.3335 L92.1246,3.3395 C92.0426,3.0205 92.1576,2.6255 92.7766,2.0555 C92.2606,2.6245 90.5386,2.4245 90.6976,3.3505 L86.7696,3.3925 C86.6476,3.2745 86.5256,3.1285 86.4346,2.9205 C86.2986,3.1015 86.2756,3.2505 86.2936,3.3965 L69.1786,3.5825 C70.0226,3.8095 70.7536,4.4675 71.6236,4.7865 C70.3176,6.7005 73.0516,5.1315 72.6686,6.9415 C72.0806,7.5995 71.2216,7.3925 70.7096,6.9525 C70.5186,7.8665 71.2476,8.6765 71.1636,9.7685 C73.3226,10.9185 73.6526,6.5435 75.7626,7.2095 C75.6796,8.3045 75.0266,9.2625 76.4086,9.1145 L76.0576,9.3505 C78.2696,8.1245 77.7806,11.8275 79.1726,8.8235 L79.1366,10.4045 C80.1396,9.2135 82.0916,9.2045 83.1916,8.9865 L83.1266,9.2915 C86.2126,7.4815 84.8586,8.9075 88.3236,8.1485 L86.7286,9.9945 C87.9246,10.7575 88.1936,8.7515 89.0516,8.9575 C88.9906,9.2625 89.1896,10.4205 88.3786,10.7065 L92.5836,7.8935 C93.5866,6.7005 92.3796,6.7305 92.2236,6.0585" id="Fill-192" fill="#FF0217"></path>
                    <path d="M97.5427,8.4102 C97.7647,8.4942 98.0187,8.5302 98.3167,8.4692 C98.0287,8.4202 97.7807,8.4102 97.5427,8.4102" id="Fill-194" fill="#FF0217"></path>
                    <path d="M67.9763,3.5961 L69.1783,3.5831 C68.8063,3.4851 68.4183,3.4571 67.9763,3.5961" id="Fill-196" fill="#FF0217"></path>
                    <path d="M103.5696,4.9569 C102.8406,4.1389 104.1156,3.8119 104.2426,3.2049 L101.6316,3.2329 C101.6426,3.8439 101.3846,4.5249 101.4376,5.0829 L103.5696,4.9569 Z" id="Fill-198" fill="#FF0217"></path>
                    <path d="M100.8755,2.085 C100.7875,2.509 100.5105,2.888 100.2005,3.248 L101.6315,3.233 C101.6225,2.776 101.4625,2.36 100.8755,2.085" id="Fill-200" fill="#FF0217"></path>
                    <polygon id="Fill-202" fill="#FF0217" points="101.1519 34.6068 100.6899 34.6618 99.9909 35.1308"></polygon>
                    <path d="M93.9221,31.9269 C94.4741,32.8509 95.5221,32.1489 95.8721,31.9149 C94.6651,31.9449 95.1881,31.5939 93.9221,31.9269" id="Fill-204" fill="#FF0217"></path>
                    <polygon id="Fill-206" fill="#FF0217" points="95.4138 41.8278 94.2498 42.3498 94.3588 42.5318"></polygon>
                    <path d="M59.0896,9.8217 C58.8986,9.8567 58.7136,9.8827 58.5206,9.9247 C58.7816,9.9307 58.9516,9.8867 59.0896,9.8217" id="Fill-208" fill="#FF0217"></path>
                    <path d="M69.0742,8.3136 C66.2982,6.5386 70.8932,6.8366 70.0212,4.5636 L68.5102,5.3176 L68.6392,4.7066 L66.7962,4.9056 C67.1752,5.9506 67.4592,6.0156 67.3762,7.1126 C64.9172,6.6846 66.6012,5.8116 64.7972,4.4286 L62.0482,4.6286 L62.2712,4.2996 C62.0392,4.3236 61.9372,4.4606 61.8572,4.6396 L52.5942,5.3216 C50.9092,6.1936 53.5262,7.2946 52.2832,8.9076 C54.2372,8.9016 57.1392,10.0696 57.3052,7.8826 C57.2402,8.1846 57.1102,8.7876 57.5062,9.0466 L58.6362,7.2466 L57.5592,6.6726 C58.6952,4.8796 62.3632,5.2786 63.0272,6.3926 C60.9402,7.0046 61.9872,9.1636 59.0812,7.9886 C59.2122,8.5436 59.7442,9.5196 59.0892,9.8216 C62.4942,9.1856 65.5472,10.1826 69.0742,8.3136" id="Fill-210" fill="#FF0217"></path>
                    <path d="M34.9167,9.3669 L34.9437,9.1689 C34.8827,9.2749 34.8617,9.3539 34.9167,9.3669" id="Fill-212" fill="#FF0217"></path>
                    <path d="M36.0596,9.6372 L37.7196,7.4942 L35.1316,7.6672 L34.9436,9.1692 C35.1726,8.7872 36.0796,8.0262 36.4316,8.6132 L36.0596,9.6372 Z" id="Fill-214" fill="#FF0217"></path>
                    <path d="M39.6467,6.1977 C38.3107,6.8367 38.3827,8.6077 39.1117,9.4137 C37.8847,10.2347 38.4647,7.5117 37.6187,9.3797 C37.6467,10.6567 39.1597,9.9077 39.5067,9.6727 L39.6467,6.1977 Z" id="Fill-216" fill="#FF0217"></path>
                    <polygon id="Fill-218" fill="#FF0217" points="49.5068 7.1292 49.1308 7.8632 50.0568 8.0582"></polygon>
                    <path d="M49.1311,7.863 L48.2121,7.667 C48.2761,8.211 48.3391,8.743 48.4881,9.115 L49.1311,7.863 Z" id="Fill-220" fill="#FF0217"></path>
                    <path d="M45.8005,7.1565 C45.4115,7.0235 44.9805,6.9245 44.4575,6.8765 L45.8005,7.1565 Z" id="Fill-222" fill="#FF0217"></path>
                    <path d="M46.8516,7.6068 L46.8206,7.3758 L45.8006,7.1568 C46.1766,7.2948 46.5136,7.4458 46.8516,7.6068" id="Fill-224" fill="#FF0217"></path>
                    <path d="M48.2119,7.6668 C48.0629,6.4268 47.8879,5.1248 46.5589,5.4698 L46.8199,7.3758 L48.2119,7.6668 Z" id="Fill-226" fill="#FF0217"></path>
                    <polygon id="Fill-228" fill="#FF0217" points="86.9507 39.9609 85.8997 40.6619 86.0107 40.8539 87.0617 40.1509"></polygon>
                    <path d="M80.8867,38.8278 C80.6267,39.0468 80.4297,39.2748 80.2507,39.5098 C80.5247,39.3728 80.7417,39.1668 80.8867,38.8278" id="Fill-230" fill="#FF0217"></path>
                    <path d="M76.3787,47.2953 C75.1427,46.0473 78.0847,45.6453 75.7947,45.0933 C75.5927,43.9323 76.6667,42.4353 77.7437,43.0123 C77.6587,44.1053 76.6937,43.7133 77.3567,44.8283 C78.0727,43.5633 78.3447,44.4253 78.0957,42.7783 C79.2997,41.7513 79.4337,40.5803 80.2507,39.5093 C78.7957,40.2343 75.7377,38.5433 73.8907,40.6563 C72.8717,42.6373 73.4897,45.3393 73.4857,48.1973 C73.6387,48.8703 76.2797,49.1883 76.3787,47.2953" id="Fill-232" fill="#FF0217"></path>
                    <g id="Group-236" transform="translate(78.000000, 49.211000)">
                        <mask id="mask-8" fill="white">
                            <use xlink:href="#path-7"></use>
                        </mask>
                        <g id="Clip-235"></g>
                        <path d="M0.3237,0.9379 C0.8957,1.0789 1.0707,0.9639 1.4217,0.7269 C1.3267,-0.2501 0.7857,0.8949 0.3237,0.9379" id="Fill-234" fill="#FF0217" mask="url(#mask-8)"></path>
                    </g>
                    <path d="M65.1758,28.6206 C65.0668,29.0266 64.0318,29.5306 64.2538,30.2326 L65.8228,29.7216 C65.4548,29.6526 65.3248,29.1556 65.1758,28.6206" id="Fill-237" fill="#FF0217"></path>
                    <path d="M66.5115,29.5005 L65.8235,29.7215 C65.9955,29.7565 66.2085,29.6995 66.5115,29.5005" id="Fill-239" fill="#FF0217"></path>
                    <path d="M65.1011,28.3665 C65.1261,28.4505 65.1481,28.5375 65.1761,28.6205 C65.1981,28.5335 65.1941,28.4455 65.1011,28.3665" id="Fill-241" fill="#FF0217"></path>
                    <path d="M41.9924,6.4452 C42.0144,5.6602 41.3154,6.1282 40.9644,6.3612 C41.2494,6.4272 41.6504,6.6842 41.9924,6.4452" id="Fill-243" fill="#FF0217"></path>
                    <path d="M15.6682,9.5316 L15.0502,8.9076 C15.2692,9.2796 15.3802,9.4656 15.6682,9.5316" id="Fill-245" fill="#FF0217"></path>
                    <path d="M6.1477,30.966 C6.1297,31.119 6.0847,31.247 6.0227,31.367 C6.0847,31.269 6.1267,31.139 6.1477,30.966" id="Fill-247" fill="#FF0217"></path>
                    <path d="M6.0225,31.3665 C5.6005,32.0195 4.2975,31.0045 3.8285,31.9985 L3.8885,31.6945 L3.0165,32.2835 C3.8335,32.1975 5.5495,32.3185 6.0225,31.3665" id="Fill-249" fill="#FF0217"></path>
                </g>
                <polygon id="Rectangle-9-Copy" fill="#BA99BA" fill-rule="evenodd" transform="translate(74.500000, 1107.500000) rotate(-210.000000) translate(-74.500000, -1107.500000) " points="51 1084 98 1097.97568 64.8213189 1131"></polygon>
                <polygon id="Rectangle-9-Copy-8" fill="#719B77" fill-rule="evenodd" transform="translate(116.500000, 1164.500000) rotate(-165.000000) translate(-116.500000, -1164.500000) " points="103 1151 130 1159.02858 110.939907 1178"></polygon>
                <circle id="Oval-2" stroke="#E5702B" stroke-width="8" cx="26" cy="392" r="26"></circle>
                <circle id="Oval-2-Copy-4" stroke="#F6BF32" stroke-width="6" cx="1370" cy="1085" r="11"></circle>
                <circle id="Oval-2-Copy-3" fill="#B71D43" fill-rule="evenodd" cx="66" cy="446" r="8"></circle>
                <polygon id="Rectangle-9-Copy-2" fill="#009A5D" fill-rule="evenodd" transform="translate(1414.500000, 1565.000000) rotate(12.000000) translate(-1414.500000, -1565.000000) " points="1391 1541 1438 1555.27304 1404.82132 1589"></polygon>
                <polygon id="Rectangle-9-Copy-5" fill="#9CB7C1" fill-rule="evenodd" transform="translate(142.000000, 1754.500000) rotate(-285.000000) translate(-142.000000, -1754.500000) " points="106 1718 178 1739.70691 127.173084 1791"></polygon>
                <polygon id="Rectangle-9-Copy" fill="#B71D43" fill-rule="evenodd" opacity="0.900000036" transform="translate(1241.000000, 70.000000) rotate(-285.000000) translate(-1241.000000, -70.000000) " points="1219 48 1263 61.0836199 1231.93911 92"></polygon>
                <polygon id="Rectangle-9-Copy-4" fill="#F6BF32" fill-rule="evenodd" opacity="0.900000036" transform="translate(152.500000, 77.500000) rotate(-362.000000) translate(-152.500000, -77.500000) " points="122 47 183 65.1386549 139.938307 108"></polygon>
                <polygon id="Rectangle-9-Copy-3" fill="#D83A2B" fill-rule="evenodd" opacity="0.900000036" transform="translate(1352.000000, 19.000000) rotate(-345.000000) translate(-1352.000000, -19.000000) " points="1337 4 1367 12.92065 1345.82212 34"></polygon>
                <polygon id="Rectangle-9-Copy-9" fill="#FE3445" fill-rule="evenodd" transform="translate(1416.500000, 653.500000) rotate(-293.000000) translate(-1416.500000, -653.500000) " points="1395 632 1438 644.786265 1407.64504 675"></polygon>
            </g>
        </g>
    </g>
</svg>