<?xml version="1.0" encoding="utf-8"?>
<!-- Generator: Adobe Illustrator 23.0.4, SVG Export Plug-In . SVG Version: 6.00 Build 0)  -->
<!DOCTYPE svg PUBLIC "-//W3C//DTD SVG 1.1//EN" "http://www.w3.org/Graphics/SVG/1.1/DTD/svg11.dtd" [
	<!ENTITY ns_extend "http://ns.adobe.com/Extensibility/1.0/">
	<!ENTITY ns_ai "http://ns.adobe.com/AdobeIllustrator/10.0/">
	<!ENTITY ns_graphs "http://ns.adobe.com/Graphs/1.0/">
	<!ENTITY ns_vars "http://ns.adobe.com/Variables/1.0/">
	<!ENTITY ns_imrep "http://ns.adobe.com/ImageReplacement/1.0/">
	<!ENTITY ns_sfw "http://ns.adobe.com/SaveForWeb/1.0/">
	<!ENTITY ns_custom "http://ns.adobe.com/GenericCustomNamespace/1.0/">
	<!ENTITY ns_adobe_xpath "http://ns.adobe.com/XPath/1.0/">
]>
<svg version="1.1" id="Calque_1" xmlns:x="&ns_extend;" xmlns:i="&ns_ai;" xmlns:graph="&ns_graphs;"
	 xmlns="http://www.w3.org/2000/svg" xmlns:xlink="http://www.w3.org/1999/xlink" x="0px" y="0px" width="1241px" height="282px"
	 viewBox="0 0 1241 282" style="enable-background:new 0 0 1241 282;" xml:space="preserve">
<style type="text/css">
	.st0{opacity:0.8;fill-rule:evenodd;clip-rule:evenodd;fill:#1FA4E9;enable-background:new    ;}
	.st1{opacity:0.8;fill:#BA99BA;enable-background:new    ;}
	.st2{opacity:0.8;fill:#F6BF32;enable-background:new    ;}
	.st3{opacity:0.8;fill-rule:evenodd;clip-rule:evenodd;fill:#E5702B;enable-background:new    ;}
</style>
<metadata>
	<sfw  xmlns="&ns_sfw;">
		<slices></slices>
		<sliceSourceBounds  bottomLeftOrigin="true" height="274" width="1239" x="2" y="8"></sliceSourceBounds>
	</sfw>
</metadata>
<title>Rectangle 9</title>
<desc>Created with Sketch.</desc>
<g id="Page-1">
	<g id="Homepage" transform="translate(-115.000000, -202.000000)">
		<g id="Rectangle-9" transform="translate(107.000000, 202.000000)">
			<polygon id="Rectangle-9-Copy-8" class="st0" points="1202,0 1249,14 1215.8,47 			"/>
			<path class="st1" d="M1066.5,257c-14.6,0-26.5-11.9-26.5-26.5s11.9-26.5,26.5-26.5s26.5,11.9,26.5,26.5S1081.1,257,1066.5,257z
				 M1066.5,210c-11.3,0-20.5,9.2-20.5,20.5s9.2,20.5,20.5,20.5s20.5-9.2,20.5-20.5S1077.8,210,1066.5,210z"/>
			<path class="st2" d="M65,132.6c-30.3,0-55-24.7-55-55s24.7-55,55-55s55,24.7,55,55S95.3,132.6,65,132.6z M65,32.6
				c-24.8,0-45,20.2-45,45c0,24.8,20.2,45,45,45s45-20.2,45-45C110,52.8,89.8,32.6,65,32.6z"/>
			<circle id="Oval-3" class="st3" cx="1120" cy="266" r="8"/>
		</g>
	</g>
</g>
</svg>
