<?xml version="1.0" encoding="UTF-8"?>
<svg width="67px" height="126px" viewBox="0 0 67 126" version="1.1" xmlns="http://www.w3.org/2000/svg" xmlns:xlink="http://www.w3.org/1999/xlink">
    <!-- Generator: Sketch 50.2 (55047) - http://www.bohemiancoding.com/sketch -->
    <title>Page 1</title>
    <desc>Created with Sketch.</desc>
    <defs></defs>
    <g id="Page-1" stroke="none" stroke-width="1" fill="none" fill-rule="evenodd" opacity="0.149999991">
        <g id="Bafa" transform="translate(-583.000000, -2149.000000)" fill="#4A66AD">
            <g id="Page-1" transform="translate(583.000000, 2149.000000)">
                <path d="M43.3649524,126 L19.7299048,126 L19.7299048,68.6159856 L0,68.6159856 L0,46.1394231 L19.7299048,46.1394231 L19.7299048,29.5691106 C19.7299048,20.1039663 22.4226667,12.8094952 27.8081905,7.68569712 C33.1937143,2.56189904 40.3786667,0 49.3502857,0 C56.5224762,0 62.4057143,0.290264423 67,0.883413462 L67,20.6971154 L54.7358095,21 C50.3457143,21 47.3466667,21.8834135 45.7514286,23.6628606 C44.1561905,25.4296875 43.3649524,28.0925481 43.3649524,31.6388221 L43.3649524,46.1394231 L66.0939048,46.1394231 L63.107619,68.6159856 L43.3649524,68.6159856 L43.3649524,126 Z" id="Fill-1"></path>
            </g>
        </g>
    </g>
</svg>