<?xml version="1.0" standalone="no"?>
<!DOCTYPE svg PUBLIC "-//W3C//DTD SVG 20010904//EN"
 "http://www.w3.org/TR/2001/REC-SVG-20010904/DTD/svg10.dtd">
<svg version="1.0" xmlns="http://www.w3.org/2000/svg"
 width="470.000000pt" height="470.000000pt" viewBox="0 0 470.000000 470.000000"
 preserveAspectRatio="xMidYMid meet">
<metadata>
Created by potrace 1.11, written by Peter Selinger 2001-2013
</metadata>
<g transform="translate(0.000000,470.000000) scale(0.100000,-0.100000)"
fill="#000000" stroke="none">
<path d="M1195 4353 c-91 -12 -200 -64 -254 -121 -54 -58 -73 -104 -73 -178 0
-70 17 -112 147 -354 31 -58 75 -139 97 -180 23 -41 68 -127 101 -190 33 -63
63 -119 67 -125 5 -5 44 -77 88 -160 43 -82 94 -177 112 -210 17 -33 69 -130
115 -215 46 -85 161 -299 257 -475 l173 -320 5 -730 c4 -573 8 -736 18 -760 7
-16 36 -51 63 -77 70 -66 148 -91 272 -86 83 3 101 7 161 37 40 21 79 50 98
73 59 75 58 65 58 837 l0 706 78 145 c86 159 368 684 440 820 25 47 48 90 52
95 4 6 33 60 65 120 31 61 70 133 85 160 15 28 45 84 67 125 22 41 58 109 80
150 23 41 61 113 85 160 25 47 77 144 116 215 39 72 76 153 82 180 13 58 6
125 -20 175 -59 115 -269 208 -401 179 -52 -12 -73 -23 -125 -64 -46 -38 -77
-93 -332 -595 -279 -551 -492 -968 -553 -1084 l-57 -109 -57 114 c-32 62 -74
145 -95 184 -20 38 -99 192 -175 340 -76 149 -166 324 -200 390 -34 66 -124
242 -200 390 -76 149 -151 289 -167 312 -62 92 -168 140 -273 126z"/>
</g>
</svg>
